<?xml version="1.0" encoding="UTF-8" standalone="no"?>
<!DOCTYPE svg PUBLIC "-//W3C//DTD SVG 1.1//EN" "http://www.w3.org/Graphics/SVG/1.1/DTD/svg11.dtd" >
<svg xmlns="http://www.w3.org/2000/svg">
<metadata>
Generated by SVGconv.
Copyright   : Copyright (c) 2018 ParaType Inc., ParaType Ltd. All rights reserved.
Designer    : ParaType Ltd
Foundry     : ParaType Ltd
Foundry URL : http://www.paratype.com
</metadata>
<defs>
<font id="SBSansText-Italic" horiz-adv-x="585" >
<font-face units-per-em="1000" ascent="982" descent="272" >
<font-face-src>
<font-face-name/>
</font-face-src>
</font-face>
<missing-glyph horiz-adv-x="500" />
<glyph unicode="&#13;" horiz-adv-x="290" />
<glyph unicode="&#32;" horiz-adv-x="290" />
<glyph unicode="&#33;" horiz-adv-x="385" d="M295 700h94l-106 -475h-85zM205 -5q-64 0 -64 63q0 62 64 62q63 0 63 -62q0 -63 -63 -63z" />
<glyph unicode="&#34;" horiz-adv-x="518" d="M215 435l56 265h76l-57 -265zM412 435l56 265h76l-57 -265z" />
<glyph unicode="&#35;" horiz-adv-x="702" d="M478 201h-167l-43 -201h-76l43 201h-125l16 69h123l35 161h-125l15 69h124l43 200h76l-43 -200h167l43 200h72l-43 -200h128l-15 -69h-127l-35 -161h129l-16 -69h-127l-43 -201h-72zM325 270h167l35 161l-167 0z" />
<glyph unicode="&#36;" horiz-adv-x="601" d="M266 -10q-54 4 -103.5 19q-49.5 15 -77.5 38l22 100q35 -38 85 -59q50 -21 107 -21q88 0 133.5 34.5q45.5 34.5 45.5 102.5q0 38 -22 61q-22 23 -54.5 39.5q-32.5 16.5 -71 30q-38.5 13.5 -71 34q-32.5 20.5 -54.5 51.5q-22 31 -22 82q0 45 16.5 82q16.5 37 47.5 64q31 27 74 43q43 16 97 19l19 90h73l-19 -92q44 -4 83.5 -14.5q39.5 -10.5 66.5 -26.5l-21 -96q-34 29 -78 45.5q-44 16.5 -96 16.5q-166 0 -166 -115q0 -38 22 -60.5q22 -22.5 54.5 -39q32.5 -16.5 70.5 -30.5q38 -14 70.5 -35q32.5 -21 54.5 -53.5q22 -32.5 22 -84.5q0 -100 -61.5 -158q-61.5 -58 -174.5 -66l-24 -111l-72 0z" />
<glyph unicode="&#37;" horiz-adv-x="894" d="M658 -5q-66 0 -106 36q-40 36 -40 102q0 45 16 80.5q16 35.5 43.5 60.5q27.5 25 64.5 38q37 13 80 13q64 0 103 -33q39 -33 39 -99q0 -44 -15 -80.5q-15 -36.5 -41.5 -62.5q-26.5 -26 -63.5 -40.5q-37 -14.5 -80 -14.5zt0 0zM667 58q60 0 90.5 34q30.5 34 30.5 92q0 41 -21.5 60q-21.5 19 -61.5 19q-59 0 -91 -32q-32 -32 -32 -91q0 -40 22.5 -61q22.5 -21 62.5 -21zt0 0zM330 375q-66 0 -106 34q-40 34 -40 100q0 45 16 81q16 36 43.5 61.5q27.5 25.5 64.5 39.5q37 14 80 14q64 0 103 -35q39 -35 39 -101q0 -44 -15 -80q-15 -36 -41.5 -61.5q-26.5 -25.5 -63.5 -39q-37 -13.5 -80 -13.5zt0 0zM339 438q60 0 90.5 32q30.5 32 30.5 90q0 41 -21.5 62q-21.5 21 -61.5 21q-59 0 -91 -34q-32 -34 -32 -93q0 -40 22.5 -59q22.5 -19 62.5 -19zt0 0zM165 0l629 700h84l-630 -700z" />
<glyph unicode="&#38;" horiz-adv-x="855" d="M768 -10q-48 9 -95.5 30q-47.5 21 -87.5 57q-58 -49 -121 -68q-63 -19 -133 -19q-45 0 -82.5 13.5q-37.5 13.5 -64 38.5q-26.5 25 -41 60.5q-14.5 35.5 -14.5 78.5q0 46 16 82.5q16 36.5 44.5 64.5q28.5 28 67.5 48.5q39 20.5 85 33.5q-14 30 -20 61.5q-6 31.5 -6 57.5q0 94 55 137.5q55 43.5 146 43.5q66 0 104 -33.5q38 -33.5 38 -87.5q0 -43 -17 -75q-17 -32 -47 -56.5q-30 -24.5 -71 -43q-41 -18.5 -90 -34.5q27 -59 66.5 -112.5q39.5 -53.5 92.5 -98.5q68 61 114 145.5q46 84.5 66 180.5l81 0q-11 -50 -30 -100.5q-19 -50.5 -45.5 -97.5q-26.5 -47 -59 -89.5q-32.5 -42.5 -70.5 -76.5q32 -24 68.5 -36q36.5 -12 68.5 -18zM217 186q0 -62 38.5 -93q38.5 -31 100.5 -31q46 0 90.5 14q44.5 14 85.5 46q-55 49 -97 107.5q-42 58.5 -69 121.5q-69 -18 -109 -58q-40 -40 -40 -107zt0 0zM393 534q0 -21 4 -48q4 -27 15 -48q40 13 70.5 26q30.5 13 51.5 28.5q21 15.5 32 35.5q11 20 11 49q0 28 -17.5 46.5q-17.5 18.5 -57.5 18.5q-109 0 -109 -108z" />
<glyph unicode="&#39;" horiz-adv-x="320" d="M215 435l56 265h76l-57 -265z" />
<glyph unicode="&#40;" horiz-adv-x="368" d="M250 -190q-22 23 -44 61q-22 38 -40 86q-18 48 -29 104q-11 56 -11 115q0 94 26.5 180.5q26.5 86.5 70.5 162q44 75.5 101 138q57 62.5 118 108.5l40 -40q-45 -40 -93.5 -96.5q-48.5 -56.5 -88.5 -126.5q-40 -70 -66 -152.5q-26 -82.5 -26 -173.5q0 -51 8 -101q8 -50 20.5 -93.5q12.5 -43.5 28 -78q15.5 -34.5 30.5 -56.5l-45 -37z" />
<glyph unicode="&#41;" horiz-adv-x="368" d="M239 765q22 -23 44 -61q22 -38 40 -86q18 -48 29 -104q11 -56 11 -115q0 -94 -26.5 -180.5q-26.5 -86.5 -70.5 -162q-44 -75.5 -101 -138q-57 -62.5 -118 -108.5l-40 40q45 40 93.5 96.5q48.5 56.5 88.5 126.5q40 70 66 152q26 82 26 174q0 51 -8 101q-8 50 -20.5 93.5q-12.5 43.5 -28 78q-15.5 34.5 -30.5 56.5l45 37z" />
<glyph unicode="&#42;" horiz-adv-x="538" d="M339 497l-146 38l23 75l141 -62l-13 152h77l-12 -151l140 61l23 -75l-147 -38l102 -115l-64 -44l-81 128l-80 -128l-63 44z" />
<glyph unicode="&#43;" horiz-adv-x="601" d="M332 291h-178v75h178v178h75v-178h178v-75h-178v-178l-75 0z" />
<glyph unicode="&#44;" horiz-adv-x="323" d="M42 -107q42 9 75.5 37.5q33.5 28.5 45.5 65.5q-58 0 -58 58q0 66 70 66q31 0 48.5 -17.5q17.5 -17.5 17.5 -48.5q0 -35 -12 -68.5q-12 -33.5 -33.5 -62.5q-21.5 -29 -51 -50.5q-29.5 -21.5 -63.5 -32.5l-39 53z" />
<glyph unicode="&#45;" horiz-adv-x="475" d="M166 308h276l-16 -75l-276 0z" />
<glyph unicode="&#46;" horiz-adv-x="323" d="M174 -5q-64 0 -64 63q0 62 64 62q63 0 63 -62q0 -63 -63 -63z" />
<glyph unicode="&#47;" horiz-adv-x="373" d="M441 750h81l-469 -930l-81 0z" />
<glyph unicode="&#48;" horiz-adv-x="601" d="M300 -10q-51 0 -88 16q-37 16 -61 45q-24 29 -35 69q-11 40 -11 88q0 46 7.5 102.5q7.5 56.5 24 113.5q16.5 57 42 109q25.5 52 62.5 89q43 49 94.5 68.5q51.5 19.5 119.5 19.5q51 0 87.5 -15.5q36.5 -15.5 59.5 -43.5q23 -28 33.5 -67q10.5 -39 10.5 -86q0 -45 -7 -99.5q-7 -54.5 -22.5 -109.5q-15.5 -55 -39.5 -105.5q-24 -50.5 -58 -87.5q-45 -63 -100.5 -84.5q-55.5 -21.5 -118.5 -21.5zt0 0zM314 64q48 0 79.5 17.5q31.5 17.5 56.5 53.5q27 31 47 75q20 44 33.5 92.5q13.5 48.5 20 97.5q6.5 49 6.5 90q0 32 -6 58.5q-6 26.5 -20 46q-14 19.5 -37.5 30.5q-23.5 11 -57.5 11q-42 0 -72.5 -15q-30.5 -15 -58.5 -52q-28 -29 -48.5 -72q-20.5 -43 -34.5 -91.5q-14 -48.5 -21 -99q-7 -50.5 -7 -94.5q0 -31 6 -58q6 -27 20 -47q14 -20 37 -31.5t57 -11.5z" />
<glyph unicode="&#49;" horiz-adv-x="601" d="M314 75l111 521l-233 -117l18 86l262 135h62l-133 -625h163l-16 -75h-458l16 75z" />
<glyph unicode="&#50;" horiz-adv-x="601" d="M79 62q28 20 71 52q43 32 89.5 66.5q46.5 34.5 89.5 67.5q43 33 72 55q36 28 63 52.5q27 24.5 46 49.5q19 25 28.5 51.5q9.5 26.5 9.5 58.5q0 64 -35 90q-35 26 -118 26q-56 0 -107 -19q-51 -19 -94 -47l20 97q48 23 102 35.5q54 12.5 111 12.5q96 0 152.5 -43.5q56.5 -43.5 56.5 -132.5q0 -47 -13 -84.5q-13 -37.5 -37 -70.5q-24 -33 -58 -63.5q-34 -30.5 -77 -63.5q-44 -33 -103.5 -77.5q-59.5 -44.5 -135.5 -97.5l343 0l-17 -77l-472 0z" />
<glyph unicode="&#51;" horiz-adv-x="601" d="M87 123q29 -23 78 -40.5q49 -17.5 118 -17.5q43 0 80 7.5q37 7.5 65 26q28 18.5 44 49.5q16 31 16 78q0 47 -38 71.5q-38 24.5 -124 24.5h-78l16 73h72q100 0 150.5 37q50.5 37 50.5 106q0 48 -32 72.5q-32 24.5 -105 24.5q-68 0 -121 -15q-53 -15 -91 -36l21 85q51 22 106.5 31.5q55.5 9.5 119.5 9.5q52 0 88.5 -11.5q36.5 -11.5 59 -31.5q22.5 -20 33 -46.5q10.5 -26.5 10.5 -56.5q0 -88 -47 -136.5q-47 -48.5 -132 -68.5q69 -10 99.5 -44q30.5 -34 30.5 -95q0 -62 -25.5 -107.5q-25.5 -45.5 -71.5 -75.5q-41 -27 -90.5 -37q-49.5 -10 -113.5 -10q-66 0 -119.5 15q-53.5 15 -89.5 36z" />
<glyph unicode="&#52;" horiz-adv-x="601" d="M78 236l425 464h109l-93 -441h96l-15 -76h-98l-39 -183h-86l39 183h-350zM433 259l72 342l-313 -342z" />
<glyph unicode="&#53;" horiz-adv-x="601" d="M264 700h386l-16 -75h-312l-59 -200q20 2 44.5 4.5q24.5 2.5 64.5 2.5q46 0 86 -9q40 -9 69.5 -29q29.5 -20 46.5 -52q17 -32 17 -79q0 -72 -25 -124q-25 -52 -68.5 -85q-43.5 -33 -101.5 -48.5q-58 -15.5 -124 -15.5q-55 0 -104.5 9.5q-49.5 9.5 -83.5 26.5l19 87q36 -25 81 -36.5q45 -11.5 95 -11.5q44 0 84.5 10q40.5 10 71 31.5q30.5 21.5 49 56q18.5 34.5 18.5 83.5q0 38 -15 60.5q-15 22.5 -39.5 34.5q-24.5 12 -56 15.5q-31.5 3.5 -63.5 3.5q-48 0 -89.5 -4.5q-41.5 -4.5 -77.5 -12.5z" />
<glyph unicode="&#54;" horiz-adv-x="601" d="M625 594q-21 16 -56 28.5q-35 12.5 -89 12.5q-66 0 -114 -24q-48 -24 -82 -65q-34 -41 -54.5 -96q-20.5 -55 -30.5 -116q38 57 88 86.5q50 29.5 129 29.5q88 0 140.5 -47q52.5 -47 52.5 -135q0 -64 -21 -115.5q-21 -51.5 -59.5 -87.5q-38.5 -36 -91.5 -55.5q-53 -19.5 -117 -19.5q-96 0 -154.5 57.5q-58.5 57.5 -58.5 165.5q0 61 10 120.5q10 59.5 29 112.5q19 53 47 98.5q28 45.5 64 78.5q55 50 114 68.5q59 18.5 131 18.5q42 0 79.5 -8q37.5 -8 62.5 -22zM328 65q42 0 77.5 13q35.5 13 61 37q25.5 24 39.5 58.5q14 34.5 14 77.5q0 65 -36.5 96q-36.5 31 -99.5 31q-38 0 -72.5 -11.5q-34.5 -11.5 -60 -33.5q-25.5 -22 -40.5 -53q-15 -31 -15 -71q0 -67 33 -105.5t99 -38.5z" />
<glyph unicode="&#55;" horiz-adv-x="601" d="M567 625h-381l15 75h490l-10 -49l-428 -651l-103 0z" />
<glyph unicode="&#56;" horiz-adv-x="601" d="M297 -10q-42 0 -80.5 10q-38.5 10 -68 31q-29.5 21 -46.5 54.5q-17 33.5 -17 80.5q0 45 14 80.5q14 35.5 39.5 62q25.5 26.5 60.5 43.5q35 17 77 24q-53 16 -77 46.5q-24 30.5 -24 76.5q0 57 23.5 97q23.5 40 61.5 65.5q38 25.5 86 37q48 11.5 98 11.5q39 0 75.5 -8.5q36.5 -8.5 65.5 -27.5q29 -19 46.5 -48.5q17.5 -29.5 17.5 -71.5q0 -40 -11.5 -70q-11.5 -30 -33 -52.5q-21.5 -22.5 -51.5 -37.5q-30 -15 -67 -25q59 -11 85.5 -50q26.5 -39 26.5 -92q0 -58 -23.5 -106q-23.5 -48 -69.5 -79q-39 -27 -90.5 -39.5q-51.5 -12.5 -117.5 -12.5zt0 0zM317 65q39 0 73.5 9q34.5 9 61 28.5q26.5 19.5 42 50q15.5 30.5 15.5 74.5q0 33 -12.5 54.5q-12.5 21.5 -32.5 33.5q-20 12 -46 17q-26 5 -54 5q-35 0 -69 -8.5q-34 -8.5 -61 -27q-27 -18.5 -43.5 -47q-16.5 -28.5 -16.5 -68.5q0 -32 11.5 -54.5q11.5 -22.5 31 -37.5q19.5 -15 45.5 -22q26 -7 55 -7zt0 0zM434 635q-33 0 -64 -7.5q-31 -7.5 -54.5 -24q-23.5 -16.5 -38 -43q-14.5 -26.5 -14.5 -64.5q0 -27 10.5 -45q10.5 -18 28 -29.5q17.5 -11.5 40.5 -16.5q23 -5 48 -5q33 0 63.5 6.5q30.5 6.5 54.5 22.5q24 16 38 41.5q14 25.5 14 63.5q0 27 -10.5 46.5q-10.5 19.5 -28 31.5q-17.5 12 -40.5 17.5t-47 5.5z" />
<glyph unicode="&#57;" horiz-adv-x="601" d="M247 -10q-42 0 -82.5 9q-40.5 9 -63.5 21l20 88q19 -15 56.5 -29q37.5 -14 85.5 -14q67 0 117 25q50 25 84 67q34 42 53.5 97q19.5 55 27.5 114q-32 -57 -85.5 -88q-53.5 -31 -132.5 -31q-41 0 -75.5 12.5q-34.5 12.5 -60 36q-25.5 23.5 -39.5 57q-14 33.5 -14 75.5q0 68 23 120q23 52 61 88q78 72 197 72q113 0 168 -60q55 -60 55 -171q0 -117 -32.5 -214q-32.5 -97 -83.5 -156q-51 -60 -117 -89.5q-66 -29.5 -162 -29.5zt0 0zM353 324q40 0 76.5 11.5q36.5 11.5 64 33q27.5 21.5 43.5 53.5q16 32 16 74q0 67 -39 103q-39 36 -105 36q-43 0 -77 -15.5q-34 -15.5 -57 -41.5q-23 -26 -35.5 -61.5q-12.5 -35.5 -12.5 -75.5q0 -60 34.5 -88.5t91.5 -28.5z" />
<glyph unicode="&#58;" horiz-adv-x="328" d="M176 -5q-64 0 -64 63q0 62 64 62q63 0 63 -62q0 -63 -63 -63zt0 0zM261 390q-64 0 -64 63q0 62 64 62q63 0 63 -62q0 -63 -63 -63z" />
<glyph unicode="&#59;" horiz-adv-x="328" d="M44 -107q42 9 75.5 37.5q33.5 28.5 45.5 65.5q-58 0 -58 58q0 66 70 66q31 0 48.5 -17.5q17.5 -17.5 17.5 -48.5q0 -35 -12 -68.5q-12 -33.5 -33.5 -62.5q-21.5 -29 -51 -50.5q-29.5 -21.5 -63.5 -32.5zM261 390q-64 0 -64 63q0 62 64 62q63 0 63 -62q0 -63 -63 -63z" />
<glyph unicode="&#60;" horiz-adv-x="601" d="M136 293v72l430 172v-80l-329 -127v-2l329 -125l0 -82z" />
<glyph unicode="&#61;" horiz-adv-x="601" d="M585 264v-75h-431v75zM585 468v-75h-431l0 75z" />
<glyph unicode="&#62;" horiz-adv-x="601" d="M173 200l329 127v2l-329 126v82l430 -172v-73l-430 -171z" />
<glyph unicode="&#63;" horiz-adv-x="551" d="M231 218q9 50 32.5 81.5q23.5 31.5 53.5 53q30 21.5 62.5 37q32.5 15.5 59.5 34.5q27 19 44.5 45.5q17.5 26.5 17.5 69.5q0 44 -28.5 67.5q-28.5 23.5 -88.5 23.5q-57 0 -97.5 -13q-40.5 -13 -75.5 -32l19 92q38 16 84 24.5q46 8.5 93 8.5q95 0 142.5 -39q47.5 -39 47.5 -111q0 -58 -19 -95.5q-19 -37.5 -47.5 -62.5q-28.5 -25 -63 -42q-34.5 -17 -65.5 -35.5q-31 -18.5 -55 -43q-24 -24.5 -31 -63.5zM240 -6q-63 0 -63 63q0 62 63 62q63 0 63 -62q0 -63 -63 -63z" />
<glyph unicode="&#64;" horiz-adv-x="1005" d="M588 -130q-103 0 -182 29.5q-79 29.5 -132 84q-53 54.5 -80.5 131q-27.5 76.5 -27.5 170.5q0 91 27.5 169q27.5 78 80.5 135q53 57 131 89q78 32 179 32q88 0 160 -25.5q72 -25.5 124 -73.5q52 -48 80.5 -116.5q28.5 -68.5 28.5 -154.5q0 -57 -15.5 -107q-15.5 -50 -43.5 -87.5q-28 -37.5 -65.5 -59q-37.5 -21.5 -80.5 -21.5q-57 0 -83 24q-26 24 -28 75q-19 -52 -58.5 -75.5q-39.5 -23.5 -101.5 -23.5q-67 0 -102.5 42.5q-35.5 42.5 -35.5 106.5q0 28 5 63.5q5 35.5 17 70.5q12 35 31 67.5q19 32.5 47 56.5q27 23 59.5 33q32.5 10 68.5 10q59 0 85 -24q26 -24 30 -61l26 80h62l-59 -272q-5 -22 -7.5 -39.5q-2.5 -17.5 -2.5 -22.5q0 -49 52 -49q34 0 60.5 19.5q26.5 19.5 43.5 50.5q17 31 26 68q9 37 9 73q0 74 -23 132q-23 58 -66.5 98.5q-43.5 40.5 -105 62q-61.5 21.5 -139.5 21.5q-86 0 -152 -25.5q-66 -25.5 -111 -73.5q-45 -48 -68.5 -116q-23.5 -68 -23.5 -153q0 -80 22.5 -146q22.5 -66 67.5 -112.5q45 -46.5 112.5 -72q67.5 -25.5 157.5 -25.5q51 0 100 11.5q49 11.5 80 31.5l0 -66q-33 -14 -80.5 -24.5q-47.5 -10.5 -98.5 -10.5zt0 0zM435 219q0 -42 20 -66q20 -24 65 -24q51 0 83 23.5q32 23.5 51 74.5q13 31 21.5 72q8.5 41 8.5 73q0 42 -22.5 60.5q-22.5 18.5 -63.5 18.5q-27 0 -50 -6.5q-23 -6.5 -42 -23.5q-20 -18 -33.5 -44.5q-13.5 -26.5 -21.5 -55q-8 -28.5 -12 -55.5t-4 -47z" />
<glyph unicode="&#65;" horiz-adv-x="671" d="M435 700h99l112 -700h-91l-28 187h-300l-107 -187h-95zM272 265h243l-50 335z" />
<glyph unicode="&#66;" horiz-adv-x="654" d="M253 699q54 3 105 4.5q51 1.5 96 1.5q51 0 92.5 -7q41.5 -7 71 -23.5q29.5 -16.5 45.5 -43.5q16 -27 16 -68q0 -85 -37.5 -135.5q-37.5 -50.5 -120.5 -67.5q57 -8 87 -40q30 -32 30 -89q0 -58 -19.5 -106q-19.5 -48 -64.5 -79q-40 -28 -103 -39.5q-63 -11.5 -134 -11.5q-52 0 -108.5 0.5q-56.5 0.5 -103.5 5.5zM212 76q31 -2 61.5 -2.5q30.5 -0.5 61.5 -0.5q109 0 157.5 35.5q48.5 35.5 48.5 118.5q0 51 -31.5 74.5q-31.5 23.5 -109.5 23.5h-136zM404 393q92 0 135.5 34.5q43.5 34.5 43.5 107.5q0 47 -28.5 69.5q-28.5 22.5 -104.5 22.5q-31 0 -60.5 -0.5q-29.5 -0.5 -62.5 -2.5l-49 -231z" />
<glyph unicode="&#67;" horiz-adv-x="644" d="M689 580q-34 25 -74.5 37.5q-40.5 12.5 -95.5 12.5q-63 0 -109 -16.5q-46 -16.5 -87 -58.5q-24 -25 -43 -60q-19 -35 -33 -75q-14 -40 -21.5 -83.5q-7.5 -43.5 -7.5 -84.5q0 -96 50.5 -139q50.5 -43 145.5 -43q59 0 108 15.5q49 15.5 79 31.5l-19 -90q-34 -14 -80.5 -25.5q-46.5 -11.5 -103.5 -11.5q-64 0 -115 14q-51 14 -87 45q-36 31 -55 79q-19 48 -19 116q0 42 9 93q9 51 27 101.5q18 50.5 45 97.5q27 47 63 82q51 48 115.5 70q64.5 22 145.5 22q64 0 108.5 -12q44.5 -12 73.5 -27z" />
<glyph unicode="&#68;" horiz-adv-x="733" d="M292 -5q-59 0 -102.5 2q-43.5 2 -83.5 5l148 697q48 3 95.5 4.5q47.5 1.5 110.5 1.5q67 0 121.5 -14.5q54.5 -14.5 93 -45.5q38.5 -31 59.5 -79q21 -48 21 -115q0 -60 -10 -115q-10 -55 -28 -102q-18 -47 -43 -85.5q-25 -38.5 -56 -63.5q-31 -26 -65.5 -43q-34.5 -17 -74 -27.5q-39.5 -10.5 -86 -15q-46.5 -4.5 -100.5 -4.5zt0 0zM212 79q26 -3 46 -3.5q20 -0.5 44 -0.5q80 0 140 12.5q60 12.5 105 50.5q49 41 80.5 117q31.5 76 31.5 185q0 52 -15.5 87.5q-15.5 35.5 -44 57q-28.5 21.5 -68.5 31q-40 9.5 -90 9.5q-32 0 -57.5 -1q-25.5 -1 -56.5 -3z" />
<glyph unicode="&#69;" horiz-adv-x="602" d="M254 700h430l-17 -80h-340l-47 -223h310l-17 -77h-310l-51 -240h340l-17 -80l-430 0z" />
<glyph unicode="&#70;" horiz-adv-x="582" d="M254 700h420l-17 -80h-330l-53 -246h316l-17 -80h-315l-63 -294l-90 0z" />
<glyph unicode="&#71;" horiz-adv-x="691" d="M414 -10q-66 0 -120 15q-54 15 -91.5 47.5q-37.5 32.5 -58 82q-20.5 49.5 -20.5 118.5q0 55 12.5 112q12.5 57 34.5 108.5q22 51.5 51.5 93.5q29.5 42 63.5 69q26 21 54 35q28 14 60 22.5q32 8.5 69 12.5q37 4 81 4q28 0 55 -4q27 -4 49.5 -10q22.5 -6 40.5 -12.5q18 -6.5 30 -12.5l-19 -92q-13 9 -32 18.5q-19 9.5 -41.5 16.5q-22.5 7 -47 11.5q-24.5 4.5 -49.5 4.5q-30 0 -55.5 -2.5q-25.5 -2.5 -48 -8.5q-22.5 -6 -44 -16.5q-21.5 -10.5 -42.5 -27.5q-28 -22 -51 -57q-23 -35 -39.5 -77.5q-16.5 -42.5 -26 -88.5q-9.5 -46 -9.5 -91q0 -54 14.5 -91q14.5 -37 41.5 -59q27 -22 66 -31.5q39 -9.5 89 -9.5q35 0 69.5 6.5q34.5 6.5 60.5 16.5l40 190h-152l16 77h235l-69 -324q-15 -7 -37.5 -15q-22.5 -8 -50 -15q-27.5 -7 -60.5 -11.5t-69 -4.5z" />
<glyph unicode="&#72;" horiz-adv-x="771" d="M254 700h90l-64 -300h381l64 300h90l-149 -700h-90l67 320h-380l-68 -320l-90 0z" />
<glyph unicode="&#73;" horiz-adv-x="310" d="M259 700h90l-149 -700l-90 0z" />
<glyph unicode="&#74;" horiz-adv-x="408" d="M131 -5q-28 0 -55 6q-27 6 -50 19l18 85q24 -17 45 -23.5q21 -6.5 47 -6.5q51 0 77 25q26 25 40 88l109 512h90l-111 -525q-20 -96 -69.5 -138t-140.5 -42z" />
<glyph unicode="&#75;" horiz-adv-x="693" d="M332 319h-69l-68 -319h-90l149 700h90l-64 -301h57l330 301h114l-378 -340l263 -360l-102 0z" />
<glyph unicode="&#76;" horiz-adv-x="563" d="M254 700h90l-132 -620h335l-16 -80l-426 0z" />
<glyph unicode="&#77;" horiz-adv-x="882" d="M254 700h109l132 -434l314 434h116l-148 -700h-90l100 466q3 12 6.5 27q3.5 15 7 31q3.5 16 7.5 32q4 16 8 30q-10 -15 -21.5 -32q-11.5 -17 -22.5 -33.5q-11 -16.5 -21 -30.5q-10 -14 -16 -23l-220 -301h-75l-93 300q-3 10 -7 25q-4 15 -8.5 31.5q-4.5 16.5 -9 34q-4.5 17.5 -8.5 32.5q-2 -14 -4.5 -30.5q-2.5 -16.5 -5.5 -33q-3 -16.5 -5.5 -31.5q-2.5 -15 -5.5 -27l-99 -467l-89 0z" />
<glyph unicode="&#78;" horiz-adv-x="764" d="M254 700h92l208 -469q13 -29 24 -55q11 -26 22 -58q5 32 8.5 58q3.5 26 9.5 55l100 469h90l-149 -700h-92l-208 468q-14 30 -24 55.5q-10 25.5 -21 58.5q-5 -33 -9 -58.5q-4 -25.5 -10 -55.5l-99 -468l-91 0z" />
<glyph unicode="&#79;" horiz-adv-x="773" d="M397 -10q-63 0 -113 18q-50 18 -85 52.5q-35 34.5 -54 84q-19 49.5 -19 112.5q0 49 9.5 102q9.5 53 28.5 103.5q19 50.5 48 94.5q29 44 68 77q54 45 114.5 60.5q60.5 15.5 134.5 15.5q128 0 197 -69q69 -69 69 -197q0 -56 -11 -111.5q-11 -55.5 -30.5 -106q-19.5 -50.5 -48 -92q-28.5 -41.5 -62.5 -68.5q-55 -43 -116 -59.5q-61 -16.5 -130 -16.5zt0 0zM411 70q60 0 103.5 15.5q43.5 15.5 77.5 48.5q27 27 47 62q20 35 33.5 75q13.5 40 20 81.5q6.5 41.5 6.5 80.5q0 97 -45.5 147q-45.5 50 -144.5 50q-50 0 -88.5 -11q-38.5 -11 -73.5 -39q-33 -26 -56.5 -64q-23.5 -38 -38.5 -80.5q-15 -42.5 -22.5 -87q-7.5 -44.5 -7.5 -83.5q0 -94 47 -144.5t142 -50.5z" />
<glyph unicode="&#80;" horiz-adv-x="636" d="M252 696q43 4 89.5 6.5q46.5 2.5 103.5 2.5q127 0 182 -48q55 -48 55 -135q0 -77 -24.5 -135q-24.5 -58 -77.5 -98q-38 -29 -99.5 -42.5q-61.5 -13.5 -137.5 -13.5q-50 0 -98 6l-50 -239h-91zM262 318q27 -3 48.5 -4q21.5 -1 49.5 -1q47 0 92 6q45 6 77 33q28 24 42.5 62.5q14.5 38.5 14.5 94.5q0 26 -7.5 47.5q-7.5 21.5 -25.5 36.5q-18 15 -48 23.5q-30 8.5 -75 8.5q-28 0 -51.5 -1q-23.5 -1 -51.5 -3z" />
<glyph unicode="&#81;" horiz-adv-x="773" d="M397 -10q-63 0 -113 18q-50 18 -85 52.5q-35 34.5 -54 84q-19 49.5 -19 112.5q0 49 9.5 102q9.5 53 28.5 103.5q19 50.5 48 94.5q29 44 68 77q54 45 114.5 60.5q60.5 15.5 134.5 15.5q128 0 197 -69q69 -69 69 -197q0 -56 -11 -111.5q-11 -55.5 -30.5 -106q-19.5 -50.5 -48 -92q-28.5 -41.5 -62.5 -68.5q-32 -25 -65.5 -40.5q-33.5 -15.5 -68.5 -23.5l116 -147h-105l-106 135zM411 70q60 0 103.5 15.5q43.5 15.5 77.5 48.5q27 27 47 62q20 35 33.5 75q13.5 40 20 81.5q6.5 41.5 6.5 80.5q0 97 -45.5 147q-45.5 50 -144.5 50q-50 0 -88.5 -11q-38.5 -11 -73.5 -39q-33 -26 -56.5 -64q-23.5 -38 -38.5 -80.5q-15 -42.5 -22.5 -87q-7.5 -44.5 -7.5 -83.5q0 -94 47 -144.5t142 -50.5z" />
<glyph unicode="&#82;" horiz-adv-x="663" d="M253 696q50 4 98.5 6.5q48.5 2.5 98.5 2.5q103 0 160.5 -41.5q57.5 -41.5 57.5 -131.5q0 -94 -46 -155q-46 -61 -142 -84l151 -293h-97l-146 280h-133l-59 -280h-91zM377 357q100 0 147.5 39q47.5 39 47.5 127q0 54 -34.5 78q-34.5 24 -100.5 24q-31 0 -55.5 -0.5q-24.5 -0.5 -53.5 -4.5l-56 -263z" />
<glyph unicode="&#83;" horiz-adv-x="585" d="M291 -10q-29 0 -59.5 4q-30.5 4 -59 11.5q-28.5 7.5 -52.5 18q-24 10.5 -40 23.5l22 100q35 -38 84.5 -58.5q49.5 -20.5 106.5 -20.5q88 0 133.5 34q45.5 34 45.5 102q0 38 -22 61q-22 23 -54.5 39.5q-32.5 16.5 -70.5 30q-38 13.5 -70.5 34q-32.5 20.5 -54.5 51.5q-22 31 -22 82q0 48 18.5 86.5q18.5 38.5 52 65.5q33.5 27 81.5 41.5q48 14.5 107 14.5q56 0 109.5 -11q53.5 -11 87.5 -31l-20 -97q-34 29 -78 45q-44 16 -97 16q-81 0 -123 -28.5q-42 -28.5 -42 -85.5q0 -38 22 -60.5q22 -22.5 54.5 -39q32.5 -16.5 70.5 -31q38 -14.5 70.5 -35.5q32.5 -21 54.5 -53.5q22 -32.5 22 -84.5q0 -107 -72.5 -165.5t-204.5 -58.5z" />
<glyph unicode="&#84;" horiz-adv-x="583" d="M378 620h-221l17 80h532l-17 -80h-221l-132 -620l-90 0z" />
<glyph unicode="&#85;" horiz-adv-x="735" d="M368 -10q-48 0 -88.5 11.5q-40.5 11.5 -69 35q-28.5 23.5 -44.5 59.5q-16 36 -16 84q0 25 5 63q5 38 15 85l79 372h90l-81 -379q-10 -45 -14 -78.5q-4 -33.5 -4 -51.5q0 -68 38.5 -94.5q38.5 -26.5 102.5 -26.5q52 0 88.5 11q36.5 11 62.5 35q26 24 43 62.5q17 38.5 29 94.5l90 427h91l-92 -428q-16 -76 -41 -129.5q-25 -53.5 -63.5 -87.5q-38.5 -34 -92.5 -49.5t-128 -15.5z" />
<glyph unicode="&#86;" horiz-adv-x="656" d="M176 700h92l81 -597l329 597h99l-394 -700l-107 0z" />
<glyph unicode="&#87;" horiz-adv-x="939" d="M194 700h90v-436q0 -30 -1 -67.5q-1 -37.5 -3 -69.5q14 31 32 69q18 38 34 68l222 436h99l35 -434q2 -30 4.5 -68.5q2.5 -38.5 4.5 -70.5q11 32 26 70q15 38 28 69l183 434h95l-299 -700h-101l-48 580l-297 -580l-103 0z" />
<glyph unicode="&#88;" horiz-adv-x="651" d="M342 362l-147 338h98l119 -273l235 273h110l-295 -341l162 -359h-99l-135 295l-252 -295l-110 0z" />
<glyph unicode="&#89;" horiz-adv-x="618" d="M322 273l-152 427h96l118 -334l257 334h105l-333 -427l-59 -273l-90 0z" />
<glyph unicode="&#90;" horiz-adv-x="606" d="M63 57l502 563h-370l17 80h495l-12 -57l-502 -563h388l-17 -80l-513 0z" />
<glyph unicode="&#91;" horiz-adv-x="368" d="M254 750h230l-14 -70h-149l-168 -790h149l-15 -70l-230 0z" />
<glyph unicode="&#92;" horiz-adv-x="373" d="M70 750h75l278 -930l-75 0z" />
<glyph unicode="&#93;" horiz-adv-x="368" d="M18 -110h149l168 790h-149l15 70h230l-197 -930l-230 0z" />
<glyph unicode="&#94;" horiz-adv-x="601" d="M327 700h97l187 -345h-80l-155 289l-155 -289l-81 0z" />
<glyph unicode="&#95;" horiz-adv-x="450" d="M418 -115v-65h-449l0 65z" />
<glyph unicode="&#96;" horiz-adv-x="243" d="M293 619l-122 142h111l83 -142z" />
<glyph unicode="&#97;" horiz-adv-x="642" d="M488 96q-32 -51 -78.5 -78.5q-46.5 -27.5 -115.5 -27.5q-92 0 -140.5 49.5q-48.5 49.5 -48.5 138.5q0 67 15.5 132q15.5 65 50 116q34.5 51 89.5 82.5q55 31.5 133 31.5q68 0 111.5 -31q43.5 -31 55.5 -90l39 111h66l-112 -530h-73zM194 194q0 -66 35 -97.5q35 -31.5 98 -31.5q41 0 72.5 13q31.5 13 54.5 35.5q23 22.5 38.5 53q15.5 30.5 23.5 65.5l11 58q3 13 4 25q1 12 1 23q0 59 -32.5 93q-32.5 34 -101.5 34q-56 0 -94.5 -24q-38.5 -24 -63 -62.5q-24.5 -38.5 -35.5 -87t-11 -97.5z" />
<glyph unicode="&#98;" horiz-adv-x="638" d="M250 750h87l-67 -310q34 51 81 75.5q47 24.5 120 24.5q83 0 128.5 -52.5q45.5 -52.5 45.5 -142.5q0 -64 -15 -127.5q-15 -63.5 -49 -114q-34 -50.5 -88.5 -82q-54.5 -31.5 -133.5 -31.5q-69 0 -113 36q-44 36 -52 90l-38 -116h-66zM353 65q55 0 94 23.5q39 23.5 63 61q24 37.5 35 85.5q11 48 11 96q0 66 -32.5 100q-32.5 34 -92.5 34q-42 0 -74.5 -13q-32.5 -13 -56.5 -35.5q-24 -22.5 -39.5 -53q-15.5 -30.5 -22.5 -65.5l-11 -57q-16 -78 17 -127t109 -49z" />
<glyph unicode="&#99;" horiz-adv-x="548" d="M502 38q-26 -18 -72.5 -33q-46.5 -15 -105.5 -15q-103 0 -161 54.5q-58 54.5 -58 155.5q0 76 20 139q20 63 59.5 107.5q39.5 44.5 97.5 69q58 24.5 135 24.5q55 0 94.5 -10.5q39.5 -10.5 59.5 -24.5v-88q-40 17 -77 32.5q-37 15.5 -87 15.5q-104 0 -158.5 -67q-54.5 -67 -54.5 -184q0 -32 9.5 -59q9.5 -27 29 -47q19.5 -20 49.5 -31.5q30 -11.5 71 -11.5q46 0 90.5 17q44.5 17 76.5 40z" />
<glyph unicode="&#100;" horiz-adv-x="641" d="M488 96q-31 -51 -75.5 -78.5q-44.5 -27.5 -114.5 -27.5q-96 0 -144.5 49q-48.5 49 -48.5 139q0 67 15.5 132q15.5 65 50 116q34.5 51 89.5 82.5q55 31.5 134 31.5q72 0 113 -32q41 -32 49 -87l69 329h86l-159 -750h-74zM194 194q0 -66 35 -97.5q35 -31.5 100 -31.5q40 0 71 13q31 13 54.5 35.5q23.5 22.5 38.5 53q15 30.5 22 65.5l11 57q8 39 4 71q-4 32 -19.5 55.5q-15.5 23.5 -43 36.5q-27.5 13 -67.5 13q-56 0 -95.5 -24q-39.5 -24 -64 -62.5q-24.5 -38.5 -35.5 -87t-11 -97.5z" />
<glyph unicode="&#101;" horiz-adv-x="573" d="M322 -10q-108 0 -161 55.5q-53 55.5 -53 157.5q0 72 21 134q21 62 60 107q39 45 93.5 70.5q54.5 25.5 121.5 25.5q55 0 92.5 -10.5q37.5 -10.5 60.5 -29q23 -18.5 33 -44q10 -25.5 10 -54.5q0 -76 -66.5 -116.5q-66.5 -40.5 -206.5 -40.5h-127q-2 -8 -3.5 -23q-1.5 -15 -1.5 -30q0 -60 34.5 -95q34.5 -35 113.5 -35q51 0 105.5 16.5q54.5 16.5 90.5 48.5l-16 -81q-15 -12 -37 -22q-22 -10 -48 -17.5q-26 -7.5 -56 -12q-30 -4.5 -60 -4.5zt0 0zM336 306q55 0 89.5 7q34.5 7 53.5 18.5q19 11.5 25.5 26.5q6.5 15 6.5 32q0 31 -23 54.5q-23 23.5 -84 23.5q-152 0 -192 -162z" />
<glyph unicode="&#102;" horiz-adv-x="394" d="M150 530h86l17 77q9 42 25 70.5q16 28.5 40 46q24 17.5 55.5 24.5q31.5 7 71.5 7q28 0 49.5 -3q21.5 -3 35.5 -8l-17 -81q-14 8 -34 12.5q-20 4.5 -45 4.5q-22 0 -37.5 -3.5q-15.5 -3.5 -27 -12.5q-11.5 -9 -19 -25.5q-7.5 -16.5 -13.5 -42.5l-14 -66h157l-15 -75h-158l-97 -455h-87l97 455l-85 0z" />
<glyph unicode="&#103;" horiz-adv-x="638" d="M260 -190q-65 0 -110 12.5q-45 12.5 -71 26.5l20 93q18 -19 62.5 -38q44.5 -19 110.5 -19q93 0 138.5 35.5q45.5 35.5 60.5 107.5l19 92q-31 -51 -74.5 -80.5q-43.5 -29.5 -114.5 -29.5q-95 0 -143.5 46.5q-48.5 46.5 -48.5 140.5q0 64 15 126q15 62 48.5 110q33.5 48 87.5 77.5q54 29.5 132 29.5q72 0 114 -34q42 -34 50 -89l38 113h66l-105 -497q-13 -61 -38 -103.5q-25 -42.5 -61.5 -69q-36.5 -26.5 -85.5 -38.5q-49 -12 -110 -12zt0 0zM332 85q41 0 73 13.5q32 13.5 54.5 36q22.5 22.5 37 51.5q14.5 29 20.5 61l9 44q16 78 -16 126q-32 48 -111 48q-56 0 -94 -21q-38 -21 -61.5 -56.5q-23.5 -35.5 -33.5 -80.5q-10 -45 -10 -93q0 -67 33 -98t99 -31z" />
<glyph unicode="&#104;" horiz-adv-x="625" d="M250 750h85l-67 -316q34 51 82.5 78.5q48.5 27.5 120.5 27.5q81 0 118 -29.5q37 -29.5 37 -92.5q0 -31 -9 -71l-73 -347h-87l70 330q3 15 4.5 29.5q1.5 14.5 1.5 25.5q0 45 -26.5 62.5q-26.5 17.5 -83.5 17.5q-77 0 -122 -42.5q-45 -42.5 -58 -106.5l-67 -316l-86 0z" />
<glyph unicode="&#105;" horiz-adv-x="291" d="M102 0l113 530h86l-113 -530zM292 638q-56 0 -56 52q0 52 56 52q55 0 55 -52q0 -52 -55 -52z" />
<glyph unicode="&#106;" horiz-adv-x="291" d="M-50 -93q22 -14 63 -14q36 0 55.5 18q19.5 18 28.5 62l118 557h86l-118 -556q-18 -85 -60 -122q-42 -37 -119 -37q-51 0 -71 10zM292 638q-56 0 -56 52q0 52 56 52q55 0 55 -52q0 -52 -55 -52z" />
<glyph unicode="&#107;" horiz-adv-x="566" d="M249 750h86l-92 -437h41l237 217h109l-279 -259l188 -271h-104l-168 238h-40l-51 -238l-86 0z" />
<glyph unicode="&#108;" horiz-adv-x="327" d="M220 -5q-54 0 -82 18.5q-28 18.5 -28 63.5q0 9 1.5 19.5q1.5 10.5 3.5 22.5l135 631h86l-130 -611q-4 -16 -4 -30q0 -23 12 -31q12 -8 41 -8q28 0 64 14l-16 -73q-12 -5 -34 -10.5t-49 -5.5z" />
<glyph unicode="&#109;" horiz-adv-x="896" d="M202 530h73l-9 -95q27 50 73.5 77.5q46.5 27.5 108.5 27.5q128 0 125 -111q29 58 79.5 84.5q50.5 26.5 114.5 26.5q71 0 102 -28q31 -28 31 -81q0 -28 -7 -59l-78 -372h-86l72 345q6 27 6 47q0 38 -21.5 55.5q-21.5 17.5 -72.5 17.5q-60 0 -97.5 -36q-37.5 -36 -50.5 -98l-70 -331h-86l72 342q3 14 4 26q1 12 1 22q0 42 -22 58.5q-22 16.5 -67 16.5q-65 0 -102.5 -38q-37.5 -38 -49.5 -96l-69 -331l-86 0z" />
<glyph unicode="&#110;" horiz-adv-x="625" d="M203 530h73l-8 -94q35 54 85 79q50 25 116 25q77 0 117 -27q40 -27 40 -95q0 -32 -9 -74l-73 -344h-87l69 322q7 35 7 64q0 45 -26 62q-26 17 -84 17q-74 0 -120 -40q-46 -40 -61 -111l-66 -314l-86 0z" />
<glyph unicode="&#111;" horiz-adv-x="616" d="M105 194q0 78 21 142q21 64 60.5 109.5q39.5 45.5 96.5 70q57 24.5 130 24.5q45 0 82.5 -12.5q37.5 -12.5 65.5 -37.5q28 -25 43.5 -63q15.5 -38 15.5 -88q0 -80 -19 -144q-19 -64 -56 -110q-37 -46 -90.5 -70.5q-53.5 -24.5 -123.5 -24.5q-57 0 -99.5 15q-42.5 15 -70.5 42q-28 27 -42 64.5q-14 37.5 -14 82.5zt0 0zM194 210q0 -66 32.5 -105.5q32.5 -39.5 110.5 -39.5q50 0 86.5 21q36.5 21 60.5 57q24 36 35.5 83q11.5 47 11.5 98q0 69 -30.5 105q-30.5 36 -96.5 36q-48 0 -87 -18.5q-39 -18.5 -66 -52q-27 -33.5 -42 -80.5t-15 -104z" />
<glyph unicode="&#112;" horiz-adv-x="642" d="M203 530h71l-10 -95q31 51 76.5 78q45.5 27 116.5 27q95 0 143.5 -49q48.5 -49 48.5 -138q0 -67 -15.5 -132q-15.5 -65 -50 -116.5q-34.5 -51.5 -89.5 -83q-55 -31.5 -133 -31.5q-70 0 -112 33.5q-42 33.5 -51 84.5l-61 -288h-86zM354 65q55 0 94.5 24q39.5 24 64 63q24.5 39 36 87.5q11.5 48.5 11.5 97.5q0 66 -35 97q-35 31 -99 31q-40 0 -71.5 -13q-31.5 -13 -54.5 -35.5q-23 -22.5 -38.5 -52.5q-15.5 -30 -22.5 -65l-12 -56q-8 -39 -3.5 -71.5q4.5 -32.5 21 -56.5q16.5 -24 44 -37t65.5 -13z" />
<glyph unicode="&#113;" horiz-adv-x="641" d="M488 97q-31 -51 -75 -79q-44 -28 -115 -28q-95 0 -143.5 50q-48.5 50 -48.5 139q0 67 15.5 132q15.5 65 50 116q34.5 51 89.5 82q55 31 133 31q72 0 113.5 -32q41.5 -32 52.5 -86l40 108h66l-151 -710h-87zM195 195q0 -66 35 -98q35 -32 99 -32q40 0 72 13q32 13 55.5 36q23.5 23 39 53.5q15.5 30.5 22.5 65.5l12 57q17 78 -16.5 126.5q-33.5 48.5 -112.5 48.5q-56 0 -95.5 -24q-39.5 -24 -64 -62.5q-24.5 -38.5 -35.5 -86.5t-11 -97z" />
<glyph unicode="&#114;" horiz-adv-x="416" d="M203 530h73l-6 -90q29 52 73 76q44 24 97 24q33 0 54 -8l-20 -88q-13 11 -29.5 16q-16.5 5 -41.5 5q-127 0 -161 -156l-66 -309l-86 0z" />
<glyph unicode="&#115;" horiz-adv-x="494" d="M86 121q23 -26 66 -42.5q43 -16.5 90 -16.5q71 0 104.5 26q33.5 26 33.5 75q0 25 -17.5 39.5q-17.5 14.5 -44.5 24q-27 9.5 -57.5 17.5q-30.5 8 -57.5 21.5q-27 13.5 -44.5 35.5q-17.5 22 -17.5 60q0 38 12.5 71q12.5 33 40 57q27.5 24 72 37.5q44.5 13.5 107.5 13.5q47 0 84 -8q37 -8 57 -18l-19 -93q-26 23 -59 35q-33 12 -76 12q-70 0 -100 -22.5q-30 -22.5 -30 -62.5q0 -25 17.5 -39q17.5 -14 44.5 -23q27 -9 57.5 -17q30.5 -8 57.5 -21.5q27 -13.5 44.5 -36q17.5 -22.5 17.5 -61.5q0 -97 -64 -146q-64 -49 -178 -49q-49 0 -90.5 9q-41.5 9 -70.5 26z" />
<glyph unicode="&#116;" horiz-adv-x="436" d="M223 455h-102l15 75h102l22 100l92 30l-28 -130h175l-16 -75h-174l-63 -299q-2 -11 -3.5 -20.5q-1.5 -9.5 -1.5 -17.5q0 -31 16 -39.5q16 -8.5 48 -8.5q35 0 62 8.5q27 8.5 47 19.5l-16 -78q-17 -10 -49.5 -17.5q-32.5 -7.5 -70.5 -7.5q-64 0 -95.5 21q-31.5 21 -31.5 75q0 13 2 27q2 14 6 31z" />
<glyph unicode="&#117;" horiz-adv-x="618" d="M198 530h87l-72 -337q-6 -29 -6 -49q0 -43 24.5 -61q24.5 -18 77.5 -18q77 0 120.5 39.5q43.5 39.5 59.5 112.5l67 313h86l-113 -530h-74l7 95q-35 -56 -85 -80.5q-50 -24.5 -116 -24.5q-146 0 -146 121q0 31 7 63z" />
<glyph unicode="&#118;" horiz-adv-x="536" d="M224 0l-90 530h92l62 -428l243 428h95l-314 -530z" />
<glyph unicode="&#119;" horiz-adv-x="819" d="M152 530h85l11 -430l227 430h88l46 -429l192 429h90l-247 -530h-101l-42 429l-229 -429l-101 0z" />
<glyph unicode="&#120;" horiz-adv-x="539" d="M271 275l-117 255h94l88 -196l172 196h101l-226 -252l128 -278h-95l-99 217l-188 -217l-102 0z" />
<glyph unicode="&#121;" horiz-adv-x="541" d="M84 -96q9 -7 22 -13q13 -6 32 -6q31 0 56 31q25 31 55 85l-115 529h94l79 -426l227 426h96l-303 -537q-32 -57 -58.5 -93q-26.5 -36 -50 -56q-23.5 -20 -46.5 -27q-23 -7 -49 -7q-18 0 -32.5 3.5q-14.5 3.5 -24.5 8.5z" />
<glyph unicode="&#122;" horiz-adv-x="514" d="M57 57l387 398h-297l17 75h411l-11 -57l-387 -398h308l-16 -75l-424 0z" />
<glyph unicode="&#123;" horiz-adv-x="391" d="M246 -180q-39 0 -64.5 10q-25.5 10 -40 26q-14.5 16 -20.5 35.5q-6 19.5 -6 38.5q0 14 2 27.5q2 13.5 6 31.5l30 148q2 6 5.5 24.5q3.5 18.5 3.5 30.5q0 32 -19.5 45q-19.5 13 -54.5 15l14 66q42 2 72.5 33.5q30.5 31.5 41.5 82.5l33 151q8 38 21 68.5q13 30.5 35 52q22 21.5 55 33q33 11.5 81 11.5h66l-14 -70h-60q-47 0 -70 -23.5q-23 -23.5 -34 -73.5l-32 -153q-11 -53 -40.5 -92.5q-29.5 -39.5 -86.5 -53.5q40 -9 55 -31.5q15 -22.5 15 -58.5q0 -11 -1.5 -27.5q-1.5 -16.5 -3.5 -27.5l-31 -149q-2 -11 -4 -23q-2 -12 -2 -20q0 -26 14 -41.5q14 -15.5 51 -15.5h61l-14 -70z" />
<glyph unicode="&#124;" horiz-adv-x="300" d="M72 -180l197 930h81l-197 -930z" />
<glyph unicode="&#125;" horiz-adv-x="391" d="M18 -110h60q47 0 70 23.5q23 23.5 34 73.5l32 153q11 53 40.5 92.5q29.5 39.5 86.5 53.5q-40 9 -55 31.5q-15 22.5 -15 58.5q0 11 1.5 27.5q1.5 16.5 3.5 27.5l31 149q2 11 4 23q2 12 2 20q0 26 -14 41.5q-14 15.5 -51 15.5h-61l14 70h64q39 0 64.5 -10q25.5 -10 40 -26q14.5 -16 20.5 -35.5q6 -19.5 6 -38.5q0 -14 -2 -27.5q-2 -13.5 -6 -31.5l-30 -148q-2 -6 -5.5 -24.5q-3.5 -18.5 -3.5 -30.5q0 -32 19.5 -45q19.5 -13 54.5 -15l-14 -66q-42 -2 -72.5 -33.5q-30.5 -31.5 -41.5 -82.5l-33 -151q-8 -38 -21 -68.5q-13 -30.5 -35 -52q-22 -21.5 -55 -33q-33 -11.5 -81 -11.5l-66 0z" />
<glyph unicode="&#126;" horiz-adv-x="601" d="M479 253q-32 0 -60.5 12q-28.5 12 -54.5 26q-26 14 -50.5 26q-24.5 12 -48.5 12q-36 0 -64.5 -16q-28.5 -16 -46.5 -36l0 83q20 23 50.5 33.5q30.5 10.5 62.5 10.5q30 0 58.5 -12q28.5 -12 55.5 -26q27 -14 53 -26q26 -12 53 -12q29 0 55.5 15q26.5 15 42.5 38l0 -87q-18 -20 -46.5 -30.5t-59.5 -10.5z" />
<glyph unicode="&#160;" horiz-adv-x="290" />
<glyph unicode="&#161;" horiz-adv-x="385" d="M200 -180h-94l107 480h85zM293 410q-63 0 -63 62q0 63 63 63q63 0 63 -63q0 -62 -63 -62z" />
<glyph unicode="&#162;" horiz-adv-x="601" d="M541 36q-25 -17 -69.5 -31q-44.5 -14 -107.5 -16l-23 -109h-74l24 114q-81 14 -123.5 68q-42.5 54 -42.5 140q0 72 17.5 131.5q17.5 59.5 53 103.5q35.5 44 88 70q52.5 26 123.5 32l19 91h74l-19 -90q48 -3 80.5 -13q32.5 -10 49.5 -21l-20 -88q-20 17 -58.5 32.5q-38.5 15.5 -95.5 15.5q-111 0 -167 -66.5q-56 -66.5 -56 -183.5q0 -32 9.5 -59.5q9.5 -27.5 30 -48q20.5 -20.5 52.5 -32.5q32 -12 77 -12q53 0 99 17q46 17 78 40z" />
<glyph unicode="&#163;" horiz-adv-x="601" d="M159 401h94l16 75q51 234 278 234q36 0 70 -5q34 -5 57 -13l-18 -81q-30 9 -56.5 14q-26.5 5 -57.5 5q-79 0 -122 -37q-43 -37 -61 -121l-16 -71h180l-13 -61h-180l-56 -260h270l-17 -80h-453l16 80h94l56 260l-94 0z" />
<glyph unicode="&#164;" horiz-adv-x="601" d="M143 165l65 68q-18 23 -29 54.5q-11 31.5 -11 70.5q0 39 11 70.5q11 31.5 29 54.5l-65 69l43 44l65 -68q23 19 55 30q32 11 70 11q39 0 71 -11.5q32 -11.5 54 -28.5l66 68l43 -44l-65 -70q17 -22 28.5 -54q11.5 -32 11.5 -71q0 -38 -11.5 -70q-11.5 -32 -28.5 -55l65 -68l-44 -44l-64 67q-23 -18 -55.5 -29.5q-32.5 -11.5 -70.5 -11.5q-39 0 -71 11.5q-32 11.5 -54 29.5l-65 -66zM230 358q0 -33 11.5 -60.5q11.5 -27.5 31.5 -47q20 -19.5 46.5 -30.5q26.5 -11 56.5 -11q30 0 56.5 11q26.5 11 47 30.5q20.5 19.5 32 47q11.5 27.5 11.5 60.5q0 33 -11.5 60.5q-11.5 27.5 -32 47.5q-20.5 20 -47 31q-26.5 11 -56.5 11q-30 0 -56.5 -11q-26.5 -11 -46.5 -31q-20 -20 -31.5 -47.5t-11.5 -60.5z" />
<glyph unicode="&#165;" horiz-adv-x="601" d="M162 353h128l-120 347h96l112 -332l244 332h106l-268 -347h129l-15 -72h-169l-16 -75h169l-15 -72h-170l-28 -134h-90l28 134h-167l15 72h168l16 74l-1 1l-167 0z" />
<glyph unicode="&#166;" horiz-adv-x="300" d="M155 210h81l-83 -390h-81zM269 750h81l-83 -390l-81 0z" />
<glyph unicode="&#167;" horiz-adv-x="511" d="M549 611q-38 17 -69 23q-31 6 -62 6q-21 0 -44.5 -4.5q-23.5 -4.5 -43 -14.5q-19.5 -10 -32 -27.5q-12.5 -17.5 -12.5 -42.5q0 -23 20.5 -40q20.5 -17 66.5 -42l53 -28q18 -9 35 -20q17 -11 30 -24.5q13 -13.5 21 -31q8 -17.5 8 -39.5q0 -28 -11 -53.5q-11 -25.5 -28.5 -48q-17.5 -22.5 -39 -41q-21.5 -18.5 -43.5 -32.5q22 -18 33.5 -37.5q11.5 -19.5 11.5 -45.5q0 -41 -19.5 -74q-19.5 -33 -52 -56q-32.5 -23 -75 -35.5q-42.5 -12.5 -87.5 -12.5q-40 0 -79 7.5q-39 7.5 -71 21.5l16 77q37 -20 69.5 -28q32.5 -8 71.5 -8q28 0 53 6q25 6 44 17.5q19 11.5 30 28.5q11 17 11 40q0 21 -21.5 40.5q-21.5 19.5 -73.5 47.5l-54 30q-37 20 -60 46q-23 26 -23 66q0 30 10 55q10 25 27.5 46q17.5 21 39.5 37.5q22 16.5 46 30.5q-48 33 -48 85q0 46 21.5 79q21.5 33 55.5 54q34 21 75.5 31q41.5 10 81.5 10q42 0 77.5 -8q35.5 -8 56.5 -16zM296 423q-16 -10 -32 -22q-16 -12 -29 -26.5q-13 -14.5 -21 -32q-8 -17.5 -8 -37.5q0 -27 20 -46.5q20 -19.5 57 -40.5l67 -38q15 11 30 24.5q15 13.5 27.5 29q12.5 15.5 20.5 33q8 17.5 8 37.5q0 24 -18 43.5q-18 19.5 -53 37.5z" />
<glyph unicode="&#168;" horiz-adv-x="303" d="M210 639q-53 0 -53 51q0 51 53 51q54 0 54 -51q0 -51 -54 -51zt0 0zM383 639q-53 0 -53 51q0 51 53 51q54 0 54 -51q0 -51 -54 -51z" />
<glyph unicode="&#169;" horiz-adv-x="909" d="M523 -55q-83 0 -152.5 28q-69.5 28 -119.5 78q-50 50 -78 118.5q-28 68.5 -28 149.5q0 81 28 150q28 69 78 119q50 50 119.5 78.5q69.5 28.5 152.5 28.5q83 0 152 -28.5q69 -28.5 119 -78.5q50 -50 78 -119q28 -69 28 -150q0 -81 -28 -149.5q-28 -68.5 -78 -118.5q-50 -50 -119 -78q-69 -28 -152 -28zt0 0zM522 2q70 0 128 24q58 24 100 66.5q42 42.5 65.5 100.5q23.5 58 23.5 126q0 69 -23.5 127q-23.5 58 -65.5 100.5q-42 42.5 -100 66.5q-58 24 -128 24q-69 0 -127 -24q-58 -24 -100 -66.5q-42 -42.5 -65.5 -100.5q-23.5 -58 -23.5 -127q0 -68 23.5 -126q23.5 -58 65.5 -100.5q42 -42.5 100 -66.5q58 -24 127 -24zt0 0zM536 126q-99 0 -144 52.5q-45 52.5 -45 143.5q0 100 48.5 149.5q48.5 49.5 141.5 49.5q26 0 47.5 -3.5q21.5 -3.5 36.5 -8.5l0 -54q-17 7 -38 9q-21 2 -39 2q-66 0 -100 -34.5q-34 -34.5 -34 -107.5q0 -77 35.5 -109.5q35.5 -32.5 98.5 -32.5q19 0 39.5 3q20.5 3 39.5 12l0 -57q-34 -14 -87 -14z" />
<glyph unicode="&#170;" horiz-adv-x="356" d="M223 374q-86 0 -86 77q0 33 12.5 56.5q12.5 23.5 34 38q21.5 14.5 51 21q29.5 6.5 62.5 6.5h75l3 16q1 7 1.5 11.5q0.5 4.5 0.5 8.5q0 21 -15.5 30.5q-15.5 9.5 -53.5 9.5q-26 0 -56 -7.5q-30 -7.5 -51 -17.5l12 63q23 8 53 13.5q30 5.5 64 5.5q61 0 88 -20q27 -20 27 -62q0 -8 -1.5 -18q-1.5 -10 -3.5 -22l-44 -204h-58l4 53q-16 -21 -44.5 -40q-28.5 -19 -74.5 -19zt0 0zM254 429q41 0 68.5 22q27.5 22 34.5 54l4 22h-66q-17 0 -32.5 -2.5q-15.5 -2.5 -27.5 -8.5q-12 -6 -19.5 -17.5q-7.5 -11.5 -7.5 -29.5q0 -22 11.5 -31t34.5 -9z" />
<glyph unicode="&#171;" horiz-adv-x="571" d="M126 275l179 208h89l-185 -212l96 -204h-82zM336 275l179 208h89l-185 -212l96 -204l-82 0z" />
<glyph unicode="&#172;" horiz-adv-x="601" d="M585 366v-226h-75v151h-356l0 75z" />
<glyph unicode="&#173;" horiz-adv-x="475" d="M166 308h276l-16 -75l-276 0z" />
<glyph unicode="&#174;" horiz-adv-x="600" d="M410 270q-56 0 -102 18q-46 18 -79 50.5q-33 32.5 -51 78q-18 45.5 -18 100.5q0 55 18 100.5q18 45.5 51 78.5q33 33 79 51q46 18 102 18q56 0 102.5 -18q46.5 -18 79.5 -51q33 -33 51 -78.5q18 -45.5 18 -100.5q0 -55 -18 -100.5q-18 -45.5 -51 -78q-33 -32.5 -79.5 -50.5q-46.5 -18 -102.5 -18zt0 0zM410 313q45 0 83 15q38 15 65 42q27 27 42 65q15 38 15 83q0 45 -15 82.5q-15 37.5 -42 64.5q-27 27 -65 42q-38 15 -83 15q-45 0 -82.5 -15q-37.5 -15 -65 -42q-27.5 -27 -42.5 -64.5q-15 -37.5 -15 -82.5q0 -45 15 -83q15 -38 42.5 -65q27.5 -27 65 -42q37.5 -15 82.5 -15zt0 0zM313 658h106q14 0 30.5 -2.5q16.5 -2.5 30.5 -11q14 -8.5 23 -25q9 -16.5 9 -44.5q0 -30 -14.5 -50q-14.5 -20 -34.5 -26l68 -110h-58l-61 102h-47v-102h-52zM413 533q18 0 32 8.5q14 8.5 14 32.5q0 26 -13.5 33q-13.5 7 -32.5 7h-48l0 -81z" />
<glyph unicode="&#175;" horiz-adv-x="343" d="M176 720h281v-60l-281 0z" />
<glyph unicode="&#176;" horiz-adv-x="400" d="M320 419q-33 0 -60.5 11q-27.5 11 -47 30.5q-19.5 19.5 -30.5 46q-11 26.5 -11 58.5q0 31 11 58q11 27 30.5 46q19.5 19 47 30q27.5 11 60.5 11q33 0 61 -11q28 -11 47.5 -30q19.5 -19 30.5 -46q11 -27 11 -58q0 -32 -11 -58.5q-11 -26.5 -30.5 -46q-19.5 -19.5 -47.5 -30.5q-28 -11 -61 -11zt0 0zM320 476q41 0 66 25q25 25 25 64q0 39 -25 64q-25 25 -66 25q-40 0 -65 -25q-25 -25 -25 -64q0 -39 25 -64t65 -25z" />
<glyph unicode="&#177;" horiz-adv-x="601" d="M339 406h-178v75h178v178h75v-178h178v-75h-178v-166h-75zM592 134v-75h-431l0 75z" />
<glyph unicode="&#178;" horiz-adv-x="450" d="M151 446l140 86q45 28 75.5 49.5q30.5 21.5 49 39.5q18.5 18 26.5 34.5q8 16.5 8 34.5q0 52 -90 52q-32 0 -68.5 -6.5q-36.5 -6.5 -65.5 -19.5l14 65q37 13 72.5 18.5q35.5 5.5 70.5 5.5q148 0 148 -96q0 -26 -11 -50.5q-11 -24.5 -36 -50q-25 -25.5 -64.5 -53.5q-39.5 -28 -97.5 -62l-82 -49v-1h242l-14 -63l-331 0z" />
<glyph unicode="&#179;" horiz-adv-x="450" d="M278 375q-32 0 -69 3.5q-37 3.5 -69 16.5l14 64q27 -14 61.5 -18q34.5 -4 69.5 -4q21 0 44 3q23 3 42.5 11.5q19.5 8.5 32.5 24q13 15.5 13 39.5q0 32 -22.5 43.5q-22.5 11.5 -68.5 11.5h-79l11 53h73q18 0 38.5 3q20.5 3 37.5 10.5q17 7.5 28 21.5q11 14 11 35q0 29 -22.5 39.5q-22.5 10.5 -71.5 10.5q-34 0 -70 -4.5q-36 -4.5 -64 -15.5l13 62q34 12 76 16q42 4 80 4q73 0 105.5 -23.5q32.5 -23.5 32.5 -65.5q0 -26 -11 -45q-11 -19 -28.5 -33q-17.5 -14 -40.5 -23q-23 -9 -47 -15l-1 -1q55 -8 75 -31q20 -23 20 -54q0 -38 -21 -64.5q-21 -26.5 -52.5 -43q-31.5 -16.5 -69.5 -24t-71 -7.5z" />
<glyph unicode="&#180;" horiz-adv-x="214" d="M254 760h112l-153 -140l-71 0z" />
<glyph unicode="&#181;" horiz-adv-x="623" d="M52 -180l151 710h86l-72 -337l-1 -5q-3 -13 -4 -24q-1 -11 -1 -20q0 -43 24.5 -61q24.5 -18 78.5 -18q77 0 120.5 39.5q43.5 39.5 59.5 112.5l66 313h87l-113 -530h-74l7 95q-36 -56 -86 -80.5q-50 -24.5 -115 -24.5q-27 0 -49 5.5q-22 5.5 -39 15.5l-40 -191z" />
<glyph unicode="&#182;" horiz-adv-x="592" d="M303 370q-70 0 -103 33q-33 33 -33 87q0 51 18.5 90q18.5 39 51 66q32.5 27 75 40.5q42.5 13.5 90.5 13.5h233l-186 -880h-81l171 805h-100l-171 -805l-81 0z" />
<glyph unicode="&#183;" horiz-adv-x="323" d="M236 288q-64 0 -64 63q0 62 64 62q63 0 63 -62q0 -63 -63 -63z" />
<glyph unicode="&#184;" horiz-adv-x="207" d="M54 0h50l-18 -48q38 -1 62 -14q24 -13 24 -46q0 -25 -11 -46q-11 -21 -29 -36q-18 -15 -42 -23.5q-24 -8.5 -49 -8.5q-25 0 -43 4q-18 4 -32 12l17 45q14 -6 26 -9.5q12 -3.5 30 -3.5q11 0 23 3.5q12 3.5 21.5 10.5q9.5 7 15.5 17.5q6 10.5 6 24.5q0 18 -16.5 24q-16.5 6 -34.5 6q-7 0 -16.5 0q-9.5 0 -16.5 -1z" />
<glyph unicode="&#185;" horiz-adv-x="450" d="M379 720l-135 -64l-17 55l185 89h59l-89 -420l-75 0z" />
<glyph unicode="&#186;" horiz-adv-x="403" d="M147 493q0 43 10.5 81.5q10.5 38.5 34 68q23.5 29.5 61.5 46.5q38 17 94 17q66 0 102.5 -31q36.5 -31 36.5 -88q0 -101 -51 -157q-51 -56 -151 -56q-62 0 -99.5 31.5q-37.5 31.5 -37.5 87.5zt0 0zM337 650q-33 0 -55.5 -11.5q-22.5 -11.5 -36.5 -31q-14 -19.5 -20.5 -46q-6.5 -26.5 -6.5 -57.5q0 -43 23.5 -58.5q23.5 -15.5 57.5 -15.5q55 0 86 39q31 39 31 107q0 42 -22.5 58t-56.5 16z" />
<glyph unicode="&#187;" horiz-adv-x="571" d="M267 283l-95 200h82l97 -206l-180 -210h-88zM477 283l-95 200h82l97 -206l-180 -210l-88 0z" />
<glyph unicode="&#188;" horiz-adv-x="950" d="M177 0l629 700h84l-630 -700zM300 620l-135 -64l-17 55l185 89h59l-89 -420h-75zM536 152l308 268h87l-57 -265h55l-12 -60h-55l-20 -95h-70l20 95h-267zM847 355h-1l-230 -200l189 0z" />
<glyph unicode="&#189;" horiz-adv-x="950" d="M147 0l629 700h84l-630 -700zM300 620l-135 -64l-17 55l185 89h59l-89 -420h-75zM597 66l140 86q45 28 75.5 49.5q30.5 21.5 49 39.5q18.5 18 26.5 34.5q8 16.5 8 34.5q0 52 -90 52q-32 0 -68.5 -6.5q-36.5 -6.5 -65.5 -19.5l14 65q37 13 72.5 18.5q35.5 5.5 70.5 5.5q148 0 148 -96q0 -26 -11 -50.5q-11 -24.5 -36 -50q-25 -25.5 -64.5 -53.5q-39.5 -28 -97.5 -62l-82 -49v-1h242l-14 -63l-331 0z" />
<glyph unicode="&#190;" horiz-adv-x="950" d="M217 0l629 700h84l-630 -700zM243 275q-32 0 -69 3.5q-37 3.5 -69 16.5l14 64q27 -14 61.5 -18q34.5 -4 69.5 -4q21 0 44 3q23 3 42.5 11.5q19.5 8.5 32.5 24q13 15.5 13 39.5q0 32 -22.5 43.5q-22.5 11.5 -68.5 11.5h-79l11 53h73q18 0 38.5 3q20.5 3 37.5 10.5q17 7.5 28 21.5q11 14 11 35q0 29 -22.5 39.5q-22.5 10.5 -71.5 10.5q-34 0 -70 -4.5q-36 -4.5 -64 -15.5l13 62q34 12 76 16q42 4 80 4q73 0 105.5 -23.5q32.5 -23.5 32.5 -65.5q0 -26 -11 -45q-11 -19 -28.5 -33q-17.5 -14 -40.5 -23q-23 -9 -47 -15l-1 -1q55 -8 75 -31q20 -23 20 -54q0 -38 -21 -64.5q-21 -26.5 -52.5 -43q-31.5 -16.5 -69.5 -24q-38 -7.5 -71 -7.5zt0 0zM536 152l308 268h87l-57 -265h55l-12 -60h-55l-20 -95h-70l20 95h-267zM847 355h-1l-230 -200l189 0z" />
<glyph unicode="&#191;" horiz-adv-x="549" d="M229 -190q-94 0 -142 39q-48 39 -48 111q0 58 19 95.5q19 37.5 48 63q29 25.5 63.5 43q34.5 17.5 66 36q31.5 18.5 55.5 42q24 23.5 31 60.5l85 0q-9 -49 -33 -79.5q-24 -30.5 -54 -51.5q-30 -21 -62.5 -37q-32.5 -16 -59.5 -35q-27 -19 -44.5 -46q-17.5 -27 -17.5 -70q0 -44 28.5 -67.5q28.5 -23.5 88.5 -23.5q57 0 97.5 13.5q40.5 13.5 75.5 32.5l-19 -92q-39 -16 -84.5 -25q-45.5 -9 -93.5 -9zt0 0zM399 410q-63 0 -63 62q0 63 63 63q63 0 63 -63q0 -62 -63 -62z" />
<glyph unicode="&#192;" horiz-adv-x="671" d="M435 700h99l112 -700h-91l-28 187h-300l-107 -187h-95zM272 265h243l-50 335zM375 917h110l51 -140l-71 0z" />
<glyph unicode="&#193;" horiz-adv-x="671" d="M435 700h99l112 -700h-91l-28 187h-300l-107 -187h-95zM272 265h243l-50 335zM584 915h114l-163 -150l-73 0z" />
<glyph unicode="&#194;" horiz-adv-x="671" d="M435 700h99l112 -700h-91l-28 187h-300l-107 -187h-95zM272 265h243l-50 335zM482 915h96l91 -150h-71l-75 101l-118 -101l-77 0z" />
<glyph unicode="&#195;" horiz-adv-x="671" d="M435 700h99l112 -700h-91l-28 187h-300l-107 -187h-95zM272 265h243l-50 335zM355 799q4 45 29 69.5q25 24.5 61 24.5q20 0 36.5 -7q16.5 -7 38.5 -17q20 -9 33 -15.5q13 -6.5 27 -6.5q14 0 25 10.5q11 10.5 16 33.5l50 -11q-5 -45 -30.5 -69q-25.5 -24 -57.5 -24q-18 0 -32.5 4.5q-14.5 4.5 -43.5 18.5q-19 9 -31.5 16q-12.5 7 -25.5 7q-14 0 -26 -10q-12 -10 -17 -35z" />
<glyph unicode="&#196;" horiz-adv-x="671" d="M435 700h99l112 -700h-91l-28 187h-300l-107 -187h-95zM272 265h243l-50 335zM412 787q-55 0 -55 53q0 53 55 53q55 0 55 -53q0 -53 -55 -53zt0 0zM613 787q-55 0 -55 53q0 53 55 53q55 0 55 -53q0 -53 -55 -53z" />
<glyph unicode="&#197;" horiz-adv-x="671" d="M435 700h99l112 -700h-91l-28 187h-300l-107 -187h-95zM272 265h243l-50 335zM513 741q-44 0 -71.5 27.5q-27.5 27.5 -27.5 71.5q0 44 27.5 71.5q27.5 27.5 71.5 27.5q44 0 71.5 -27.5q27.5 -27.5 27.5 -71.5q0 -44 -27.5 -71.5q-27.5 -27.5 -71.5 -27.5zt0 0zM513 790q50 0 50 50q0 50 -50 50q-23 0 -36.5 -13q-13.5 -13 -13.5 -37q0 -24 13.5 -37t36.5 -13z" />
<glyph unicode="&#198;" horiz-adv-x="984" d="M527 187h-258l-149 -187h-95l562 700h479l-17 -80h-340l-47 -223h310l-17 -77h-311l-50 -240h340l-17 -80h-430zM543 265l77 360l-288 -360z" />
<glyph unicode="&#199;" horiz-adv-x="644" d="M351 -239q-29 0 -48 4q-19 4 -33 12l17 47q14 -7 28.5 -10q14.5 -3 34.5 -3q26 0 49 14q23 14 23 44q0 20 -18 27.5q-18 7.5 -39 7.5q-7 0 -17 0q-10 0 -17 -2l31 89q-112 7 -176 67q-64 60 -64 186q0 42 9 93q9 51 27 101.5q18 50.5 45 97.5q27 47 63 82q51 48 115.5 70q64.5 22 145.5 22q64 0 108.5 -12.5q44.5 -12.5 73.5 -27.5l-20 -91q-34 25 -74.5 38q-40.5 13 -95.5 13q-63 0 -109 -16.5q-46 -16.5 -87 -58.5q-24 -25 -43 -60q-19 -35 -33 -75q-14 -40 -21.5 -83.5q-7.5 -43.5 -7.5 -84.5q0 -96 50.5 -139.5q50.5 -43.5 145.5 -43.5q59 0 108 16q49 16 79 32l-19 -90q-32 -13 -74 -24q-42 -11 -93 -13l-16 -44q42 0 68.5 -15q26.5 -15 26.5 -50q0 -29 -12.5 -51q-12.5 -22 -33 -37.5q-20.5 -15.5 -46 -23.5t-51.5 -8z" />
<glyph unicode="&#200;" horiz-adv-x="602" d="M254 700h430l-17 -80h-340l-47 -223h310l-17 -77h-310l-51 -240h340l-17 -80h-430zM360 917h110l51 -140l-71 0z" />
<glyph unicode="&#201;" horiz-adv-x="602" d="M254 700h430l-17 -80h-340l-47 -223h310l-17 -77h-310l-51 -240h340l-17 -80h-430zM569 915h114l-163 -150l-73 0z" />
<glyph unicode="&#202;" horiz-adv-x="602" d="M254 700h430l-17 -80h-340l-47 -223h310l-17 -77h-310l-51 -240h340l-17 -80h-430zM467 915h96l91 -150h-71l-75 101l-118 -101l-77 0z" />
<glyph unicode="&#203;" horiz-adv-x="602" d="M254 700h430l-17 -80h-340l-47 -223h310l-17 -77h-310l-51 -240h340l-17 -80h-430zM397 787q-55 0 -55 53q0 53 55 53q55 0 55 -53q0 -53 -55 -53zt0 0zM598 787q-55 0 -55 53q0 53 55 53q55 0 55 -53q0 -53 -55 -53z" />
<glyph unicode="&#204;" horiz-adv-x="310" d="M259 700h90l-149 -700h-90zM196 917h110l51 -140l-71 0z" />
<glyph unicode="&#205;" horiz-adv-x="310" d="M259 700h90l-149 -700h-90zM404 915h114l-163 -150l-73 0z" />
<glyph unicode="&#206;" horiz-adv-x="310" d="M259 700h90l-149 -700h-90zM302 915h96l91 -150h-71l-75 101l-118 -101l-77 0z" />
<glyph unicode="&#207;" horiz-adv-x="310" d="M259 700h90l-149 -700h-90zM233 787q-55 0 -55 53q0 53 55 53q55 0 55 -53q0 -53 -55 -53zt0 0zM434 787q-55 0 -55 53q0 53 55 53q55 0 55 -53q0 -53 -55 -53z" />
<glyph unicode="&#208;" horiz-adv-x="743" d="M104 395h94l65 304q48 3 95.5 4.5q47.5 1.5 110.5 1.5q67 0 121.5 -14.5q54.5 -14.5 93 -45.5q38.5 -31 59.5 -79q21 -48 21 -115q0 -60 -10 -115q-10 -55 -28 -102q-18 -47 -43 -85.5q-25 -38.5 -56 -63.5q-31 -26 -65.5 -43q-34.5 -17 -74 -27.5q-39.5 -10.5 -86 -15q-46.5 -4.5 -100.5 -4.5q-59 0 -102.5 2q-43.5 2 -83.5 5l68 323h-94zM221 79q26 -3 46 -3.5q20 -0.5 44 -0.5q80 0 140 12.5q60 12.5 105 50.5q49 41 80.5 117q31.5 76 31.5 185q0 52 -15.5 87.5q-15.5 35.5 -44 57q-28.5 21.5 -68.5 31q-40 9.5 -90 9.5q-32 0 -57.5 -1q-25.5 -1 -56.5 -3l-48 -226h184l-15 -70l-184 0z" />
<glyph unicode="&#209;" horiz-adv-x="764" d="M254 700h92l208 -469q13 -29 24 -55q11 -26 22 -58q5 32 8.5 58q3.5 26 9.5 55l100 469h90l-149 -700h-92l-208 468q-14 30 -24 55.5q-10 25.5 -21 58.5q-5 -33 -9 -58.5q-4 -25.5 -10 -55.5l-99 -468h-91zM402 799q4 45 29 69.5q25 24.5 61 24.5q20 0 36.5 -7q16.5 -7 38.5 -17q20 -9 33 -15.5q13 -6.5 27 -6.5q14 0 25 10.5q11 10.5 16 33.5l50 -11q-5 -45 -30.5 -69q-25.5 -24 -57.5 -24q-18 0 -32.5 4.5q-14.5 4.5 -43.5 18.5q-19 9 -31.5 16q-12.5 7 -25.5 7q-14 0 -26 -10q-12 -10 -17 -35z" />
<glyph unicode="&#210;" horiz-adv-x="773" d="M397 -10q-63 0 -113 18q-50 18 -85 52.5q-35 34.5 -54 84q-19 49.5 -19 112.5q0 49 9.5 102q9.5 53 28.5 103.5q19 50.5 48 94.5q29 44 68 77q54 45 114.5 60.5q60.5 15.5 134.5 15.5q128 0 197 -69q69 -69 69 -197q0 -56 -11 -111.5q-11 -55.5 -30.5 -106q-19.5 -50.5 -48 -92q-28.5 -41.5 -62.5 -68.5q-55 -43 -116 -59.5q-61 -16.5 -130 -16.5zt0 0zM411 70q60 0 103.5 15.5q43.5 15.5 77.5 48.5q27 27 47 62q20 35 33.5 75q13.5 40 20 81.5q6.5 41.5 6.5 80.5q0 97 -45.5 147q-45.5 50 -144.5 50q-50 0 -88.5 -11q-38.5 -11 -73.5 -39q-33 -26 -56.5 -64q-23.5 -38 -38.5 -80.5q-15 -42.5 -22.5 -87q-7.5 -44.5 -7.5 -83.5q0 -94 47 -144.5q47 -50.5 142 -50.5zt0 0zM427 917h110l51 -140l-71 0z" />
<glyph unicode="&#211;" horiz-adv-x="773" d="M397 -10q-63 0 -113 18q-50 18 -85 52.5q-35 34.5 -54 84q-19 49.5 -19 112.5q0 49 9.5 102q9.5 53 28.5 103.5q19 50.5 48 94.5q29 44 68 77q54 45 114.5 60.5q60.5 15.5 134.5 15.5q128 0 197 -69q69 -69 69 -197q0 -56 -11 -111.5q-11 -55.5 -30.5 -106q-19.5 -50.5 -48 -92q-28.5 -41.5 -62.5 -68.5q-55 -43 -116 -59.5q-61 -16.5 -130 -16.5zt0 0zM411 70q60 0 103.5 15.5q43.5 15.5 77.5 48.5q27 27 47 62q20 35 33.5 75q13.5 40 20 81.5q6.5 41.5 6.5 80.5q0 97 -45.5 147q-45.5 50 -144.5 50q-50 0 -88.5 -11q-38.5 -11 -73.5 -39q-33 -26 -56.5 -64q-23.5 -38 -38.5 -80.5q-15 -42.5 -22.5 -87q-7.5 -44.5 -7.5 -83.5q0 -94 47 -144.5q47 -50.5 142 -50.5zt0 0zM635 915h114l-163 -150l-73 0z" />
<glyph unicode="&#212;" horiz-adv-x="773" d="M397 -10q-63 0 -113 18q-50 18 -85 52.5q-35 34.5 -54 84q-19 49.5 -19 112.5q0 49 9.5 102q9.5 53 28.5 103.5q19 50.5 48 94.5q29 44 68 77q54 45 114.5 60.5q60.5 15.5 134.5 15.5q128 0 197 -69q69 -69 69 -197q0 -56 -11 -111.5q-11 -55.5 -30.5 -106q-19.5 -50.5 -48 -92q-28.5 -41.5 -62.5 -68.5q-55 -43 -116 -59.5q-61 -16.5 -130 -16.5zt0 0zM411 70q60 0 103.5 15.5q43.5 15.5 77.5 48.5q27 27 47 62q20 35 33.5 75q13.5 40 20 81.5q6.5 41.5 6.5 80.5q0 97 -45.5 147q-45.5 50 -144.5 50q-50 0 -88.5 -11q-38.5 -11 -73.5 -39q-33 -26 -56.5 -64q-23.5 -38 -38.5 -80.5q-15 -42.5 -22.5 -87q-7.5 -44.5 -7.5 -83.5q0 -94 47 -144.5q47 -50.5 142 -50.5zt0 0zM533 915h96l91 -150h-71l-75 101l-118 -101l-77 0z" />
<glyph unicode="&#213;" horiz-adv-x="773" d="M397 -10q-63 0 -113 18q-50 18 -85 52.5q-35 34.5 -54 84q-19 49.5 -19 112.5q0 49 9.5 102q9.5 53 28.5 103.5q19 50.5 48 94.5q29 44 68 77q54 45 114.5 60.5q60.5 15.5 134.5 15.5q128 0 197 -69q69 -69 69 -197q0 -56 -11 -111.5q-11 -55.5 -30.5 -106q-19.5 -50.5 -48 -92q-28.5 -41.5 -62.5 -68.5q-55 -43 -116 -59.5q-61 -16.5 -130 -16.5zt0 0zM411 70q60 0 103.5 15.5q43.5 15.5 77.5 48.5q27 27 47 62q20 35 33.5 75q13.5 40 20 81.5q6.5 41.5 6.5 80.5q0 97 -45.5 147q-45.5 50 -144.5 50q-50 0 -88.5 -11q-38.5 -11 -73.5 -39q-33 -26 -56.5 -64q-23.5 -38 -38.5 -80.5q-15 -42.5 -22.5 -87q-7.5 -44.5 -7.5 -83.5q0 -94 47 -144.5q47 -50.5 142 -50.5zt0 0zM407 799q4 45 29 69.5q25 24.5 61 24.5q20 0 36.5 -7q16.5 -7 38.5 -17q20 -9 33 -15.5q13 -6.5 27 -6.5q14 0 25 10.5q11 10.5 16 33.5l50 -11q-5 -45 -30.5 -69q-25.5 -24 -57.5 -24q-18 0 -32.5 4.5q-14.5 4.5 -43.5 18.5q-19 9 -31.5 16q-12.5 7 -25.5 7q-14 0 -26 -10q-12 -10 -17 -35z" />
<glyph unicode="&#214;" horiz-adv-x="773" d="M397 -10q-63 0 -113 18q-50 18 -85 52.5q-35 34.5 -54 84q-19 49.5 -19 112.5q0 49 9.5 102q9.5 53 28.5 103.5q19 50.5 48 94.5q29 44 68 77q54 45 114.5 60.5q60.5 15.5 134.5 15.5q128 0 197 -69q69 -69 69 -197q0 -56 -11 -111.5q-11 -55.5 -30.5 -106q-19.5 -50.5 -48 -92q-28.5 -41.5 -62.5 -68.5q-55 -43 -116 -59.5q-61 -16.5 -130 -16.5zt0 0zM411 70q60 0 103.5 15.5q43.5 15.5 77.5 48.5q27 27 47 62q20 35 33.5 75q13.5 40 20 81.5q6.5 41.5 6.5 80.5q0 97 -45.5 147q-45.5 50 -144.5 50q-50 0 -88.5 -11q-38.5 -11 -73.5 -39q-33 -26 -56.5 -64q-23.5 -38 -38.5 -80.5q-15 -42.5 -22.5 -87q-7.5 -44.5 -7.5 -83.5q0 -94 47 -144.5q47 -50.5 142 -50.5zt0 0zM464 787q-55 0 -55 53q0 53 55 53q55 0 55 -53q0 -53 -55 -53zt0 0zM665 787q-55 0 -55 53q0 53 55 53q55 0 55 -53q0 -53 -55 -53z" />
<glyph unicode="&#215;" horiz-adv-x="601" d="M182 193l135 136l-135 135l52 53l136 -136l135 136l53 -53l-136 -135l136 -136l-53 -52l-135 135l-136 -135z" />
<glyph unicode="&#216;" horiz-adv-x="773" d="M397 -10q-117 0 -187 59l-82 -85l-41 35l87 90q-23 32 -35.5 74.5q-12.5 42.5 -12.5 93.5q0 49 9.5 102q9.5 53 28.5 103.5q19 50.5 48 94.5q29 44 68 77q54 45 114.5 60.5q60.5 15.5 134.5 15.5q121 0 188 -61l79 82l40 -36l-84 -87q43 -65 43 -164q0 -56 -11 -111.5q-11 -55.5 -30.5 -106q-19.5 -50.5 -48 -92q-28.5 -41.5 -62.5 -68.5q-55 -43 -116 -59.5q-61 -16.5 -130 -16.5zt0 0zM222 265q0 -65 20 -106l409 423q-47 48 -142 48q-50 0 -88.5 -11q-38.5 -11 -73.5 -39q-33 -26 -56.5 -64q-23.5 -38 -38.5 -80.5q-15 -42.5 -22.5 -87q-7.5 -44.5 -7.5 -83.5zt0 0zM411 70q60 0 103.5 15.5q43.5 15.5 77.5 48.5q27 27 47 62.5q20 35.5 33.5 75q13.5 39.5 20 81q6.5 41.5 6.5 80.5q0 60 -18 102l-407 -420q46 -45 137 -45z" />
<glyph unicode="&#217;" horiz-adv-x="735" d="M368 -10q-48 0 -88.5 11.5q-40.5 11.5 -69 35q-28.5 23.5 -44.5 59.5q-16 36 -16 84q0 25 5 63q5 38 15 85l79 372h90l-81 -379q-10 -45 -14 -78.5q-4 -33.5 -4 -51.5q0 -68 38.5 -94.5q38.5 -26.5 102.5 -26.5q52 0 88.5 11q36.5 11 62.5 35q26 24 43 62.5q17 38.5 29 94.5l90 427h91l-92 -428q-16 -76 -41 -129.5q-25 -53.5 -63.5 -87.5q-38.5 -34 -92.5 -49.5q-54 -15.5 -128 -15.5zt0 0zM409 917h110l51 -140l-71 0z" />
<glyph unicode="&#218;" horiz-adv-x="735" d="M368 -10q-48 0 -88.5 11.5q-40.5 11.5 -69 35q-28.5 23.5 -44.5 59.5q-16 36 -16 84q0 25 5 63q5 38 15 85l79 372h90l-81 -379q-10 -45 -14 -78.5q-4 -33.5 -4 -51.5q0 -68 38.5 -94.5q38.5 -26.5 102.5 -26.5q52 0 88.5 11q36.5 11 62.5 35q26 24 43 62.5q17 38.5 29 94.5l90 427h91l-92 -428q-16 -76 -41 -129.5q-25 -53.5 -63.5 -87.5q-38.5 -34 -92.5 -49.5q-54 -15.5 -128 -15.5zt0 0zM616 915h114l-163 -150l-73 0z" />
<glyph unicode="&#219;" horiz-adv-x="735" d="M368 -10q-48 0 -88.5 11.5q-40.5 11.5 -69 35q-28.5 23.5 -44.5 59.5q-16 36 -16 84q0 25 5 63q5 38 15 85l79 372h90l-81 -379q-10 -45 -14 -78.5q-4 -33.5 -4 -51.5q0 -68 38.5 -94.5q38.5 -26.5 102.5 -26.5q52 0 88.5 11q36.5 11 62.5 35q26 24 43 62.5q17 38.5 29 94.5l90 427h91l-92 -428q-16 -76 -41 -129.5q-25 -53.5 -63.5 -87.5q-38.5 -34 -92.5 -49.5q-54 -15.5 -128 -15.5zt0 0zM514 915h96l91 -150h-71l-75 101l-118 -101l-77 0z" />
<glyph unicode="&#220;" horiz-adv-x="735" d="M368 -10q-48 0 -88.5 11.5q-40.5 11.5 -69 35q-28.5 23.5 -44.5 59.5q-16 36 -16 84q0 25 5 63q5 38 15 85l79 372h90l-81 -379q-10 -45 -14 -78.5q-4 -33.5 -4 -51.5q0 -68 38.5 -94.5q38.5 -26.5 102.5 -26.5q52 0 88.5 11q36.5 11 62.5 35q26 24 43 62.5q17 38.5 29 94.5l90 427h91l-92 -428q-16 -76 -41 -129.5q-25 -53.5 -63.5 -87.5q-38.5 -34 -92.5 -49.5q-54 -15.5 -128 -15.5zt0 0zM445 787q-55 0 -55 53q0 53 55 53q55 0 55 -53q0 -53 -55 -53zt0 0zM646 787q-55 0 -55 53q0 53 55 53q55 0 55 -53q0 -53 -55 -53z" />
<glyph unicode="&#221;" horiz-adv-x="618" d="M322 273l-152 427h96l118 -334l257 334h105l-333 -427l-59 -273h-90zM556 915h114l-163 -150l-73 0z" />
<glyph unicode="&#222;" horiz-adv-x="636" d="M253 700h90l-22 -106q23 1 48.5 2q25.5 1 53.5 1q126 0 181.5 -48.5q55.5 -48.5 55.5 -134.5q0 -81 -23.5 -136q-23.5 -55 -67 -89.5q-43.5 -34.5 -106.5 -49.5q-63 -15 -142 -15q-32 0 -55.5 0.5q-23.5 0.5 -43.5 2.5l-27 -127h-90zM239 207q22 -2 45 -2.5q23 -0.5 53 -0.5q55 0 97 9q42 9 70.5 31.5q28.5 22.5 43.5 60q15 37.5 15 94.5q0 27 -7 48.5q-7 21.5 -25 37q-18 15.5 -48 24q-30 8.5 -76 8.5q-27 0 -51.5 -1q-24.5 -1 -51.5 -3z" />
<glyph unicode="&#223;" horiz-adv-x="632" d="M196 499q13 60 35 108.5q22 48.5 57.5 82.5q35.5 34 84.5 52q49 18 116 18q37 0 68 -8q31 -8 53.5 -24.5q22.5 -16.5 35.5 -42.5q13 -26 13 -62q0 -36 -10 -69.5q-10 -33.5 -29.5 -61.5q-19.5 -28 -47.5 -49.5q-28 -21.5 -64 -32.5l-1 -3q57 -8 85 -41q28 -33 28 -90q0 -57 -20 -108.5q-20 -51.5 -55.5 -91.5q-35.5 -40 -85 -63.5q-49.5 -23.5 -108.5 -23.5q-23 0 -43.5 2.5q-20.5 2.5 -37.5 8.5l15 75q14 -5 31 -7.5q17 -2.5 38 -2.5q43 0 76 17q33 17 55.5 45.5q22.5 28.5 34 65q11.5 36.5 11.5 75.5q0 29 -9.5 48q-9.5 19 -25.5 30q-16 11 -37.5 15q-21.5 4 -45.5 4h-51l16 72h43q33 0 60 14q27 14 46.5 36.5q19.5 22.5 30.5 52q11 29.5 11 60.5q0 42 -26.5 63.5q-26.5 21.5 -75.5 21.5q-42 0 -73 -14q-31 -14 -53 -38q-22 -24 -35.5 -56.5q-13.5 -32.5 -21.5 -69.5l-107 -507l-86 0z" />
<glyph unicode="&#224;" horiz-adv-x="642" d="M488 96q-32 -51 -78.5 -78.5q-46.5 -27.5 -115.5 -27.5q-92 0 -140.5 49.5q-48.5 49.5 -48.5 138.5q0 67 15.5 132q15.5 65 50 116q34.5 51 89.5 82.5q55 31.5 133 31.5q68 0 111.5 -31q43.5 -31 55.5 -90l39 111h66l-112 -530h-73zM194 194q0 -66 35 -97.5q35 -31.5 98 -31.5q41 0 72.5 13q31.5 13 54.5 35.5q23 22.5 38.5 53q15.5 30.5 23.5 65.5l11 58q3 13 4 25q1 12 1 23q0 59 -32.5 93q-32.5 34 -101.5 34q-56 0 -94.5 -24q-38.5 -24 -63 -62.5q-24.5 -38.5 -35.5 -87q-11 -48.5 -11 -97.5zt0 0zM399 619l-122 142h111l83 -142z" />
<glyph unicode="&#225;" horiz-adv-x="642" d="M488 96q-32 -51 -78.5 -78.5q-46.5 -27.5 -115.5 -27.5q-92 0 -140.5 49.5q-48.5 49.5 -48.5 138.5q0 67 15.5 132q15.5 65 50 116q34.5 51 89.5 82.5q55 31.5 133 31.5q68 0 111.5 -31q43.5 -31 55.5 -90l39 111h66l-112 -530h-73zM194 194q0 -66 35 -97.5q35 -31.5 98 -31.5q41 0 72.5 13q31.5 13 54.5 35.5q23 22.5 38.5 53q15.5 30.5 23.5 65.5l11 58q3 13 4 25q1 12 1 23q0 59 -32.5 93q-32.5 34 -101.5 34q-56 0 -94.5 -24q-38.5 -24 -63 -62.5q-24.5 -38.5 -35.5 -87q-11 -48.5 -11 -97.5zt0 0zM511 760h112l-153 -140l-71 0z" />
<glyph unicode="&#226;" horiz-adv-x="642" d="M488 96q-32 -51 -78.5 -78.5q-46.5 -27.5 -115.5 -27.5q-92 0 -140.5 49.5q-48.5 49.5 -48.5 138.5q0 67 15.5 132q15.5 65 50 116q34.5 51 89.5 82.5q55 31.5 133 31.5q68 0 111.5 -31q43.5 -31 55.5 -90l39 111h66l-112 -530h-73zM194 194q0 -66 35 -97.5q35 -31.5 98 -31.5q41 0 72.5 13q31.5 13 54.5 35.5q23 22.5 38.5 53q15.5 30.5 23.5 65.5l11 58q3 13 4 25q1 12 1 23q0 59 -32.5 93q-32.5 34 -101.5 34q-56 0 -94.5 -24q-38.5 -24 -63 -62.5q-24.5 -38.5 -35.5 -87q-11 -48.5 -11 -97.5zt0 0zM417 760h93l81 -140h-69l-65 92l-104 -92l-76 0z" />
<glyph unicode="&#227;" horiz-adv-x="642" d="M488 96q-32 -51 -78.5 -78.5q-46.5 -27.5 -115.5 -27.5q-92 0 -140.5 49.5q-48.5 49.5 -48.5 138.5q0 67 15.5 132q15.5 65 50 116q34.5 51 89.5 82.5q55 31.5 133 31.5q68 0 111.5 -31q43.5 -31 55.5 -90l39 111h66l-112 -530h-73zM194 194q0 -66 35 -97.5q35 -31.5 98 -31.5q41 0 72.5 13q31.5 13 54.5 35.5q23 22.5 38.5 53q15.5 30.5 23.5 65.5l11 58q3 13 4 25q1 12 1 23q0 59 -32.5 93q-32.5 34 -101.5 34q-56 0 -94.5 -24q-38.5 -24 -63 -62.5q-24.5 -38.5 -35.5 -87q-11 -48.5 -11 -97.5zt0 0zM297 649q3 45 26 69.5q23 24.5 59 24.5q19 0 35.5 -7q16.5 -7 38.5 -17q20 -9 33 -15q13 -6 27 -6q14 0 22.5 10q8.5 10 13.5 34l51 -12q-5 -45 -28.5 -69q-23.5 -24 -55.5 -24q-17 0 -32 5q-15 5 -44 19q-19 8 -31 15q-12 7 -26 7q-13 0 -23 -10q-10 -10 -15 -35z" />
<glyph unicode="&#228;" horiz-adv-x="642" d="M488 96q-32 -51 -78.5 -78.5q-46.5 -27.5 -115.5 -27.5q-92 0 -140.5 49.5q-48.5 49.5 -48.5 138.5q0 67 15.5 132q15.5 65 50 116q34.5 51 89.5 82.5q55 31.5 133 31.5q68 0 111.5 -31q43.5 -31 55.5 -90l39 111h66l-112 -530h-73zM194 194q0 -66 35 -97.5q35 -31.5 98 -31.5q41 0 72.5 13q31.5 13 54.5 35.5q23 22.5 38.5 53q15.5 30.5 23.5 65.5l11 58q3 13 4 25q1 12 1 23q0 59 -32.5 93q-32.5 34 -101.5 34q-56 0 -94.5 -24q-38.5 -24 -63 -62.5q-24.5 -38.5 -35.5 -87q-11 -48.5 -11 -97.5zt0 0zM362 639q-53 0 -53 51q0 51 53 51q54 0 54 -51q0 -51 -54 -51zt0 0zM535 639q-53 0 -53 51q0 51 53 51q54 0 54 -51q0 -51 -54 -51z" />
<glyph unicode="&#229;" horiz-adv-x="642" d="M488 96q-32 -51 -78.5 -78.5q-46.5 -27.5 -115.5 -27.5q-92 0 -140.5 49.5q-48.5 49.5 -48.5 138.5q0 67 15.5 132q15.5 65 50 116q34.5 51 89.5 82.5q55 31.5 133 31.5q68 0 111.5 -31q43.5 -31 55.5 -90l39 111h66l-112 -530h-73zM194 194q0 -66 35 -97.5q35 -31.5 98 -31.5q41 0 72.5 13q31.5 13 54.5 35.5q23 22.5 38.5 53q15.5 30.5 23.5 65.5l11 58q3 13 4 25q1 12 1 23q0 59 -32.5 93q-32.5 34 -101.5 34q-56 0 -94.5 -24q-38.5 -24 -63 -62.5q-24.5 -38.5 -35.5 -87q-11 -48.5 -11 -97.5zt0 0zM448 593q-44 0 -70.5 26.5q-26.5 26.5 -26.5 70.5q0 44 26.5 70.5q26.5 26.5 70.5 26.5q44 0 70.5 -26.5q26.5 -26.5 26.5 -70.5q0 -44 -26.5 -70.5q-26.5 -26.5 -70.5 -26.5zt0 0zM448 642q23 0 36 12.5q13 12.5 13 35.5q0 23 -13 36q-13 13 -36 13q-23 0 -35.5 -13q-12.5 -13 -12.5 -36q0 -23 12.5 -35.5t35.5 -12.5z" />
<glyph unicode="&#230;" horiz-adv-x="908" d="M533 244q-2 -14 -2 -28q0 -14 0 -25q0 -130 152 -130q53 0 104 20q51 20 86 46l-16 -82q-12 -9 -31 -18.5q-19 -9.5 -42.5 -17.5q-23.5 -8 -50 -13.5q-26.5 -5.5 -54.5 -5.5q-35 0 -67.5 4.5q-32.5 4.5 -60 16.5q-27.5 12 -49.5 33.5q-22 21.5 -37 55.5q-20 -25 -42 -45q-22 -20 -50 -34.5q-28 -14.5 -64 -22.5q-36 -8 -82 -8q-72 0 -110 32.5q-38 32.5 -38 89.5q0 57 19.5 94q19.5 37 54.5 59.5q35 22.5 83 31.5q48 9 105 9h119q5 20 10 40q5 20 5 46q0 42 -27.5 59q-27.5 17 -84.5 17q-25 0 -51 -5q-26 -5 -50 -13q-24 -8 -45.5 -18q-21.5 -10 -36.5 -21l19 91q15 7 36.5 14q21.5 7 46.5 12q25 5 51 8.5q26 3.5 50 3.5q9 0 17.5 0q8.5 0 16.5 -1q59 -3 90.5 -21q31.5 -18 42.5 -54q38 40 88.5 58q50.5 18 111.5 18q95 0 139.5 -38q44.5 -38 44.5 -101q0 -81 -70 -119q-70 -38 -205 -38zM734 468q-71 0 -119.5 -40q-48.5 -40 -68.5 -123l123 0q179 0 179 82q0 22 -9.5 37.5q-9.5 15.5 -25.5 25.5q-16 10 -36.5 14q-20.5 4 -42.5 4zt0 0zM336 245q-35 0 -65 -4q-30 -4 -52.5 -16q-22.5 -12 -35.5 -33.5q-13 -21.5 -13 -57.5q0 -35 24 -54q24 -19 72 -19q72 0 116.5 40q44.5 40 57.5 104l8 40z" />
<glyph unicode="&#231;" horiz-adv-x="548" d="M301 -10q-93 6 -144.5 60.5q-51.5 54.5 -51.5 150.5q0 76 20 139q20 63 59.5 107q39.5 44 97.5 68.5q58 24.5 135 24.5q55 0 94.5 -10.5q39.5 -10.5 59.5 -24.5v-88q-40 17 -77 32.5q-37 15.5 -87 15.5q-104 0 -158.5 -66.5q-54.5 -66.5 -54.5 -183.5q0 -32 9.5 -59.5q9.5 -27.5 29 -48q19.5 -20.5 49.5 -32q30 -11.5 71 -11.5q46 0 90.5 17q44.5 17 76.5 40l-18 -84q-23 -16 -62 -29.5q-39 -13.5 -89 -17.5l-14 -38q38 -1 62 -14q24 -13 24 -46q0 -25 -11 -46q-11 -21 -29 -36q-18 -15 -42 -23.5q-24 -8.5 -49 -8.5q-25 0 -43 4q-18 4 -32 12l17 45q14 -6 26 -9.5q12 -3.5 30 -3.5q11 0 23 3.5q12 3.5 21.5 10.5q9.5 7 15.5 17.5q6 10.5 6 24.5q0 18 -16.5 24q-16.5 6 -34.5 6q-7 0 -16.5 0q-9.5 0 -16.5 -1z" />
<glyph unicode="&#232;" horiz-adv-x="573" d="M322 -10q-108 0 -161 55.5q-53 55.5 -53 157.5q0 72 21 134q21 62 60 107q39 45 93.5 70.5q54.5 25.5 121.5 25.5q55 0 92.5 -10.5q37.5 -10.5 60.5 -29q23 -18.5 33 -44q10 -25.5 10 -54.5q0 -76 -66.5 -116.5q-66.5 -40.5 -206.5 -40.5h-127q-2 -8 -3.5 -23q-1.5 -15 -1.5 -30q0 -60 34.5 -95q34.5 -35 113.5 -35q51 0 105.5 16.5q54.5 16.5 90.5 48.5l-16 -81q-15 -12 -37 -22q-22 -10 -48 -17.5q-26 -7.5 -56 -12q-30 -4.5 -60 -4.5zt0 0zM336 306q55 0 89.5 7q34.5 7 53.5 18.5q19 11.5 25.5 26.5q6.5 15 6.5 32q0 31 -23 54.5q-23 23.5 -84 23.5q-152 0 -192 -162zM382 619l-122 142h111l83 -142z" />
<glyph unicode="&#233;" horiz-adv-x="573" d="M322 -10q-108 0 -161 55.5q-53 55.5 -53 157.5q0 72 21 134q21 62 60 107q39 45 93.5 70.5q54.5 25.5 121.5 25.5q55 0 92.5 -10.5q37.5 -10.5 60.5 -29q23 -18.5 33 -44q10 -25.5 10 -54.5q0 -76 -66.5 -116.5q-66.5 -40.5 -206.5 -40.5h-127q-2 -8 -3.5 -23q-1.5 -15 -1.5 -30q0 -60 34.5 -95q34.5 -35 113.5 -35q51 0 105.5 16.5q54.5 16.5 90.5 48.5l-16 -81q-15 -12 -37 -22q-22 -10 -48 -17.5q-26 -7.5 -56 -12q-30 -4.5 -60 -4.5zt0 0zM336 306q55 0 89.5 7q34.5 7 53.5 18.5q19 11.5 25.5 26.5q6.5 15 6.5 32q0 31 -23 54.5q-23 23.5 -84 23.5q-152 0 -192 -162zM494 760h112l-153 -140l-71 0z" />
<glyph unicode="&#234;" horiz-adv-x="573" d="M322 -10q-108 0 -161 55.5q-53 55.5 -53 157.5q0 72 21 134q21 62 60 107q39 45 93.5 70.5q54.5 25.5 121.5 25.5q55 0 92.5 -10.5q37.5 -10.5 60.5 -29q23 -18.5 33 -44q10 -25.5 10 -54.5q0 -76 -66.5 -116.5q-66.5 -40.5 -206.5 -40.5h-127q-2 -8 -3.5 -23q-1.5 -15 -1.5 -30q0 -60 34.5 -95q34.5 -35 113.5 -35q51 0 105.5 16.5q54.5 16.5 90.5 48.5l-16 -81q-15 -12 -37 -22q-22 -10 -48 -17.5q-26 -7.5 -56 -12q-30 -4.5 -60 -4.5zt0 0zM336 306q55 0 89.5 7q34.5 7 53.5 18.5q19 11.5 25.5 26.5q6.5 15 6.5 32q0 31 -23 54.5q-23 23.5 -84 23.5q-152 0 -192 -162zM400 760h93l81 -140h-69l-65 92l-104 -92l-76 0z" />
<glyph unicode="&#235;" horiz-adv-x="573" d="M322 -10q-108 0 -161 55.5q-53 55.5 -53 157.5q0 72 21 134q21 62 60 107q39 45 93.5 70.5q54.5 25.5 121.5 25.5q55 0 92.5 -10.5q37.5 -10.5 60.5 -29q23 -18.5 33 -44q10 -25.5 10 -54.5q0 -76 -66.5 -116.5q-66.5 -40.5 -206.5 -40.5h-127q-2 -8 -3.5 -23q-1.5 -15 -1.5 -30q0 -60 34.5 -95q34.5 -35 113.5 -35q51 0 105.5 16.5q54.5 16.5 90.5 48.5l-16 -81q-15 -12 -37 -22q-22 -10 -48 -17.5q-26 -7.5 -56 -12q-30 -4.5 -60 -4.5zt0 0zM336 306q55 0 89.5 7q34.5 7 53.5 18.5q19 11.5 25.5 26.5q6.5 15 6.5 32q0 31 -23 54.5q-23 23.5 -84 23.5q-152 0 -192 -162zM345 639q-53 0 -53 51q0 51 53 51q54 0 54 -51q0 -51 -54 -51zt0 0zM518 639q-53 0 -53 51q0 51 53 51q54 0 54 -51q0 -51 -54 -51z" />
<glyph unicode="&#236;" horiz-adv-x="291" d="M102 0l113 530h86l-113 -530zM241 619l-122 142h111l83 -142z" />
<glyph unicode="&#237;" horiz-adv-x="291" d="M102 0l113 530h86l-113 -530zM355 760h112l-153 -140l-71 0z" />
<glyph unicode="&#238;" horiz-adv-x="291" d="M102 0l113 530h86l-113 -530zM260 760h93l81 -140h-69l-65 92l-104 -92l-76 0z" />
<glyph unicode="&#239;" horiz-adv-x="291" d="M102 0l113 530h86l-113 -530zM204 639q-53 0 -53 51q0 51 53 51q54 0 54 -51q0 -51 -54 -51zt0 0zM377 639q-53 0 -53 51q0 51 53 51q54 0 54 -51q0 -51 -54 -51z" />
<glyph unicode="&#240;" horiz-adv-x="591" d="M298 607l110 51q-52 34 -123 51l39 60q97 -23 163 -74l143 66l16 -43l-122 -56q46 -48 70 -112q24 -64 24 -143q0 -96 -22.5 -173.5q-22.5 -77.5 -64.5 -131.5q-42 -54 -101.5 -83q-59.5 -29 -132.5 -29q-97 0 -146.5 45.5q-49.5 45.5 -49.5 133.5q0 78 21.5 142.5q21.5 64.5 60.5 111q39 46.5 92.5 72q53.5 25.5 117.5 25.5q45 0 81 -21q36 -21 55 -56l3 2q-2 54 -24 100q-22 46 -60 82l-134 -62zM314 65q44 0 82 20.5q38 20.5 66 56q28 35.5 44 83.5q16 48 16 104q0 58 -31.5 88.5q-31.5 30.5 -94.5 30.5q-45 0 -83 -19q-38 -19 -65 -53.5q-27 -34.5 -42.5 -83q-15.5 -48.5 -15.5 -106.5q0 -64 33.5 -92.5t90.5 -28.5z" />
<glyph unicode="&#241;" horiz-adv-x="625" d="M203 530h73l-8 -94q35 54 85 79q50 25 116 25q77 0 117 -27q40 -27 40 -95q0 -32 -9 -74l-73 -344h-87l69 322q7 35 7 64q0 45 -26 62q-26 17 -84 17q-74 0 -120 -40q-46 -40 -61 -111l-66 -314h-86zM309 649q3 45 26 69.5q23 24.5 59 24.5q19 0 35.5 -7q16.5 -7 38.5 -17q20 -9 33 -15q13 -6 27 -6q14 0 22.5 10q8.5 10 13.5 34l51 -12q-5 -45 -28.5 -69q-23.5 -24 -55.5 -24q-17 0 -32 5q-15 5 -44 19q-19 8 -31 15q-12 7 -26 7q-13 0 -23 -10q-10 -10 -15 -35z" />
<glyph unicode="&#242;" horiz-adv-x="616" d="M105 194q0 78 21 142q21 64 60.5 109.5q39.5 45.5 96.5 70q57 24.5 130 24.5q45 0 82.5 -12.5q37.5 -12.5 65.5 -37.5q28 -25 43.5 -63q15.5 -38 15.5 -88q0 -80 -19 -144q-19 -64 -56 -110q-37 -46 -90.5 -70.5q-53.5 -24.5 -123.5 -24.5q-57 0 -99.5 15q-42.5 15 -70.5 42q-28 27 -42 64.5q-14 37.5 -14 82.5zt0 0zM194 210q0 -66 32.5 -105.5q32.5 -39.5 110.5 -39.5q50 0 86.5 21q36.5 21 60.5 57q24 36 35.5 83q11.5 47 11.5 98q0 69 -30.5 105q-30.5 36 -96.5 36q-48 0 -87 -18.5q-39 -18.5 -66 -52q-27 -33.5 -42 -80.5q-15 -47 -15 -104zt0 0zM402 619l-122 142h111l83 -142z" />
<glyph unicode="&#243;" horiz-adv-x="616" d="M105 194q0 78 21 142q21 64 60.5 109.5q39.5 45.5 96.5 70q57 24.5 130 24.5q45 0 82.5 -12.5q37.5 -12.5 65.5 -37.5q28 -25 43.5 -63q15.5 -38 15.5 -88q0 -80 -19 -144q-19 -64 -56 -110q-37 -46 -90.5 -70.5q-53.5 -24.5 -123.5 -24.5q-57 0 -99.5 15q-42.5 15 -70.5 42q-28 27 -42 64.5q-14 37.5 -14 82.5zt0 0zM194 210q0 -66 32.5 -105.5q32.5 -39.5 110.5 -39.5q50 0 86.5 21q36.5 21 60.5 57q24 36 35.5 83q11.5 47 11.5 98q0 69 -30.5 105q-30.5 36 -96.5 36q-48 0 -87 -18.5q-39 -18.5 -66 -52q-27 -33.5 -42 -80.5q-15 -47 -15 -104zt0 0zM516 760h112l-153 -140l-71 0z" />
<glyph unicode="&#244;" horiz-adv-x="616" d="M105 194q0 78 21 142q21 64 60.5 109.5q39.5 45.5 96.5 70q57 24.5 130 24.5q45 0 82.5 -12.5q37.5 -12.5 65.5 -37.5q28 -25 43.5 -63q15.5 -38 15.5 -88q0 -80 -19 -144q-19 -64 -56 -110q-37 -46 -90.5 -70.5q-53.5 -24.5 -123.5 -24.5q-57 0 -99.5 15q-42.5 15 -70.5 42q-28 27 -42 64.5q-14 37.5 -14 82.5zt0 0zM194 210q0 -66 32.5 -105.5q32.5 -39.5 110.5 -39.5q50 0 86.5 21q36.5 21 60.5 57q24 36 35.5 83q11.5 47 11.5 98q0 69 -30.5 105q-30.5 36 -96.5 36q-48 0 -87 -18.5q-39 -18.5 -66 -52q-27 -33.5 -42 -80.5q-15 -47 -15 -104zt0 0zM420 760h93l81 -140h-69l-65 92l-104 -92l-76 0z" />
<glyph unicode="&#245;" horiz-adv-x="616" d="M105 194q0 78 21 142q21 64 60.5 109.5q39.5 45.5 96.5 70q57 24.5 130 24.5q45 0 82.5 -12.5q37.5 -12.5 65.5 -37.5q28 -25 43.5 -63q15.5 -38 15.5 -88q0 -80 -19 -144q-19 -64 -56 -110q-37 -46 -90.5 -70.5q-53.5 -24.5 -123.5 -24.5q-57 0 -99.5 15q-42.5 15 -70.5 42q-28 27 -42 64.5q-14 37.5 -14 82.5zt0 0zM194 210q0 -66 32.5 -105.5q32.5 -39.5 110.5 -39.5q50 0 86.5 21q36.5 21 60.5 57q24 36 35.5 83q11.5 47 11.5 98q0 69 -30.5 105q-30.5 36 -96.5 36q-48 0 -87 -18.5q-39 -18.5 -66 -52q-27 -33.5 -42 -80.5q-15 -47 -15 -104zt0 0zM300 649q3 45 26 69.5q23 24.5 59 24.5q19 0 35.5 -7q16.5 -7 38.5 -17q20 -9 33 -15q13 -6 27 -6q14 0 22.5 10q8.5 10 13.5 34l51 -12q-5 -45 -28.5 -69q-23.5 -24 -55.5 -24q-17 0 -32 5q-15 5 -44 19q-19 8 -31 15q-12 7 -26 7q-13 0 -23 -10q-10 -10 -15 -35z" />
<glyph unicode="&#246;" horiz-adv-x="616" d="M105 194q0 78 21 142q21 64 60.5 109.5q39.5 45.5 96.5 70q57 24.5 130 24.5q45 0 82.5 -12.5q37.5 -12.5 65.5 -37.5q28 -25 43.5 -63q15.5 -38 15.5 -88q0 -80 -19 -144q-19 -64 -56 -110q-37 -46 -90.5 -70.5q-53.5 -24.5 -123.5 -24.5q-57 0 -99.5 15q-42.5 15 -70.5 42q-28 27 -42 64.5q-14 37.5 -14 82.5zt0 0zM194 210q0 -66 32.5 -105.5q32.5 -39.5 110.5 -39.5q50 0 86.5 21q36.5 21 60.5 57q24 36 35.5 83q11.5 47 11.5 98q0 69 -30.5 105q-30.5 36 -96.5 36q-48 0 -87 -18.5q-39 -18.5 -66 -52q-27 -33.5 -42 -80.5q-15 -47 -15 -104zt0 0zM365 639q-53 0 -53 51q0 51 53 51q54 0 54 -51q0 -51 -54 -51zt0 0zM538 639q-53 0 -53 51q0 51 53 51q54 0 54 -51q0 -51 -54 -51z" />
<glyph unicode="&#247;" horiz-adv-x="601" d="M585 366v-75h-431v75zM370 100q-64 0 -64 63q0 62 64 62q63 0 63 -62q0 -63 -63 -63zt0 0zM370 432q-64 0 -64 63q0 62 64 62q63 0 63 -62q0 -63 -63 -63z" />
<glyph unicode="&#248;" horiz-adv-x="618" d="M107 194q0 78 21 142q21 64 60.5 109.5q39.5 45.5 96.5 70q57 24.5 130 24.5q85 0 141 -44l65 69l36 -32l-69 -71q34 -48 34 -121q0 -80 -19 -144.5q-19 -64.5 -56 -110.5q-37 -46 -90.5 -71q-53.5 -25 -123.5 -25q-101 0 -157 44l-67 -69l-36 31l70 72q-18 25 -27 57q-9 32 -9 69zt0 0zM533 326q0 38 -11 68l-286 -299q34 -30 103 -30q50 0 86.5 21.5q36.5 21.5 60.5 57.5q24 36 35.5 83.5q11.5 47.5 11.5 98.5zt0 0zM196 210q0 -21 3 -40.5q3 -19.5 9 -34.5l288 300q-32 30 -90 30q-48 0 -87 -18.5q-39 -18.5 -66 -52q-27 -33.5 -42 -80.5t-15 -104z" />
<glyph unicode="&#249;" horiz-adv-x="618" d="M198 530h87l-72 -337q-6 -29 -6 -49q0 -43 24.5 -61q24.5 -18 77.5 -18q77 0 120.5 39.5q43.5 39.5 59.5 112.5l67 313h86l-113 -530h-74l7 95q-35 -56 -85 -80.5q-50 -24.5 -116 -24.5q-146 0 -146 121q0 31 7 63zM401 619l-122 142h111l83 -142z" />
<glyph unicode="&#250;" horiz-adv-x="618" d="M198 530h87l-72 -337q-6 -29 -6 -49q0 -43 24.5 -61q24.5 -18 77.5 -18q77 0 120.5 39.5q43.5 39.5 59.5 112.5l67 313h86l-113 -530h-74l7 95q-35 -56 -85 -80.5q-50 -24.5 -116 -24.5q-146 0 -146 121q0 31 7 63zM516 760h112l-153 -140l-71 0z" />
<glyph unicode="&#251;" horiz-adv-x="618" d="M198 530h87l-72 -337q-6 -29 -6 -49q0 -43 24.5 -61q24.5 -18 77.5 -18q77 0 120.5 39.5q43.5 39.5 59.5 112.5l67 313h86l-113 -530h-74l7 95q-35 -56 -85 -80.5q-50 -24.5 -116 -24.5q-146 0 -146 121q0 31 7 63zM420 760h93l81 -140h-69l-65 92l-104 -92l-76 0z" />
<glyph unicode="&#252;" horiz-adv-x="618" d="M198 530h87l-72 -337q-6 -29 -6 -49q0 -43 24.5 -61q24.5 -18 77.5 -18q77 0 120.5 39.5q43.5 39.5 59.5 112.5l67 313h86l-113 -530h-74l7 95q-35 -56 -85 -80.5q-50 -24.5 -116 -24.5q-146 0 -146 121q0 31 7 63zM365 639q-53 0 -53 51q0 51 53 51q54 0 54 -51q0 -51 -54 -51zt0 0zM538 639q-53 0 -53 51q0 51 53 51q54 0 54 -51q0 -51 -54 -51z" />
<glyph unicode="&#253;" horiz-adv-x="541" d="M84 -96q9 -7 22 -13q13 -6 32 -6q31 0 56 31q25 31 55 85l-115 529h94l79 -426l227 426h96l-303 -537q-32 -57 -58.5 -93q-26.5 -36 -50 -56q-23.5 -20 -46.5 -27q-23 -7 -49 -7q-18 0 -32.5 3.5q-14.5 3.5 -24.5 8.5zM479 760h112l-153 -140l-71 0z" />
<glyph unicode="&#254;" horiz-adv-x="642" d="M250 750h86l-68 -316q31 51 74 78.5q43 27.5 113 27.5q96 0 144.5 -49.5q48.5 -49.5 48.5 -138.5q0 -67 -15.5 -132q-15.5 -65 -49.5 -116q-34 -51 -88.5 -82.5q-54.5 -31.5 -132.5 -31.5q-71 0 -113 33q-42 33 -51 84l-61 -287h-86zM358 65q54 0 92 24q38 24 62.5 62.5q24.5 38.5 35.5 86.5q11 48 11 96q0 68 -34.5 99.5q-34.5 31.5 -95.5 31.5q-41 0 -73.5 -13q-32.5 -13 -56 -35.5q-23.5 -22.5 -38.5 -53q-15 -30.5 -22 -65.5l-12 -56q-9 -39 -4 -71.5q5 -32.5 22 -56q17 -23.5 45.5 -36.5t67.5 -13z" />
<glyph unicode="&#255;" horiz-adv-x="541" d="M84 -96q9 -7 22 -13q13 -6 32 -6q31 0 56 31q25 31 55 85l-115 529h94l79 -426l227 426h96l-303 -537q-32 -57 -58.5 -93q-26.5 -36 -50 -56q-23.5 -20 -46.5 -27q-23 -7 -49 -7q-18 0 -32.5 3.5q-14.5 3.5 -24.5 8.5zM329 639q-53 0 -53 51q0 51 53 51q54 0 54 -51q0 -51 -54 -51zt0 0zM502 639q-53 0 -53 51q0 51 53 51q54 0 54 -51q0 -51 -54 -51z" />
<glyph unicode="&#256;" horiz-adv-x="671" d="M435 700h99l112 -700h-91l-28 187h-300l-107 -187h-95zM272 265h243l-50 335zM365 872h298v-64l-298 0z" />
<glyph unicode="&#257;" horiz-adv-x="642" d="M488 96q-32 -51 -78.5 -78.5q-46.5 -27.5 -115.5 -27.5q-92 0 -140.5 49.5q-48.5 49.5 -48.5 138.5q0 67 15.5 132q15.5 65 50 116q34.5 51 89.5 82.5q55 31.5 133 31.5q68 0 111.5 -31q43.5 -31 55.5 -90l39 111h66l-112 -530h-73zM194 194q0 -66 35 -97.5q35 -31.5 98 -31.5q41 0 72.5 13q31.5 13 54.5 35.5q23 22.5 38.5 53q15.5 30.5 23.5 65.5l11 58q3 13 4 25q1 12 1 23q0 59 -32.5 93q-32.5 34 -101.5 34q-56 0 -94.5 -24q-38.5 -24 -63 -62.5q-24.5 -38.5 -35.5 -87q-11 -48.5 -11 -97.5zt0 0zM308 720h281v-60l-281 0z" />
<glyph unicode="&#258;" horiz-adv-x="671" d="M435 700h99l112 -700h-91l-28 187h-300l-107 -187h-95zM272 265h243l-50 335zM430 910q4 -38 22 -58.5q18 -20.5 60 -20.5q42 0 69 20.5q27 20.5 47 58.5l52 -16q-61 -124 -181 -124q-120 0 -128 124z" />
<glyph unicode="&#259;" horiz-adv-x="642" d="M488 96q-32 -51 -78.5 -78.5q-46.5 -27.5 -115.5 -27.5q-92 0 -140.5 49.5q-48.5 49.5 -48.5 138.5q0 67 15.5 132q15.5 65 50 116q34.5 51 89.5 82.5q55 31.5 133 31.5q68 0 111.5 -31q43.5 -31 55.5 -90l39 111h66l-112 -530h-73zM194 194q0 -66 35 -97.5q35 -31.5 98 -31.5q41 0 72.5 13q31.5 13 54.5 35.5q23 22.5 38.5 53q15.5 30.5 23.5 65.5l11 58q3 13 4 25q1 12 1 23q0 59 -32.5 93q-32.5 34 -101.5 34q-56 0 -94.5 -24q-38.5 -24 -63 -62.5q-24.5 -38.5 -35.5 -87q-11 -48.5 -11 -97.5zt0 0zM364 760q4 -38 22.5 -59q18.5 -21 60.5 -21q42 0 70 21q28 21 48 59l50 -17q-62 -123 -181 -123q-118 0 -127 123z" />
<glyph unicode="&#260;" horiz-adv-x="671" d="M531 -239q-48 0 -69 19.5q-21 19.5 -21 50.5q0 28 12 53q12 25 31 46q19 21 42 38.5q23 17.5 46 31.5l-17 0l-28 187h-300l-107 -187h-95l410 700h99l112 -700h-19q-17 -11 -36.5 -26.5q-19.5 -15.5 -36.5 -34.5q-17 -19 -28.5 -40q-11.5 -21 -11.5 -43q0 -19 14 -29q14 -10 38 -10q35 0 66 16l-11 -52q-19 -8 -41.5 -14q-22.5 -6 -48.5 -6zt0 0zM272 265h243l-50 335z" />
<glyph unicode="&#261;" horiz-adv-x="642" d="M488 96q-32 -51 -78.5 -78.5q-46.5 -27.5 -115.5 -27.5q-92 0 -140.5 49.5q-48.5 49.5 -48.5 138.5q0 67 16 132q16 65 50.5 116q34.5 51 89.5 82.5q55 31.5 133 31.5q68 0 111.5 -31q43.5 -31 55.5 -90l39 111h66l-113 -530h-15q-17 -11 -34.5 -25q-17.5 -14 -32.5 -31q-15 -17 -24.5 -36.5q-9.5 -19.5 -9.5 -40.5q0 -37 44 -37q29 0 60 16l-10 -49q-17 -8 -36.5 -13.5q-19.5 -5.5 -44.5 -5.5q-45 0 -65.5 19.5q-20.5 19.5 -20.5 48.5q0 25 11 47.5q11 22.5 28 42q17 19.5 38 35.5q21 16 42 29l-3 0zM194 194q0 -66 35 -97.5q35 -31.5 98 -31.5q41 0 72.5 13q31.5 13 54.5 35.5q23 22.5 38.5 53q15.5 30.5 23.5 65.5l12 58q3 13 4 25q1 12 1 23q0 59 -32.5 93q-32.5 34 -101.5 34q-56 0 -94.5 -24q-38.5 -24 -63.5 -62.5q-25 -38.5 -36 -87t-11 -97.5z" />
<glyph unicode="&#262;" horiz-adv-x="644" d="M689 580q-34 25 -74.5 37.5q-40.5 12.5 -95.5 12.5q-63 0 -109 -16.5q-46 -16.5 -87 -58.5q-24 -25 -43 -60q-19 -35 -33 -75q-14 -40 -21.5 -83.5q-7.5 -43.5 -7.5 -84.5q0 -96 50.5 -139q50.5 -43 145.5 -43q59 0 108 15.5q49 15.5 79 31.5l-19 -90q-34 -14 -80.5 -25.5q-46.5 -11.5 -103.5 -11.5q-64 0 -115 14q-51 14 -87 45q-36 31 -55 79q-19 48 -19 116q0 42 9 93q9 51 27 101.5q18 50.5 45 97.5q27 47 63 82q51 48 115.5 70q64.5 22 145.5 22q64 0 108.5 -12q44.5 -12 73.5 -27zM626 915h114l-163 -150l-73 0z" />
<glyph unicode="&#263;" horiz-adv-x="548" d="M502 38q-26 -18 -72.5 -33q-46.5 -15 -105.5 -15q-103 0 -161 54.5q-58 54.5 -58 155.5q0 76 20 139q20 63 59.5 107.5q39.5 44.5 97.5 69q58 24.5 135 24.5q55 0 94.5 -10.5q39.5 -10.5 59.5 -24.5v-88q-40 17 -77 32.5q-37 15.5 -87 15.5q-104 0 -158.5 -67q-54.5 -67 -54.5 -184q0 -32 9.5 -59q9.5 -27 29 -47q19.5 -20 49.5 -31.5q30 -11.5 71 -11.5q46 0 90.5 17q44.5 17 76.5 40zM512 760h112l-153 -140l-71 0z" />
<glyph unicode="&#264;" horiz-adv-x="644" d="M689 580q-34 25 -74.5 37.5q-40.5 12.5 -95.5 12.5q-63 0 -109 -16.5q-46 -16.5 -87 -58.5q-24 -25 -43 -60q-19 -35 -33 -75q-14 -40 -21.5 -83.5q-7.5 -43.5 -7.5 -84.5q0 -96 50.5 -139q50.5 -43 145.5 -43q59 0 108 15.5q49 15.5 79 31.5l-19 -90q-34 -14 -80.5 -25.5q-46.5 -11.5 -103.5 -11.5q-64 0 -115 14q-51 14 -87 45q-36 31 -55 79q-19 48 -19 116q0 42 9 93q9 51 27 101.5q18 50.5 45 97.5q27 47 63 82q51 48 115.5 70q64.5 22 145.5 22q64 0 108.5 -12q44.5 -12 73.5 -27zM524 915h96l91 -150h-71l-75 101l-118 -101l-77 0z" />
<glyph unicode="&#265;" horiz-adv-x="548" d="M502 38q-26 -18 -72.5 -33q-46.5 -15 -105.5 -15q-103 0 -161 54.5q-58 54.5 -58 155.5q0 76 20 139q20 63 59.5 107.5q39.5 44.5 97.5 69q58 24.5 135 24.5q55 0 94.5 -10.5q39.5 -10.5 59.5 -24.5v-88q-40 17 -77 32.5q-37 15.5 -87 15.5q-104 0 -158.5 -67q-54.5 -67 -54.5 -184q0 -32 9.5 -59q9.5 -27 29 -47q19.5 -20 49.5 -31.5q30 -11.5 71 -11.5q46 0 90.5 17q44.5 17 76.5 40zM420 760h93l81 -140h-69l-65 92l-104 -92l-76 0z" />
<glyph unicode="&#266;" horiz-adv-x="644" d="M689 580q-34 25 -74.5 37.5q-40.5 12.5 -95.5 12.5q-63 0 -109 -16.5q-46 -16.5 -87 -58.5q-24 -25 -43 -60q-19 -35 -33 -75q-14 -40 -21.5 -83.5q-7.5 -43.5 -7.5 -84.5q0 -96 50.5 -139q50.5 -43 145.5 -43q59 0 108 15.5q49 15.5 79 31.5l-19 -90q-34 -14 -80.5 -25.5q-46.5 -11.5 -103.5 -11.5q-64 0 -115 14q-51 14 -87 45q-36 31 -55 79q-19 48 -19 116q0 42 9 93q9 51 27 101.5q18 50.5 45 97.5q27 47 63 82q51 48 115.5 70q64.5 22 145.5 22q64 0 108.5 -12q44.5 -12 73.5 -27zM556 786q-56 0 -56 54q0 54 56 54q56 0 56 -54q0 -54 -56 -54z" />
<glyph unicode="&#267;" horiz-adv-x="548" d="M502 38q-26 -18 -72.5 -33q-46.5 -15 -105.5 -15q-103 0 -161 54.5q-58 54.5 -58 155.5q0 76 20 139q20 63 59.5 107.5q39.5 44.5 97.5 69q58 24.5 135 24.5q55 0 94.5 -10.5q39.5 -10.5 59.5 -24.5v-88q-40 17 -77 32.5q-37 15.5 -87 15.5q-104 0 -158.5 -67q-54.5 -67 -54.5 -184q0 -32 9.5 -59q9.5 -27 29 -47q19.5 -20 49.5 -31.5q30 -11.5 71 -11.5q46 0 90.5 17q44.5 17 76.5 40zM452 638q-56 0 -56 52q0 52 56 52q55 0 55 -52q0 -52 -55 -52z" />
<glyph unicode="&#268;" horiz-adv-x="644" d="M689 580q-34 25 -74.5 37.5q-40.5 12.5 -95.5 12.5q-63 0 -109 -16.5q-46 -16.5 -87 -58.5q-24 -25 -43 -60q-19 -35 -33 -75q-14 -40 -21.5 -83.5q-7.5 -43.5 -7.5 -84.5q0 -96 50.5 -139q50.5 -43 145.5 -43q59 0 108 15.5q49 15.5 79 31.5l-19 -90q-34 -14 -80.5 -25.5q-46.5 -11.5 -103.5 -11.5q-64 0 -115 14q-51 14 -87 45q-36 31 -55 79q-19 48 -19 116q0 42 9 93q9 51 27 101.5q18 50.5 45 97.5q27 47 63 82q51 48 115.5 70q64.5 22 145.5 22q64 0 108.5 -12q44.5 -12 73.5 -27zM402 918h70l76 -102l118 102h77l-154 -150l-97 0z" />
<glyph unicode="&#269;" horiz-adv-x="548" d="M502 38q-26 -18 -72.5 -33q-46.5 -15 -105.5 -15q-103 0 -161 54.5q-58 54.5 -58 155.5q0 76 20 139q20 63 59.5 107.5q39.5 44.5 97.5 69q58 24.5 135 24.5q55 0 94.5 -10.5q39.5 -10.5 59.5 -24.5v-88q-40 17 -77 32.5q-37 15.5 -87 15.5q-104 0 -158.5 -67q-54.5 -67 -54.5 -184q0 -32 9.5 -59q9.5 -27 29 -47q19.5 -20 49.5 -31.5q30 -11.5 71 -11.5q46 0 90.5 17q44.5 17 76.5 40zM311 760h69l65 -91l104 91h75l-140 -140l-92 0z" />
<glyph unicode="&#270;" horiz-adv-x="733" d="M292 -5q-59 0 -102.5 2q-43.5 2 -83.5 5l148 697q48 3 95.5 4.5q47.5 1.5 110.5 1.5q67 0 121.5 -14.5q54.5 -14.5 93 -45.5q38.5 -31 59.5 -79q21 -48 21 -115q0 -60 -10 -115q-10 -55 -28 -102q-18 -47 -43 -85.5q-25 -38.5 -56 -63.5q-31 -26 -65.5 -43q-34.5 -17 -74 -27.5q-39.5 -10.5 -86 -15q-46.5 -4.5 -100.5 -4.5zt0 0zM212 79q26 -3 46 -3.5q20 -0.5 44 -0.5q80 0 140 12.5q60 12.5 105 50.5q49 41 80.5 117q31.5 76 31.5 185q0 52 -15.5 87.5q-15.5 35.5 -44 57q-28.5 21.5 -68.5 31q-40 9.5 -90 9.5q-32 0 -57.5 -1q-25.5 -1 -56.5 -3zM352 918h70l76 -102l118 102h77l-154 -150l-97 0z" />
<glyph unicode="&#271;" horiz-adv-x="708" d="M488 96q-31 -51 -75.5 -78.5q-44.5 -27.5 -114.5 -27.5q-96 0 -144.5 49q-48.5 49 -48.5 139q0 67 15.5 132q15.5 65 50 116q34.5 51 89.5 82.5q55 31.5 134 31.5q72 0 113 -32q41 -32 49 -87l69 329h86l-159 -750h-74zM194 194q0 -66 35 -97.5q35 -31.5 100 -31.5q40 0 71 13q31 13 54.5 35.5q23.5 22.5 38.5 53q15 30.5 22 65.5l11 57q8 39 4 71q-4 32 -19.5 55.5q-15.5 23.5 -43 36.5q-27.5 13 -67.5 13q-56 0 -95.5 -24q-39.5 -24 -64 -62.5q-24.5 -38.5 -35.5 -87q-11 -48.5 -11 -97.5zt0 0zM858 750h90l-121 -205l-65 0z" />
<glyph unicode="&#272;" horiz-adv-x="743" d="M104 395h94l65 304q48 3 95.5 4.5q47.5 1.5 110.5 1.5q67 0 121.5 -14.5q54.5 -14.5 93 -45.5q38.5 -31 59.5 -79q21 -48 21 -115q0 -60 -10 -115q-10 -55 -28 -102q-18 -47 -43 -85.5q-25 -38.5 -56 -63.5q-31 -26 -65.5 -43q-34.5 -17 -74 -27.5q-39.5 -10.5 -86 -15q-46.5 -4.5 -100.5 -4.5q-59 0 -102.5 2q-43.5 2 -83.5 5l68 323h-94zM221 79q26 -3 46 -3.5q20 -0.5 44 -0.5q80 0 140 12.5q60 12.5 105 50.5q49 41 80.5 117q31.5 76 31.5 185q0 52 -15.5 87.5q-15.5 35.5 -44 57q-28.5 21.5 -68.5 31q-40 9.5 -90 9.5q-32 0 -57.5 -1q-25.5 -1 -56.5 -3l-48 -226h184l-15 -70l-184 0z" />
<glyph unicode="&#273;" horiz-adv-x="641" d="M402 667h205l18 83h86l-19 -83h96l-14 -64h-95l-127 -603h-74l10 96q-31 -51 -75.5 -78.5q-44.5 -27.5 -114.5 -27.5q-96 0 -144.5 49q-48.5 49 -48.5 139q0 67 15.5 132q15.5 65 50 116q34.5 51 89.5 82.5q55 31.5 134 31.5q72 0 113 -32q41 -32 49 -87l37 182h-205zM194 194q0 -66 35 -97.5q35 -31.5 100 -31.5q40 0 71 13q31 13 54.5 35.5q23.5 22.5 38.5 53q15 30.5 22 65.5l11 57q8 39 4 71q-4 32 -19.5 55.5q-15.5 23.5 -43 36.5q-27.5 13 -67.5 13q-56 0 -95.5 -24q-39.5 -24 -64 -62.5q-24.5 -38.5 -35.5 -87t-11 -97.5z" />
<glyph unicode="&#274;" horiz-adv-x="602" d="M254 700h430l-17 -80h-340l-47 -223h310l-17 -77h-310l-51 -240h340l-17 -80h-430zM350 872h298v-64l-298 0z" />
<glyph unicode="&#275;" horiz-adv-x="573" d="M322 -10q-108 0 -161 55.5q-53 55.5 -53 157.5q0 72 21 134q21 62 60 107q39 45 93.5 70.5q54.5 25.5 121.5 25.5q55 0 92.5 -10.5q37.5 -10.5 60.5 -29q23 -18.5 33 -44q10 -25.5 10 -54.5q0 -76 -66.5 -116.5q-66.5 -40.5 -206.5 -40.5h-127q-2 -8 -3.5 -23q-1.5 -15 -1.5 -30q0 -60 34.5 -95q34.5 -35 113.5 -35q51 0 105.5 16.5q54.5 16.5 90.5 48.5l-16 -81q-15 -12 -37 -22q-22 -10 -48 -17.5q-26 -7.5 -56 -12q-30 -4.5 -60 -4.5zt0 0zM336 306q55 0 89.5 7q34.5 7 53.5 18.5q19 11.5 25.5 26.5q6.5 15 6.5 32q0 31 -23 54.5q-23 23.5 -84 23.5q-152 0 -192 -162zM291 720h281v-60l-281 0z" />
<glyph unicode="&#278;" horiz-adv-x="602" d="M254 700h430l-17 -80h-340l-47 -223h310l-17 -77h-310l-51 -240h340l-17 -80h-430zM498 786q-56 0 -56 54q0 54 56 54q56 0 56 -54q0 -54 -56 -54z" />
<glyph unicode="&#279;" horiz-adv-x="573" d="M322 -10q-108 0 -161 55.5q-53 55.5 -53 157.5q0 72 21 134q21 62 60 107q39 45 93.5 70.5q54.5 25.5 121.5 25.5q55 0 92.5 -10.5q37.5 -10.5 60.5 -29q23 -18.5 33 -44q10 -25.5 10 -54.5q0 -76 -66.5 -116.5q-66.5 -40.5 -206.5 -40.5h-127q-2 -8 -3.5 -23q-1.5 -15 -1.5 -30q0 -60 34.5 -95q34.5 -35 113.5 -35q51 0 105.5 16.5q54.5 16.5 90.5 48.5l-16 -81q-15 -12 -37 -22q-22 -10 -48 -17.5q-26 -7.5 -56 -12q-30 -4.5 -60 -4.5zt0 0zM336 306q55 0 89.5 7q34.5 7 53.5 18.5q19 11.5 25.5 26.5q6.5 15 6.5 32q0 31 -23 54.5q-23 23.5 -84 23.5q-152 0 -192 -162zM432 638q-56 0 -56 52q0 52 56 52q55 0 55 -52q0 -52 -55 -52z" />
<glyph unicode="&#280;" horiz-adv-x="602" d="M254 700h430l-17 -80h-340l-47 -223h310l-17 -77h-310l-51 -240h340l-17 -80h-41q-17 -11 -36.5 -26.5q-19.5 -15.5 -36.5 -34.5q-17 -19 -28.5 -40q-11.5 -21 -11.5 -43q0 -19 14 -29q14 -10 38 -10q35 0 66 16l-11 -52q-19 -8 -41.5 -14q-22.5 -6 -48.5 -6q-48 0 -69 19.5q-21 19.5 -21 50.5q0 28 12 53q12 25 31 46q19 21 42 38.5q23 17.5 46 31.5l-334 0z" />
<glyph unicode="&#281;" horiz-adv-x="573" d="M322 -10q-108 0 -161 55.5q-53 55.5 -53 157.5q0 72 21 134q21 62 60 107q39 45 93.5 70.5q54.5 25.5 121.5 25.5q55 0 92.5 -11q37.5 -11 60.5 -29.5q23 -18.5 33 -44q10 -25.5 10 -54.5q0 -76 -66.5 -117q-66.5 -41 -206.5 -41h-127q-2 -8 -3.5 -22q-1.5 -14 -1.5 -29q0 -60 34.5 -95q34.5 -35 113.5 -35q51 0 105.5 16.5q54.5 16.5 90.5 48.5l-16 -81q-21 -17 -55.5 -30q-34.5 -13 -75.5 -20q-16 -11 -32.5 -25q-16.5 -14 -30 -30.5q-13.5 -16.5 -22 -35q-8.5 -18.5 -8.5 -38.5q0 -37 44 -37q29 0 60 16l-10 -49q-17 -8 -36.5 -13.5q-19.5 -5.5 -44.5 -5.5q-45 0 -65.5 19.5q-20.5 19.5 -20.5 48.5q0 23 8.5 43.5q8.5 20.5 23 39q14.5 18.5 32.5 34q18 15.5 37 27.5zM336 304q55 0 89.5 7q34.5 7 53.5 19q19 12 25.5 27q6.5 15 6.5 32q0 15 -5 29.5q-5 14.5 -17.5 25.5q-12.5 11 -33 17.5q-20.5 6.5 -51.5 6.5q-151 0 -192 -164z" />
<glyph unicode="&#282;" horiz-adv-x="602" d="M254 700h430l-17 -80h-340l-47 -223h310l-17 -77h-310l-51 -240h340l-17 -80h-430zM344 918h70l76 -102l118 102h77l-154 -150l-97 0z" />
<glyph unicode="&#283;" horiz-adv-x="573" d="M322 -10q-108 0 -161 55.5q-53 55.5 -53 157.5q0 72 21 134q21 62 60 107q39 45 93.5 70.5q54.5 25.5 121.5 25.5q55 0 92.5 -10.5q37.5 -10.5 60.5 -29q23 -18.5 33 -44q10 -25.5 10 -54.5q0 -76 -66.5 -116.5q-66.5 -40.5 -206.5 -40.5h-127q-2 -8 -3.5 -23q-1.5 -15 -1.5 -30q0 -60 34.5 -95q34.5 -35 113.5 -35q51 0 105.5 16.5q54.5 16.5 90.5 48.5l-16 -81q-15 -12 -37 -22q-22 -10 -48 -17.5q-26 -7.5 -56 -12q-30 -4.5 -60 -4.5zt0 0zM336 306q55 0 89.5 7q34.5 7 53.5 18.5q19 11.5 25.5 26.5q6.5 15 6.5 32q0 31 -23 54.5q-23 23.5 -84 23.5q-152 0 -192 -162zM290 760h69l65 -91l104 91h75l-140 -140l-92 0z" />
<glyph unicode="&#284;" horiz-adv-x="691" d="M414 -10q-66 0 -120 15q-54 15 -91.5 47.5q-37.5 32.5 -58 82q-20.5 49.5 -20.5 118.5q0 55 12.5 112q12.5 57 34.5 108.5q22 51.5 51.5 93.5q29.5 42 63.5 69q26 21 54 35q28 14 60 22.5q32 8.5 69 12.5q37 4 81 4q28 0 55 -4q27 -4 49.5 -10q22.5 -6 40.5 -12.5q18 -6.5 30 -12.5l-19 -92q-13 9 -32 18.5q-19 9.5 -41.5 16.5q-22.5 7 -47 11.5q-24.5 4.5 -49.5 4.5q-30 0 -55.5 -2.5q-25.5 -2.5 -48 -8.5q-22.5 -6 -44 -16.5q-21.5 -10.5 -42.5 -27.5q-28 -22 -51 -57q-23 -35 -39.5 -77.5q-16.5 -42.5 -26 -88.5q-9.5 -46 -9.5 -91q0 -54 14.5 -91q14.5 -37 41.5 -59q27 -22 66 -31.5q39 -9.5 89 -9.5q35 0 69.5 6.5q34.5 6.5 60.5 16.5l40 190h-152l16 77h235l-69 -324q-15 -7 -37.5 -15q-22.5 -8 -50 -15q-27.5 -7 -60.5 -11.5q-33 -4.5 -69 -4.5zt0 0zM535 915h96l91 -150h-71l-75 101l-118 -101l-77 0z" />
<glyph unicode="&#285;" horiz-adv-x="638" d="M260 -190q-65 0 -110 12.5q-45 12.5 -71 26.5l20 93q18 -19 62.5 -38q44.5 -19 110.5 -19q93 0 138.5 35.5q45.5 35.5 60.5 107.5l19 92q-31 -51 -74.5 -80.5q-43.5 -29.5 -114.5 -29.5q-95 0 -143.5 46.5q-48.5 46.5 -48.5 140.5q0 64 15 126q15 62 48.5 110q33.5 48 87.5 77.5q54 29.5 132 29.5q72 0 114 -34q42 -34 50 -89l38 113h66l-105 -497q-13 -61 -38 -103.5q-25 -42.5 -61.5 -69q-36.5 -26.5 -85.5 -38.5q-49 -12 -110 -12zt0 0zM332 85q41 0 73 13.5q32 13.5 54.5 36q22.5 22.5 37 51.5q14.5 29 20.5 61l9 44q16 78 -16 126q-32 48 -111 48q-56 0 -94 -21q-38 -21 -61.5 -56.5q-23.5 -35.5 -33.5 -80.5q-10 -45 -10 -93q0 -67 33 -98q33 -31 99 -31zt0 0zM416 760h93l81 -140h-69l-65 92l-104 -92l-76 0z" />
<glyph unicode="&#286;" horiz-adv-x="691" d="M414 -10q-66 0 -120 15q-54 15 -91.5 47.5q-37.5 32.5 -58 82q-20.5 49.5 -20.5 118.5q0 55 12.5 112q12.5 57 34.5 108.5q22 51.5 51.5 93.5q29.5 42 63.5 69q26 21 54 35q28 14 60 22.5q32 8.5 69 12.5q37 4 81 4q28 0 55 -4q27 -4 49.5 -10q22.5 -6 40.5 -12.5q18 -6.5 30 -12.5l-19 -92q-13 9 -32 18.5q-19 9.5 -41.5 16.5q-22.5 7 -47 11.5q-24.5 4.5 -49.5 4.5q-30 0 -55.5 -2.5q-25.5 -2.5 -48 -8.5q-22.5 -6 -44 -16.5q-21.5 -10.5 -42.5 -27.5q-28 -22 -51 -57q-23 -35 -39.5 -77.5q-16.5 -42.5 -26 -88.5q-9.5 -46 -9.5 -91q0 -54 14.5 -91q14.5 -37 41.5 -59q27 -22 66 -31.5q39 -9.5 89 -9.5q35 0 69.5 6.5q34.5 6.5 60.5 16.5l40 190h-152l16 77h235l-69 -324q-15 -7 -37.5 -15q-22.5 -8 -50 -15q-27.5 -7 -60.5 -11.5q-33 -4.5 -69 -4.5zt0 0zM482 910q4 -38 22 -58.5q18 -20.5 60 -20.5q42 0 69 20.5q27 20.5 47 58.5l52 -16q-61 -124 -181 -124q-120 0 -128 124z" />
<glyph unicode="&#287;" horiz-adv-x="638" d="M260 -190q-65 0 -110 12.5q-45 12.5 -71 26.5l20 93q18 -19 62.5 -38q44.5 -19 110.5 -19q93 0 138.5 35.5q45.5 35.5 60.5 107.5l19 92q-31 -51 -74.5 -80.5q-43.5 -29.5 -114.5 -29.5q-95 0 -143.5 46.5q-48.5 46.5 -48.5 140.5q0 64 15 126q15 62 48.5 110q33.5 48 87.5 77.5q54 29.5 132 29.5q72 0 114 -34q42 -34 50 -89l38 113h66l-105 -497q-13 -61 -38 -103.5q-25 -42.5 -61.5 -69q-36.5 -26.5 -85.5 -38.5q-49 -12 -110 -12zt0 0zM332 85q41 0 73 13.5q32 13.5 54.5 36q22.5 22.5 37 51.5q14.5 29 20.5 61l9 44q16 78 -16 126q-32 48 -111 48q-56 0 -94 -21q-38 -21 -61.5 -56.5q-23.5 -35.5 -33.5 -80.5q-10 -45 -10 -93q0 -67 33 -98q33 -31 99 -31zt0 0zM361 760q4 -38 22.5 -59q18.5 -21 60.5 -21q42 0 70 21q28 21 48 59l50 -17q-62 -123 -181 -123q-118 0 -127 123z" />
<glyph unicode="&#288;" horiz-adv-x="691" d="M414 -10q-66 0 -120 15q-54 15 -91.5 47.5q-37.5 32.5 -58 82q-20.5 49.5 -20.5 118.5q0 55 12.5 112q12.5 57 34.5 108.5q22 51.5 51.5 93.5q29.5 42 63.5 69q26 21 54 35q28 14 60 22.5q32 8.5 69 12.5q37 4 81 4q28 0 55 -4q27 -4 49.5 -10q22.5 -6 40.5 -12.5q18 -6.5 30 -12.5l-19 -92q-13 9 -32 18.5q-19 9.5 -41.5 16.5q-22.5 7 -47 11.5q-24.5 4.5 -49.5 4.5q-30 0 -55.5 -2.5q-25.5 -2.5 -48 -8.5q-22.5 -6 -44 -16.5q-21.5 -10.5 -42.5 -27.5q-28 -22 -51 -57q-23 -35 -39.5 -77.5q-16.5 -42.5 -26 -88.5q-9.5 -46 -9.5 -91q0 -54 14.5 -91q14.5 -37 41.5 -59q27 -22 66 -31.5q39 -9.5 89 -9.5q35 0 69.5 6.5q34.5 6.5 60.5 16.5l40 190h-152l16 77h235l-69 -324q-15 -7 -37.5 -15q-22.5 -8 -50 -15q-27.5 -7 -60.5 -11.5q-33 -4.5 -69 -4.5zt0 0zM566 786q-56 0 -56 54q0 54 56 54q56 0 56 -54q0 -54 -56 -54z" />
<glyph unicode="&#289;" horiz-adv-x="638" d="M260 -190q-65 0 -110 12.5q-45 12.5 -71 26.5l20 93q18 -19 62.5 -38q44.5 -19 110.5 -19q93 0 138.5 35.5q45.5 35.5 60.5 107.5l19 92q-31 -51 -74.5 -80.5q-43.5 -29.5 -114.5 -29.5q-95 0 -143.5 46.5q-48.5 46.5 -48.5 140.5q0 64 15 126q15 62 48.5 110q33.5 48 87.5 77.5q54 29.5 132 29.5q72 0 114 -34q42 -34 50 -89l38 113h66l-105 -497q-13 -61 -38 -103.5q-25 -42.5 -61.5 -69q-36.5 -26.5 -85.5 -38.5q-49 -12 -110 -12zt0 0zM332 85q41 0 73 13.5q32 13.5 54.5 36q22.5 22.5 37 51.5q14.5 29 20.5 61l9 44q16 78 -16 126q-32 48 -111 48q-56 0 -94 -21q-38 -21 -61.5 -56.5q-23.5 -35.5 -33.5 -80.5q-10 -45 -10 -93q0 -67 33 -98q33 -31 99 -31zt0 0zM448 638q-56 0 -56 52q0 52 56 52q55 0 55 -52q0 -52 -55 -52z" />
<glyph unicode="&#290;" horiz-adv-x="691" d="M414 -10q-66 0 -120 15q-54 15 -91.5 47.5q-37.5 32.5 -58 82q-20.5 49.5 -20.5 118.5q0 55 12.5 112q12.5 57 34.5 108.5q22 51.5 51.5 93.5q29.5 42 63.5 69q26 21 54 35q28 14 60 22.5q32 8.5 69 12.5q37 4 81 4q28 0 55 -4q27 -4 49.5 -10q22.5 -6 40.5 -12.5q18 -6.5 30 -12.5l-19 -92q-13 9 -32 18.5q-19 9.5 -41.5 16.5q-22.5 7 -47 11.5q-24.5 4.5 -49.5 4.5q-30 0 -55.5 -2.5q-25.5 -2.5 -48 -8.5q-22.5 -6 -44 -16.5q-21.5 -10.5 -42.5 -27.5q-28 -22 -51 -57q-23 -35 -39.5 -77.5q-16.5 -42.5 -26 -88.5q-9.5 -46 -9.5 -91q0 -54 14.5 -91q14.5 -37 41.5 -59q27 -22 66 -31.5q39 -9.5 89 -9.5q35 0 69.5 6.5q34.5 6.5 60.5 16.5l40 190h-152l16 77h235l-69 -324q-15 -7 -37.5 -15q-22.5 -8 -50 -15q-27.5 -7 -60.5 -11.5q-33 -4.5 -69 -4.5zt0 0zM290 -196q29 7 48 19.5q19 12.5 27 39.5l-12 0q-50 0 -50 35q0 28 20.5 40.5q20.5 12.5 52.5 12.5q23 0 38 -11q15 -11 15 -36q0 -25 -11 -48.5q-11 -23.5 -31 -42.5q-20 -19 -47 -32q-27 -13 -58 -17z" />
<glyph unicode="&#291;" horiz-adv-x="638" d="M260 -190q-65 0 -110 12.5q-45 12.5 -71 26.5l20 93q18 -19 62.5 -38q44.5 -19 110.5 -19q93 0 138.5 35.5q45.5 35.5 60.5 107.5l19 92q-31 -51 -74.5 -80.5q-43.5 -29.5 -114.5 -29.5q-95 0 -143.5 46.5q-48.5 46.5 -48.5 140.5q0 64 15 126q15 62 48.5 110q33.5 48 87.5 77.5q54 29.5 132 29.5q72 0 114 -34q42 -34 50 -89l38 113h66l-105 -497q-13 -61 -38 -103.5q-25 -42.5 -61.5 -69q-36.5 -26.5 -85.5 -38.5q-49 -12 -110 -12zt0 0zM332 85q41 0 73 13.5q32 13.5 54.5 36q22.5 22.5 37 51.5q14.5 29 20.5 61l9 44q16 78 -16 126q-32 48 -111 48q-56 0 -94 -21q-38 -21 -61.5 -56.5q-23.5 -35.5 -33.5 -80.5q-10 -45 -10 -93q0 -67 33 -98q33 -31 99 -31zt0 0zM524 780q-26 -7 -47 -21q-21 -14 -29 -41q5 1 9 1q4 0 7 0q20 0 32 -9q12 -9 12 -26q0 -26 -21.5 -38.5q-21.5 -12.5 -50.5 -12.5q-23 0 -37 11q-14 11 -14 37q0 27 12.5 50.5q12.5 23.5 33 41q20.5 17.5 45.5 29q25 11.5 49 15.5z" />
<glyph unicode="&#292;" horiz-adv-x="771" d="M254 700h90l-64 -300h381l64 300h90l-149 -700h-90l67 320h-380l-68 -320h-90zM532 915h96l91 -150h-71l-75 101l-118 -101l-77 0z" />
<glyph unicode="&#293;" horiz-adv-x="625" d="M250 750h85l-67 -316q34 51 82.5 78.5q48.5 27.5 120.5 27.5q81 0 118 -29.5q37 -29.5 37 -92.5q0 -31 -9 -71l-73 -347h-87l70 330q3 15 4.5 29.5q1.5 14.5 1.5 25.5q0 45 -26.5 62.5q-26.5 17.5 -83.5 17.5q-77 0 -122 -42.5q-45 -42.5 -58 -106.5l-67 -316h-86zM281 920h93l81 -140h-69l-65 92l-104 -92l-76 0z" />
<glyph unicode="&#294;" horiz-adv-x="805" d="M152 585h94l25 115h90l-25 -115h381l25 115h90l-25 -115h95l-15 -70h-95l-109 -515h-90l67 320h-380l-68 -320h-90l109 515h-94zM678 400l24 115h-381l-24 -115z" />
<glyph unicode="&#295;" horiz-adv-x="625" d="M138 667h94l18 83h85l-18 -83h207l-14 -64h-206l-36 -169q34 51 82.5 78.5q48.5 27.5 120.5 27.5q81 0 118 -29.5q37 -29.5 37 -92.5q0 -31 -9 -71l-73 -347h-87l70 330q3 15 4.5 29.5q1.5 14.5 1.5 25.5q0 45 -26.5 62.5q-26.5 17.5 -83.5 17.5q-77 0 -122 -42.5q-45 -42.5 -58 -106.5l-67 -316h-86l129 603l-95 0z" />
<glyph unicode="&#298;" horiz-adv-x="310" d="M259 700h90l-149 -700h-90zM186 872h298v-64l-298 0z" />
<glyph unicode="&#299;" horiz-adv-x="291" d="M102 0l113 530h86l-113 -530zM151 720h281v-60l-281 0z" />
<glyph unicode="&#302;" horiz-adv-x="310" d="M259 700h90l-149 -700h-19q-17 -11 -36.5 -26.5q-19.5 -15.5 -36.5 -34.5q-17 -19 -28.5 -40q-11.5 -21 -11.5 -43q0 -19 14 -29q14 -10 38 -10q35 0 66 16l-11 -52q-19 -8 -41.5 -14q-22.5 -6 -48.5 -6q-48 0 -69 19.5q-21 19.5 -21 50.5q0 28 12 53q12 25 31 46q19 21 42 38.5q23 17.5 46 31.5l-16 0z" />
<glyph unicode="&#303;" horiz-adv-x="291" d="M84 -222q-45 0 -65.5 19.5q-20.5 19.5 -20.5 48.5q0 25 11 47.5q11 22.5 28 42q17 19.5 38 35.5q21 16 42 29l-15 0l113 530h86l-113 -530h-16q-17 -11 -34.5 -25q-17.5 -14 -32.5 -31q-15 -17 -24.5 -36.5q-9.5 -19.5 -9.5 -40.5q0 -37 44 -37q29 0 60 16l-10 -49q-17 -8 -36.5 -13.5q-19.5 -5.5 -44.5 -5.5zt0 0zM292 633q-56 0 -56 52q0 52 56 52q55 0 55 -52q0 -52 -55 -52z" />
<glyph unicode="&#304;" horiz-adv-x="310" d="M259 700h90l-149 -700h-90zM332 786q-56 0 -56 54q0 54 56 54q56 0 56 -54q0 -54 -56 -54z" />
<glyph unicode="&#305;" horiz-adv-x="291" d="M102 0l113 530h86l-113 -530z" />
<glyph unicode="&#308;" horiz-adv-x="408" d="M131 -5q-28 0 -55 6q-27 6 -50 19l18 85q24 -17 45 -23.5q21 -6.5 47 -6.5q51 0 77 25q26 25 40 88l109 512h90l-111 -525q-20 -96 -69.5 -138q-49.5 -42 -140.5 -42zt0 0zM404 915h96l91 -150h-71l-75 101l-118 -101l-77 0z" />
<glyph unicode="&#309;" horiz-adv-x="291" d="M-50 -93q22 -14 63 -14q36 0 55.5 18q19.5 18 28.5 62l118 557h86l-118 -556q-18 -85 -60 -122q-42 -37 -119 -37q-51 0 -71 10zM260 760h93l81 -140h-69l-65 92l-104 -92l-76 0z" />
<glyph unicode="&#310;" horiz-adv-x="693" d="M332 319h-69l-68 -319h-90l149 700h90l-64 -301h57l330 301h114l-378 -340l263 -360h-102zM286 -196q29 7 48 19.5q19 12.5 27 39.5l-12 0q-50 0 -50 35q0 28 20.5 40.5q20.5 12.5 52.5 12.5q23 0 38 -11q15 -11 15 -36q0 -25 -11 -48.5q-11 -23.5 -31 -42.5q-20 -19 -47 -32q-27 -13 -58 -17z" />
<glyph unicode="&#311;" horiz-adv-x="566" d="M249 750h86l-92 -437h41l237 217h109l-279 -259l188 -271h-104l-168 238h-40l-51 -238h-86zM193 -196q26 7 47 21q21 14 29 41q-5 -1 -9 -1q-4 0 -7 0q-20 0 -32 9q-12 9 -12 26q0 26 21.5 38.5q21.5 12.5 50.5 12.5q23 0 37 -11q14 -11 14 -37q0 -27 -12.5 -50.5q-12.5 -23.5 -33 -41q-20.5 -17.5 -45.5 -29q-25 -11.5 -49 -15.5z" />
<glyph unicode="&#313;" horiz-adv-x="563" d="M254 700h90l-132 -620h335l-16 -80h-426zM398 915h114l-163 -150l-73 0z" />
<glyph unicode="&#314;" horiz-adv-x="327" d="M220 -5q-54 0 -82 18.5q-28 18.5 -28 63.5q0 9 1.5 19.5q1.5 10.5 3.5 22.5l135 631h86l-130 -611q-4 -16 -4 -30q0 -23 12 -31q12 -8 41 -8q28 0 64 14l-16 -73q-12 -5 -34 -10.5q-22 -5.5 -49 -5.5zt0 0zM372 917h112l-153 -140l-71 0z" />
<glyph unicode="&#315;" horiz-adv-x="563" d="M254 700h90l-132 -620h335l-16 -80h-426zM220 -196q29 7 48 19.5q19 12.5 27 39.5l-12 0q-50 0 -50 35q0 28 20.5 40.5q20.5 12.5 52.5 12.5q23 0 38 -11q15 -11 15 -36q0 -25 -11 -48.5q-11 -23.5 -31 -42.5q-20 -19 -47 -32q-27 -13 -58 -17z" />
<glyph unicode="&#316;" horiz-adv-x="327" d="M220 -5q-54 0 -82 18.5q-28 18.5 -28 63.5q0 9 1.5 19.5q1.5 10.5 3.5 22.5l135 631h86l-130 -611q-4 -16 -4 -30q0 -23 12 -31q12 -8 41 -8q28 0 64 14l-16 -73q-12 -5 -34 -10.5q-22 -5.5 -49 -5.5zt0 0zM94 -196q26 7 47 21q21 14 29 41q-5 -1 -9 -1q-4 0 -7 0q-20 0 -32 9q-12 9 -12 26q0 26 21.5 38.5q21.5 12.5 50.5 12.5q23 0 37 -11q14 -11 14 -37q0 -27 -12.5 -50.5q-12.5 -23.5 -33 -41q-20.5 -17.5 -45.5 -29q-25 -11.5 -49 -15.5z" />
<glyph unicode="&#317;" horiz-adv-x="563" d="M254 700h90l-132 -620h335l-16 -80h-426zM490 700h90l-121 -205l-65 0z" />
<glyph unicode="&#318;" horiz-adv-x="332" d="M220 -5q-54 0 -82 18.5q-28 18.5 -28 63.5q0 9 1.5 19.5q1.5 10.5 3.5 22.5l135 631h86l-130 -611q-4 -16 -4 -30q0 -23 12 -31q12 -8 41 -8q28 0 64 14l-16 -73q-12 -5 -34 -10.5q-22 -5.5 -49 -5.5zt0 0zM482 750h90l-121 -205l-65 0z" />
<glyph unicode="&#319;" horiz-adv-x="563" d="M254 700h90l-132 -620h335l-16 -80h-426zM512 316q-64 0 -64 63q0 62 64 62q63 0 63 -62q0 -63 -63 -63z" />
<glyph unicode="&#320;" horiz-adv-x="362" d="M220 -5q-54 0 -82 18.5q-28 18.5 -28 63.5q0 9 1.5 19.5q1.5 10.5 3.5 22.5l135 631h86l-130 -611q-4 -16 -4 -30q0 -23 12 -31q12 -8 41 -8q28 0 64 14l-16 -73q-12 -5 -34 -10.5q-22 -5.5 -49 -5.5zt0 0zM397 318q-64 0 -64 63q0 62 64 62q63 0 63 -62q0 -63 -63 -63z" />
<glyph unicode="&#321;" horiz-adv-x="581" d="M101 342l107 55l64 303h90l-53 -251l177 91l-16 -78l-178 -92l-62 -290h335l-16 -80h-426l68 318l-107 -55z" />
<glyph unicode="&#322;" horiz-adv-x="365" d="M106 371l112 57l68 322h86l-57 -272l121 62l-16 -75l-121 -63l-56 -263q-4 -16 -4 -30q0 -23 12 -31q12 -8 41 -8q28 0 64 14l-16 -73q-12 -5 -34 -10.5q-22 -5.5 -49 -5.5q-54 0 -82 18.5q-28 18.5 -28 63.5q0 9 1.5 19.5q1.5 10.5 3.5 22.5l50 233l-112 -57z" />
<glyph unicode="&#323;" horiz-adv-x="764" d="M254 700h92l208 -469q13 -29 24 -55q11 -26 22 -58q5 32 8.5 58q3.5 26 9.5 55l100 469h90l-149 -700h-92l-208 468q-14 30 -24 55.5q-10 25.5 -21 58.5q-5 -33 -9 -58.5q-4 -25.5 -10 -55.5l-99 -468h-91zM629 915h114l-163 -150l-73 0z" />
<glyph unicode="&#324;" horiz-adv-x="625" d="M203 530h73l-8 -94q35 54 85 79q50 25 116 25q77 0 117 -27q40 -27 40 -95q0 -32 -9 -74l-73 -344h-87l69 322q7 35 7 64q0 45 -26 62q-26 17 -84 17q-74 0 -120 -40q-46 -40 -61 -111l-66 -314h-86zM525 760h112l-153 -140l-71 0z" />
<glyph unicode="&#325;" horiz-adv-x="764" d="M254 700h92l208 -469q13 -29 24 -55q11 -26 22 -58q5 32 8.5 58q3.5 26 9.5 55l100 469h90l-149 -700h-92l-208 468q-14 30 -24 55.5q-10 25.5 -21 58.5q-5 -33 -9 -58.5q-4 -25.5 -10 -55.5l-99 -468h-91zM283 -196q29 7 48 19.5q19 12.5 27 39.5l-12 0q-50 0 -50 35q0 28 20.5 40.5q20.5 12.5 52.5 12.5q23 0 38 -11q15 -11 15 -36q0 -25 -11 -48.5q-11 -23.5 -31 -42.5q-20 -19 -47 -32q-27 -13 -58 -17z" />
<glyph unicode="&#326;" horiz-adv-x="625" d="M203 530h73l-8 -94q35 54 85 79q50 25 116 25q77 0 117 -27q40 -27 40 -95q0 -32 -9 -74l-73 -344h-87l69 322q7 35 7 64q0 45 -26 62q-26 17 -84 17q-74 0 -120 -40q-46 -40 -61 -111l-66 -314h-86zM218 -196q26 7 47 21q21 14 29 41q-5 -1 -9 -1q-4 0 -7 0q-20 0 -32 9q-12 9 -12 26q0 26 21.5 38.5q21.5 12.5 50.5 12.5q23 0 37 -11q14 -11 14 -37q0 -27 -12.5 -50.5q-12.5 -23.5 -33 -41q-20.5 -17.5 -45.5 -29q-25 -11.5 -49 -15.5z" />
<glyph unicode="&#327;" horiz-adv-x="764" d="M254 700h92l208 -469q13 -29 24 -55q11 -26 22 -58q5 32 8.5 58q3.5 26 9.5 55l100 469h90l-149 -700h-92l-208 468q-14 30 -24 55.5q-10 25.5 -21 58.5q-5 -33 -9 -58.5q-4 -25.5 -10 -55.5l-99 -468h-91zM406 918h70l76 -102l118 102h77l-154 -150l-97 0z" />
<glyph unicode="&#328;" horiz-adv-x="625" d="M203 530h73l-8 -94q35 54 85 79q50 25 116 25q77 0 117 -27q40 -27 40 -95q0 -32 -9 -74l-73 -344h-87l69 322q7 35 7 64q0 45 -26 62q-26 17 -84 17q-74 0 -120 -40q-46 -40 -61 -111l-66 -314h-86zM321 760h69l65 -91l104 91h75l-140 -140l-92 0z" />
<glyph unicode="&#332;" horiz-adv-x="773" d="M397 -10q-63 0 -113 18q-50 18 -85 52.5q-35 34.5 -54 84q-19 49.5 -19 112.5q0 49 9.5 102q9.5 53 28.5 103.5q19 50.5 48 94.5q29 44 68 77q54 45 114.5 60.5q60.5 15.5 134.5 15.5q128 0 197 -69q69 -69 69 -197q0 -56 -11 -111.5q-11 -55.5 -30.5 -106q-19.5 -50.5 -48 -92q-28.5 -41.5 -62.5 -68.5q-55 -43 -116 -59.5q-61 -16.5 -130 -16.5zt0 0zM411 70q60 0 103.5 15.5q43.5 15.5 77.5 48.5q27 27 47 62q20 35 33.5 75q13.5 40 20 81.5q6.5 41.5 6.5 80.5q0 97 -45.5 147q-45.5 50 -144.5 50q-50 0 -88.5 -11q-38.5 -11 -73.5 -39q-33 -26 -56.5 -64q-23.5 -38 -38.5 -80.5q-15 -42.5 -22.5 -87q-7.5 -44.5 -7.5 -83.5q0 -94 47 -144.5q47 -50.5 142 -50.5zt0 0zM416 872h298v-64l-298 0z" />
<glyph unicode="&#333;" horiz-adv-x="616" d="M105 194q0 78 21 142q21 64 60.5 109.5q39.5 45.5 96.5 70q57 24.5 130 24.5q45 0 82.5 -12.5q37.5 -12.5 65.5 -37.5q28 -25 43.5 -63q15.5 -38 15.5 -88q0 -80 -19 -144q-19 -64 -56 -110q-37 -46 -90.5 -70.5q-53.5 -24.5 -123.5 -24.5q-57 0 -99.5 15q-42.5 15 -70.5 42q-28 27 -42 64.5q-14 37.5 -14 82.5zt0 0zM194 210q0 -66 32.5 -105.5q32.5 -39.5 110.5 -39.5q50 0 86.5 21q36.5 21 60.5 57q24 36 35.5 83q11.5 47 11.5 98q0 69 -30.5 105q-30.5 36 -96.5 36q-48 0 -87 -18.5q-39 -18.5 -66 -52q-27 -33.5 -42 -80.5q-15 -47 -15 -104zt0 0zM312 720h281v-60l-281 0z" />
</font>
</defs>
</svg>
