<?xml version="1.0" encoding="UTF-8" standalone="no"?>
<!DOCTYPE svg PUBLIC "-//W3C//DTD SVG 1.1//EN" "http://www.w3.org/Graphics/SVG/1.1/DTD/svg11.dtd" >
<svg xmlns="http://www.w3.org/2000/svg">
<metadata>
Generated by SVGconv.
Copyright   : Copyright (c) 2018 ParaType Inc., ParaType Ltd. All rights reserved.
Designer    : ParaType Ltd
Foundry     : ParaType Ltd
Foundry URL : http://www.paratype.com
</metadata>
<defs>
<font id="SBSansText-SemiboldItalic" horiz-adv-x="608" >
<font-face units-per-em="1000" ascent="982" descent="272" >
<font-face-src>
<font-face-name/>
</font-face-src>
</font-face>
<missing-glyph horiz-adv-x="322" />
<glyph unicode="&#13;" horiz-adv-x="250" />
<glyph unicode="&#32;" horiz-adv-x="275" />
<glyph unicode="&#33;" horiz-adv-x="394" d="M274 700h144l-112 -470h-119zM213 -6q-85 0 -85 83q0 83 85 83q85 0 85 -83q0 -83 -85 -83z" />
<glyph unicode="&#34;" horiz-adv-x="531" d="M200 426l58 274h102l-58 -274zM411 426l58 274h102l-58 -274z" />
<glyph unicode="&#35;" horiz-adv-x="689" d="M454 188h-139l-40 -188h-102l40 188h-112l20 93h112l29 137h-112l20 93h112l40 189h102l-40 -189h139l40 189h101l-40 -189h113l-20 -93h-113l-29 -137h113l-20 -93h-113l-40 -188h-101zM335 281h139l29 137l-139 0z" />
<glyph unicode="&#36;" horiz-adv-x="618" d="M259 -10q-26 3 -52.5 8q-26.5 5 -51 12.5q-24.5 7.5 -45 16.5q-20.5 9 -35.5 19l29 135q37 -38 92 -59.5q55 -21.5 115 -21.5q75 0 114.5 25.5q39.5 25.5 39.5 74.5q0 33 -22 52.5q-22 19.5 -55 34q-33 14.5 -71.5 28.5q-38.5 14 -71.5 35.5q-33 21.5 -55 54.5q-22 33 -22 85q0 46 17 85q17 39 49 67.5q32 28.5 77.5 46q45.5 17.5 101.5 22.5l19 89h103l-19 -91q46 -5 87.5 -16.5q41.5 -11.5 67.5 -25.5l-28 -133q-35 29 -84.5 47.5q-49.5 18.5 -104.5 18.5q-142 0 -142 -84q0 -33 22 -53.5q22 -20.5 55 -36q33 -15.5 71 -30q38 -14.5 71 -36.5q33 -22 55 -54.5q22 -32.5 22 -84.5q0 -101 -64 -160.5q-64 -59.5 -182 -70.5l-24 -110l-103 0z" />
<glyph unicode="&#37;" horiz-adv-x="933" d="M689 -6q-32 0 -60.5 8q-28.5 8 -49.5 25q-21 17 -33.5 42q-12.5 25 -12.5 60q0 48 17 86.5q17 38.5 46.5 64.5q29.5 26 69.5 40q40 14 87 14q32 0 59.5 -8q27.5 -8 48 -24.5q20.5 -16.5 32.5 -41.5q12 -25 12 -59q0 -48 -16 -86.5q-16 -38.5 -45 -65q-29 -26.5 -68.5 -41q-39.5 -14.5 -86.5 -14.5zt0 0zM702 73q54 0 81.5 31q27.5 31 27.5 82q0 34 -18.5 51.5q-18.5 17.5 -53.5 17.5q-54 0 -83 -30.5q-29 -30.5 -29 -82.5q0 -33 20 -51q20 -18 55 -18zt0 0zM332 366q-32 0 -60.5 8q-28.5 8 -49.5 25q-21 17 -33.5 42q-12.5 25 -12.5 60q0 48 17 86.5q17 38.5 46.5 64.5q29.5 26 69.5 40q40 14 87 14q32 0 59.5 -8q27.5 -8 48 -24.5q20.5 -16.5 32.5 -41.5q12 -25 12 -59q0 -48 -16 -86.5q-16 -38.5 -45 -65q-29 -26.5 -68.5 -41q-39.5 -14.5 -86.5 -14.5zt0 0zM345 445q54 0 81.5 31q27.5 31 27.5 82q0 34 -18.5 51.5q-18.5 17.5 -53.5 17.5q-54 0 -83 -30.5q-29 -30.5 -29 -82.5q0 -33 20 -51q20 -18 55 -18zt0 0zM173 0l625 700h110l-625 -700z" />
<glyph unicode="&#38;" horiz-adv-x="864" d="M785 -12q-55 4 -108 25q-53 21 -95 58q-52 -44 -113 -63.5q-61 -19.5 -133 -19.5q-50 0 -90 15q-40 15 -67.5 42q-27.5 27 -42.5 64q-15 37 -15 80q0 44 15.5 80q15.5 36 43 64q27.5 28 66 48q38.5 20 83.5 32q-11 26 -16 53.5q-5 27.5 -5 51.5q0 96 56 145q56 49 156 49q42 0 72.5 -10.5q30.5 -10.5 50.5 -28.5q20 -18 29.5 -42q9.5 -24 9.5 -51q0 -44 -19 -76.5q-19 -32.5 -50.5 -57q-31.5 -24.5 -72 -42q-40.5 -17.5 -84.5 -30.5q25 -54 57 -98q32 -44 82 -83q60 50 101.5 127q41.5 77 59.5 166l113 0q-9 -47 -27.5 -94.5q-18.5 -47.5 -44 -92q-25.5 -44.5 -56.5 -84q-31 -39.5 -65 -69.5q27 -18 64 -28.5q37 -10.5 70 -13.5zM249 200q0 -51 31.5 -80q31.5 -29 89.5 -29q80 0 139 41q-51 42 -88 93.5q-37 51.5 -60 108.5q-55 -14 -83.5 -48.5q-28.5 -34.5 -28.5 -85.5zt0 0zM413 523q0 -17 3.5 -36.5q3.5 -19.5 9.5 -33.5q31 10 57.5 21q26.5 11 45.5 24q19 13 29.5 29.5q10.5 16.5 10.5 39.5q0 22 -15 37q-15 15 -48 15q-48 0 -70.5 -24t-22.5 -72z" />
<glyph unicode="&#39;" horiz-adv-x="320" d="M200 426l58 274h102l-58 -274z" />
<glyph unicode="&#40;" horiz-adv-x="381" d="M263 -192q-26 23 -52 59.5q-26 36.5 -47 84q-21 47.5 -34 104.5q-13 57 -13 120q0 91 25.5 177.5q25.5 86.5 70.5 164q45 77.5 106 142q61 64.5 132 112.5l56 -60q-51 -44 -100 -101.5q-49 -57.5 -87 -125.5q-38 -68 -61 -146q-23 -78 -23 -163q0 -51 7.5 -97.5q7.5 -46.5 20.5 -86.5q13 -40 29 -73q16 -33 33 -56l-63 -55z" />
<glyph unicode="&#41;" horiz-adv-x="381" d="M240 772q25 -23 51 -59.5q26 -36.5 47 -84.5q21 -48 34.5 -105q13.5 -57 13.5 -120q0 -91 -26 -177.5q-26 -86.5 -71 -163.5q-45 -77 -106 -141.5q-61 -64.5 -131 -112.5l-56 60q51 44 100 101.5q49 57.5 87 125.5q38 68 61 145.5q23 77.5 23 162.5q0 51 -7.5 97.5q-7.5 46.5 -20.5 87q-13 40.5 -29 73.5q-16 33 -33 56l63 55z" />
<glyph unicode="&#42;" horiz-adv-x="551" d="M327 479l-148 33l30 99l141 -62l-17 151h102l-16 -151l140 62l29 -99l-147 -33l104 -113l-83 -57l-78 130l-78 -130l-83 57z" />
<glyph unicode="&#43;" horiz-adv-x="618" d="M323 272h-169v110h169v169h110v-169h169v-110h-169v-169l-110 0z" />
<glyph unicode="&#44;" horiz-adv-x="345" d="M37 -106q46 8 82.5 35q36.5 27 50.5 65q-34 0 -52.5 20.5q-18.5 20.5 -18.5 57.5q0 88 94 88q39 0 62.5 -23.5q23.5 -23.5 23.5 -64.5q0 -44 -14 -84.5q-14 -40.5 -40 -73.5q-26 -33 -62 -57.5q-36 -24.5 -79 -36.5l-47 74z" />
<glyph unicode="&#45;" horiz-adv-x="484" d="M161 331h302l-21 -104l-302 0z" />
<glyph unicode="&#46;" horiz-adv-x="345" d="M189 -6q-85 0 -85 83q0 83 85 83q85 0 85 -83q0 -83 -85 -83z" />
<glyph unicode="&#47;" horiz-adv-x="395" d="M433 760h116l-461 -940l-116 0z" />
<glyph unicode="&#48;" horiz-adv-x="618" d="M306 -12q-106 0 -155 58.5q-49 58.5 -49 160.5q0 41 7 91q7 50 20.5 101q13.5 51 34 99.5q20.5 48.5 47.5 87.5q48 67 108 96.5q60 29.5 143 29.5q107 0 154.5 -57q47.5 -57 47.5 -157q0 -43 -6.5 -88.5q-6.5 -45.5 -17.5 -90q-11 -44.5 -27.5 -86q-16.5 -41.5 -35.5 -76.5q-27 -48 -56 -80q-29 -32 -62 -52q-33 -20 -71 -28.5q-38 -8.5 -82 -8.5zt0 0zM331 95q45 0 74 25.5q29 25.5 55 79.5q15 30 28 67.5q13 37.5 22.5 76.5q9.5 39 15 76q5.5 37 5.5 66q0 53 -21.5 86q-21.5 33 -74.5 33q-45 0 -73 -26.5q-28 -26.5 -54 -77.5q-15 -29 -28.5 -64.5q-13.5 -35.5 -23 -73.5q-9.5 -38 -15.5 -76q-6 -38 -6 -72q0 -55 21.5 -87.5t74.5 -32.5z" />
<glyph unicode="&#49;" horiz-adv-x="618" d="M305 110l94 440l-235 -118l26 124l281 144h92l-125 -590h146l-23 -110h-489l23 110z" />
<glyph unicode="&#50;" horiz-adv-x="618" d="M78 87q35 24 73 50.5q38 26.5 74.5 53q36.5 26.5 69.5 51q33 24.5 58 43.5q47 36 79.5 63.5q32.5 27.5 53 51.5q20.5 24 29.5 46.5q9 22.5 9 47.5q0 58 -30 82q-30 24 -107 24q-57 0 -109 -20.5q-52 -20.5 -97 -49.5l28 135q47 21 104.5 34q57.5 13 123.5 13q57 0 98 -13.5q41 -13.5 67.5 -37.5q26.5 -24 39.5 -58q13 -34 13 -75q0 -47 -12.5 -84.5q-12.5 -37.5 -39 -72q-26.5 -34.5 -68 -70q-41.5 -35.5 -99.5 -78.5q-31 -23 -69.5 -51.5q-38.5 -28.5 -83.5 -55.5l296 0l-25 -116l-494 0z" />
<glyph unicode="&#51;" horiz-adv-x="618" d="M90 163q32 -26 83.5 -45.5q51.5 -19.5 116.5 -19.5q40 0 73 5.5q33 5.5 57 20q24 14.5 37 38.5q13 24 13 62q0 39 -32.5 58.5q-32.5 19.5 -107.5 19.5h-75l22 106h67q87 0 131.5 27q44.5 27 44.5 83q0 43 -28.5 63.5q-28.5 20.5 -98.5 20.5q-60 0 -118 -16q-58 -16 -100 -39l29 123q52 20 116 31q64 11 127 11q58 0 97.5 -12q39.5 -12 63.5 -32q24 -20 34.5 -48q10.5 -28 10.5 -59q0 -81 -46.5 -132q-46.5 -51 -131.5 -72q66 -11 97 -43.5q31 -32.5 31 -95.5q0 -65 -30 -112q-30 -47 -82 -76q-46 -26 -96 -34q-50 -8 -115 -8q-65 0 -122.5 15.5q-57.5 15.5 -96.5 36.5z" />
<glyph unicode="&#52;" horiz-adv-x="618" d="M75 242l398 458h168l-90 -420h86l-23 -111h-86l-36 -169h-130l36 169h-339zM423 280l60 281l-243 -281z" />
<glyph unicode="&#53;" horiz-adv-x="618" d="M257 700h410l-24 -110h-304l-44 -152q19 3 50 5q31 2 60 2q106 0 157.5 -46q51.5 -46 51.5 -131q0 -73 -25.5 -126q-25.5 -53 -70.5 -87q-45 -34 -105 -50.5q-60 -16.5 -129 -16.5q-59 0 -112 11q-53 11 -93 28l27 124q30 -21 79 -37q49 -16 106 -16q37 0 71 8q34 8 60.5 25q26.5 17 42.5 45q16 28 16 68q0 33 -13.5 52q-13.5 19 -36 29.5q-22.5 10.5 -52 13.5q-29.5 3 -60.5 3q-42 0 -88 -5q-46 -5 -79 -12z" />
<glyph unicode="&#54;" horiz-adv-x="618" d="M643 558q-22 16 -57.5 30q-35.5 14 -95.5 14q-59 0 -103 -19.5q-44 -19.5 -75.5 -53q-31.5 -33.5 -51 -79.5q-19.5 -46 -28.5 -100q18 24 38.5 44q20.5 20 45 34q24.5 14 55 22q30.5 8 69.5 8q93 0 143 -50.5q50 -50.5 50 -137.5q0 -66 -22 -118.5q-22 -52.5 -61.5 -88.5q-39.5 -36 -95.5 -55.5q-56 -19.5 -125 -19.5q-113 0 -171.5 59.5q-58.5 59.5 -58.5 173.5q0 61 11.5 123q11.5 62 34 117.5q22.5 55.5 55.5 103q33 47.5 77 80.5q51 38 109 52.5q58 14.5 128 14.5q45 0 86 -9q41 -9 71 -23zM338 98q75 0 118.5 41.5q43.5 41.5 43.5 110.5q0 52 -28.5 78.5q-28.5 26.5 -82.5 26.5q-34 0 -63 -10q-29 -10 -50 -28.5q-21 -18.5 -32.5 -45q-11.5 -26.5 -11.5 -58.5q0 -54 26 -84.5t80 -30.5z" />
<glyph unicode="&#55;" horiz-adv-x="618" d="M529 590h-356l24 110h517l-16 -71l-410 -629l-153 0z" />
<glyph unicode="&#56;" horiz-adv-x="618" d="M299 -12q-44 0 -84 9.5q-40 9.5 -71 31q-31 21.5 -49 56q-18 34.5 -18 84.5q0 86 51 139q51 53 132 67q-50 16 -72 45.5q-22 29.5 -22 79.5q0 58 25 98.5q25 40.5 65.5 66q40.5 25.5 91 36.5q50.5 11 100.5 11q43 0 84 -9q41 -9 72.5 -28.5q31.5 -19.5 51 -50.5q19.5 -31 19.5 -75q0 -73 -42.5 -117.5q-42.5 -44.5 -116.5 -63.5q57 -12 82.5 -49.5q25.5 -37.5 25.5 -91.5q0 -64 -27.5 -113.5q-27.5 -49.5 -81.5 -80.5q-44 -25 -101.5 -35q-57.5 -10 -114.5 -10zt0 0zM330 97q32 0 61.5 7q29.5 7 51.5 22.5q22 15.5 35 40q13 24.5 13 59.5q0 28 -10 46.5q-10 18.5 -27 29.5q-17 11 -39 16q-22 5 -45 5q-30 0 -59 -7q-29 -7 -51.5 -22.5q-22.5 -15.5 -36 -39.5q-13.5 -24 -13.5 -57q0 -26 9.5 -45q9.5 -19 26 -31q16.5 -12 38 -18q21.5 -6 46.5 -6zt0 0zM436 602q-28 0 -53 -6q-25 -6 -43.5 -19q-18.5 -13 -29.5 -34.5q-11 -21.5 -11 -52.5q0 -42 29 -62q29 -20 71 -20q29 0 55 6q26 6 45.5 19.5q19.5 13.5 31 35q11.5 21.5 11.5 53.5q0 23 -9 38.5q-9 15.5 -23.5 24.5q-14.5 9 -33.5 13t-40 4z" />
<glyph unicode="&#57;" horiz-adv-x="618" d="M257 -12q-45 0 -90.5 10q-45.5 10 -73.5 24l27 125q9 -7 24.5 -15.5q15.5 -8.5 36.5 -16q21 -7.5 46 -12.5q25 -5 53 -5q60 0 103 20q43 20 73 54q30 34 48 80q18 46 27 99q-29 -49 -79.5 -79q-50.5 -30 -124.5 -30q-44 0 -80.5 12.5q-36.5 12.5 -62.5 36.5q-26 24 -40.5 58.5q-14.5 34.5 -14.5 78.5q0 65 22.5 117q22.5 52 60.5 89q40 39 90.5 58.5q50.5 19.5 122.5 19.5q126 0 184 -67.5q58 -67.5 58 -189.5q0 -54 -8.5 -104.5q-8.5 -50.5 -22.5 -94q-14 -43.5 -33 -79q-19 -35.5 -40 -59.5q-27 -32 -58 -56.5q-31 -24.5 -68 -41q-37 -16.5 -81.5 -24.5q-44.5 -8 -98.5 -8zt0 0zM372 346q35 0 65 9.5q30 9.5 51.5 27.5q21.5 18 33.5 44.5q12 26.5 12 61.5q0 54 -31 83.5q-31 29.5 -85 29.5q-39 0 -68.5 -12.5q-29.5 -12.5 -49 -34q-19.5 -21.5 -29 -50q-9.5 -28.5 -9.5 -61.5q0 -50 31 -74t79 -24z" />
<glyph unicode="&#58;" horiz-adv-x="359" d="M196 -6q-85 0 -85 83q0 83 85 83q85 0 85 -83q0 -83 -85 -83zt0 0zM274 360q-85 0 -85 83q0 83 85 83q85 0 85 -83q0 -83 -85 -83z" />
<glyph unicode="&#59;" horiz-adv-x="359" d="M44 -107q46 8 82.5 35.5q36.5 27.5 50.5 65.5q-34 0 -52.5 20.5q-18.5 20.5 -18.5 57.5q0 88 94 88q39 0 62.5 -23.5q23.5 -23.5 23.5 -64.5q0 -44 -14 -84.5q-14 -40.5 -40 -74q-26 -33.5 -62 -58q-36 -24.5 -79 -36.5zM274 360q-85 0 -85 83q0 83 85 83q85 0 85 -83q0 -83 -85 -83z" />
<glyph unicode="&#60;" horiz-adv-x="618" d="M135 272v109l448 167v-112l-300 -106v-2l300 -106l0 -116z" />
<glyph unicode="&#61;" horiz-adv-x="618" d="M602 275v-110h-448v110zM602 489v-110h-448l0 110z" />
<glyph unicode="&#62;" horiz-adv-x="618" d="M172 217l300 106v2l-300 106v117l448 -167v-110l-448 -165z" />
<glyph unicode="&#63;" horiz-adv-x="568" d="M229 230q8 45 29 74.5q21 29.5 49 51q28 21.5 58 37.5q30 16 55 34q25 18 41.5 40.5q16.5 22.5 16.5 57.5q0 32 -24 51q-24 19 -75 19q-60 0 -103 -13q-43 -13 -79 -32l26 125q37 14 88 25.5q51 11.5 111 11.5q100 0 150 -42q50 -42 50 -111q0 -55 -18.5 -91.5q-18.5 -36.5 -47 -62q-28.5 -25.5 -62 -43.5q-33.5 -18 -64 -36.5q-30.5 -18.5 -53 -40.5q-22.5 -22 -28.5 -55zM257 -6q-85 0 -85 83q0 83 85 83q85 0 85 -83q0 -83 -85 -83z" />
<glyph unicode="&#64;" horiz-adv-x="996" d="M582 -132q-107 0 -187.5 31.5q-80.5 31.5 -134.5 87q-54 55.5 -81 132q-27 76.5 -27 166.5q0 88 27.5 166q27.5 78 81.5 136q54 58 134 91.5q80 33.5 184 33.5q90 0 164 -26q74 -26 126.5 -75.5q52.5 -49.5 81.5 -120q29 -70.5 29 -158.5q0 -58 -15.5 -107q-15.5 -49 -43.5 -85q-28 -36 -66.5 -56q-38.5 -20 -84.5 -20q-68 0 -97.5 24q-29.5 24 -35.5 68q-21 -48 -56.5 -70q-35.5 -22 -88.5 -22q-68 0 -103 40q-35 40 -35 107q0 33 6 71q6 38 18.5 75q12.5 37 33.5 70q21 33 51 56q44 34 108 34q53 0 78.5 -20.5q25.5 -20.5 30.5 -55.5l25 66h90l-53 -251q-6 -29 -9.5 -45q-3.5 -16 -3.5 -24q0 -23 12.5 -32.5q12.5 -9.5 37.5 -9.5q53 0 86 48.5q33 48.5 33 136.5q0 71 -21 128q-21 57 -61.5 96.5q-40.5 39.5 -100 61q-59.5 21.5 -137.5 21.5q-86 0 -150.5 -26.5q-64.5 -26.5 -107.5 -73.5q-43 -47 -64.5 -111.5q-21.5 -64.5 -21.5 -141.5q0 -69 19.5 -131q19.5 -62 61.5 -108.5q42 -46.5 108 -74q66 -27.5 159 -27.5q50 0 101 12q51 12 84 34l0 -86q-40 -16 -86.5 -25.5q-46.5 -9.5 -98.5 -9.5zt0 0zM457 215q0 -29 14.5 -48.5q14.5 -19.5 47.5 -19.5q36 0 61.5 18.5q25.5 18.5 42.5 60.5q7 16 13 35q6 19 10.5 38.5q4.5 19.5 7.5 38q3 18.5 3 34.5q0 34 -17 48q-17 14 -47 14q-44 0 -73 -26q-17 -16 -28.5 -40.5q-11.5 -24.5 -19.5 -52q-8 -27.5 -11.5 -54.5t-3.5 -46z" />
<glyph unicode="&#65;" horiz-adv-x="688" d="M415 700h155l102 -700h-133l-22 163h-271l-90 -163h-140zM308 276h194l-37 283z" />
<glyph unicode="&#66;" horiz-adv-x="679" d="M244 700q136 6 216 6q46 0 90.5 -4.5q44.5 -4.5 80 -20q35.5 -15.5 57.5 -45.5q22 -30 22 -81q0 -79 -35 -128q-35 -49 -119 -68q56 -10 85.5 -41q29.5 -31 29.5 -95q0 -66 -26.5 -113q-26.5 -47 -76.5 -74q-26 -13 -58.5 -21.5q-32.5 -8.5 -66 -13q-33.5 -4.5 -64.5 -6q-31 -1.5 -52 -1.5q-21 0 -49 0.5q-28 0.5 -59.5 1q-31.5 0.5 -63.5 2q-32 1.5 -59 4.5zM253 111q26 -2 51.5 -3q25.5 -1 48.5 -1q46 0 79.5 6q33.5 6 54.5 20.5q21 14.5 31 37.5q10 23 10 57q0 22 -5.5 37.5q-5.5 15.5 -20.5 25q-15 9.5 -42 13.5q-27 4 -69 4h-96zM427 403q139 0 139 113q0 42 -23.5 59.5q-23.5 17.5 -88.5 17.5q-23 0 -46.5 -0.5q-23.5 -0.5 -53.5 -2.5l-39 -187z" />
<glyph unicode="&#67;" horiz-adv-x="650" d="M707 540q-35 25 -78 40q-43 15 -100 15q-50 0 -87 -13q-37 -13 -69 -39q-26 -22 -46 -55.5q-20 -33.5 -34 -72q-14 -38.5 -21.5 -78.5q-7.5 -40 -7.5 -76q0 -81 46 -118.5q46 -37.5 130 -37.5q63 0 113 17q50 17 79 34l-27 -130q-40 -17 -88 -27.5q-48 -10.5 -114 -10.5q-62 0 -113.5 14q-51.5 14 -89.5 44q-38 30 -59 78q-21 48 -21 116q0 45 10.5 100.5q10.5 55.5 31.5 110.5q21 55 53 105q32 50 76 84q49 38 111 55q62 17 132 17q66 0 117 -12.5q51 -12.5 84 -29.5z" />
<glyph unicode="&#68;" horiz-adv-x="755" d="M304 -6q-63 0 -112 2.5q-49 2.5 -96 6.5l148 697q29 2 55.5 3q26.5 1 54 2q27.5 1 57 1q29.5 0 64.5 0q142 0 222 -64q80 -64 80 -193q0 -114 -33 -206q-33 -92 -92 -146q-30 -28 -65.5 -47.5q-35.5 -19.5 -78 -32q-42.5 -12.5 -93 -18q-50.5 -5.5 -111.5 -5.5zt0 0zM253 116q22 -2 39 -3.5q17 -1.5 39 -1.5q64 0 114 11.5q50 11.5 86 39.5q45 35 73.5 104q28.5 69 28.5 159q0 84 -45 124q-45 40 -139 40q-26 0 -49 -0.5q-23 -0.5 -47 -2.5z" />
<glyph unicode="&#69;" horiz-adv-x="622" d="M243 700h467l-25 -117h-331l-36 -171h295l-24 -110h-296l-39 -185h332l-25 -117l-465 0z" />
<glyph unicode="&#70;" horiz-adv-x="602" d="M245 700h449l-25 -117h-315l-41 -191h301l-25 -117h-301l-58 -275l-134 0z" />
<glyph unicode="&#71;" horiz-adv-x="708" d="M428 -12q-72 0 -128.5 15.5q-56.5 15.5 -95.5 48.5q-39 33 -60 84q-21 51 -21 123q0 54 12.5 110q12.5 56 34.5 107q22 51 52.5 93.5q30.5 42.5 66.5 69.5q56 42 119 57.5q63 15.5 147 15.5q32 0 62.5 -4q30.5 -4 57 -10.5q26.5 -6.5 47.5 -14q21 -7.5 34 -14.5l-28 -128q-29 20 -79 37q-50 17 -107 17q-51 0 -92 -11q-41 -11 -77 -41q-23 -19 -42.5 -50q-19.5 -31 -33.5 -67q-14 -36 -22 -75q-8 -39 -8 -75q0 -48 12.5 -81q12.5 -33 36 -53q23.5 -20 57 -28.5q33.5 -8.5 76.5 -8.5q35 0 63.5 5q28.5 5 50.5 12l32 151h-139l24 110h257l-73 -345q-14 -7 -37.5 -15.5q-23.5 -8.5 -54 -16q-30.5 -7.5 -67 -13t-77.5 -5.5z" />
<glyph unicode="&#72;" horiz-adv-x="788" d="M245 700h134l-60 -282h328l60 282h134l-149 -700h-134l64 302h-328l-64 -302l-134 0z" />
<glyph unicode="&#73;" horiz-adv-x="336" d="M250 700h134l-149 -700l-134 0z" />
<glyph unicode="&#74;" horiz-adv-x="439" d="M150 -6q-32 0 -63 7.5q-31 7.5 -58 20.5l26 125q24 -17 46 -26.5q22 -9.5 48 -9.5q45 0 69.5 24q24.5 24 36.5 82l103 484h134l-107 -501q-12 -56 -31 -95q-19 -39 -47.5 -63.5q-28.5 -24.5 -67 -36t-89.5 -11.5z" />
<glyph unicode="&#75;" horiz-adv-x="715" d="M370 298h-77l-63 -298h-134l148 700h134l-61 -285h62l276 285h160l-336 -341l212 -359l-146 0z" />
<glyph unicode="&#76;" horiz-adv-x="576" d="M245 700h134l-125 -583h318l-24 -117l-452 0z" />
<glyph unicode="&#77;" horiz-adv-x="917" d="M244 700h178l98 -398l262 398h187l-148 -700h-131l89 423q6 28 15 62q9 34 17 66q-21 -33 -43 -68q-22 -35 -37 -59l-184 -273h-111l-68 272q-6 26 -14 61.5q-8 35.5 -15 67.5q-5 -32 -10.5 -66q-5.5 -34 -10.5 -62l-91 -424l-131 0z" />
<glyph unicode="&#78;" horiz-adv-x="786" d="M245 700h138l176 -417q12 -29 23 -54q11 -25 20 -57q2 32 5.5 57q3.5 25 9.5 55l88 416h134l-148 -700h-138l-177 416q-12 30 -21.5 55q-9.5 25 -17.5 57q-4 -32 -7.5 -57q-3.5 -25 -10.5 -55l-88 -416l-134 0z" />
<glyph unicode="&#79;" horiz-adv-x="795" d="M397 -12q-61 0 -111.5 16.5q-50.5 16.5 -87 48.5q-36.5 32 -56.5 80q-20 48 -20 111q0 49 9 103q9 54 28.5 106q19.5 52 49 98.5q29.5 46.5 70.5 80.5q55 46 121 63q66 17 142 17q63 0 114 -15.5q51 -15.5 88 -47q37 -31.5 57 -79.5q20 -48 20 -114q0 -53 -10 -108.5q-10 -55.5 -29 -107q-19 -51.5 -46.5 -95q-27.5 -43.5 -63.5 -72.5q-61 -49 -129.5 -67q-68.5 -18 -145.5 -18zt0 0zM425 105q51 0 90 13.5q39 13.5 69 45.5q21 23 38.5 54.5q17.5 31.5 29.5 67q12 35.5 18.5 73q6.5 37.5 6.5 73.5q0 82 -39 122.5q-39 40.5 -120 40.5q-44 0 -80 -10.5q-36 -10.5 -66 -36.5q-26 -23 -46 -57q-20 -34 -33.5 -72.5q-13.5 -38.5 -20 -78.5q-6.5 -40 -6.5 -76q0 -82 40.5 -120.5t118.5 -38.5z" />
<glyph unicode="&#80;" horiz-adv-x="662" d="M244 698q45 4 98.5 6q53.5 2 122.5 2q132 0 191.5 -50q59.5 -50 59.5 -144q0 -91 -33.5 -153.5q-33.5 -62.5 -91.5 -99.5q-42 -28 -101 -39q-59 -11 -132 -11q-21 0 -43 2q-22 2 -39 4l-46 -215h-134zM299 331q23 -3 41 -4q18 -1 42 -1q42 0 77 5q35 5 61 25q26 21 39 56.5q13 35.5 13 80.5q0 46 -28 71q-28 25 -104 25q-23 0 -42.5 -0.5q-19.5 -0.5 -43.5 -2.5z" />
<glyph unicode="&#81;" horiz-adv-x="795" d="M397 -12q-61 0 -111.5 16.5q-50.5 16.5 -87 48.5q-36.5 32 -56.5 80q-20 48 -20 111q0 49 9 103q9 54 28.5 106q19.5 52 49 98.5q29.5 46.5 70.5 80.5q55 46 121 63q66 17 142 17q63 0 114 -15.5q51 -15.5 88 -47q37 -31.5 57 -79.5q20 -48 20 -114q0 -53 -10 -108.5q-10 -55.5 -28.5 -107q-18.5 -51.5 -46.5 -95.5q-28 -44 -64 -72q-57 -45 -122 -65l122 -168h-155l-107 148zM425 105q51 0 90 13.5q39 13.5 69 45.5q21 23 38.5 54.5q17.5 31.5 29.5 67q12 35.5 18.5 73q6.5 37.5 6.5 73.5q0 82 -39 122.5q-39 40.5 -120 40.5q-44 0 -80 -10.5q-36 -10.5 -66 -36.5q-26 -23 -46 -57q-20 -34 -33.5 -72.5q-13.5 -38.5 -20 -78.5q-6.5 -40 -6.5 -76q0 -82 40.5 -120.5t118.5 -38.5z" />
<glyph unicode="&#82;" horiz-adv-x="685" d="M245 698q59 5 109 6.5q50 1.5 101 1.5q55 0 100 -9.5q45 -9.5 76.5 -32q31.5 -22.5 48.5 -59.5q17 -37 17 -91q0 -90 -43.5 -155.5q-43.5 -65.5 -129.5 -86.5l134 -272h-145l-122 253h-106l-54 -253h-134zM394 363q78 0 118.5 30.5q40.5 30.5 40.5 105.5q0 49 -31 69.5q-31 20.5 -77 20.5q-23 0 -44.5 -1q-21.5 -1 -45.5 -3l-47 -222z" />
<glyph unicode="&#83;" horiz-adv-x="618" d="M305 -12q-30 0 -63 4.5q-33 4.5 -63.5 12.5q-30.5 8 -57.5 18.5q-27 10.5 -45 23.5l29 135q37 -38 92 -59.5q55 -21.5 115 -21.5q154 0 154 100q0 32 -22 51.5q-22 19.5 -55 34.5q-33 15 -71.5 28.5q-38.5 13.5 -71.5 35q-33 21.5 -55 54q-22 32.5 -22 84.5q0 51 20 92q20 41 57.5 70q37.5 29 89.5 45q52 16 117 16q30 0 61.5 -3.5q31.5 -3.5 61 -9.5q29.5 -6 55 -14.5q25.5 -8.5 42.5 -18.5l-29 -134q-35 30 -84 48.5q-49 18.5 -104 18.5q-143 0 -143 -85q0 -33 22 -53q22 -20 55 -35q33 -15 71.5 -29.5q38.5 -14.5 71.5 -36q33 -21.5 55 -54q22 -32.5 22 -84.5q0 -112 -79.5 -173t-225.5 -61z" />
<glyph unicode="&#84;" horiz-adv-x="605" d="M360 583h-210l24 117h555l-24 -117h-211l-124 -583l-134 0z" />
<glyph unicode="&#85;" horiz-adv-x="744" d="M374 -12q-108 0 -169.5 50q-61.5 50 -61.5 147q0 29 5.5 70.5q5.5 41.5 16.5 89.5l75 355h134l-79 -370q-11 -48 -13.5 -78q-2.5 -30 -2.5 -47q0 -55 33.5 -77.5q33.5 -22.5 84.5 -22.5q39 0 68 8q29 8 51 28.5q22 20.5 37.5 55q15.5 34.5 26.5 87.5l88 416h134l-90 -422q-18 -84 -45.5 -140q-27.5 -56 -68 -89.5q-40.5 -33.5 -96 -47t-128.5 -13.5z" />
<glyph unicode="&#86;" horiz-adv-x="682" d="M172 700h138l60 -552l291 552h147l-381 -700l-169 0z" />
<glyph unicode="&#87;" horiz-adv-x="987" d="M185 700h139l-5 -401q0 -32 -1.5 -64.5q-1.5 -32.5 -3.5 -64.5q14 32 28.5 65q14.5 33 29.5 63l194 402h149l22 -398q2 -32 2.5 -66q0.5 -34 1.5 -66q11 32 23.5 65.5q12.5 33.5 26.5 65.5l164 399h145l-299 -700h-164l-31 524l-254 -524l-166 0z" />
<glyph unicode="&#88;" horiz-adv-x="686" d="M320 362l-130 338h146l94 -246l201 246h166l-282 -340l148 -360h-150l-112 269l-214 -269l-164 0z" />
<glyph unicode="&#89;" horiz-adv-x="649" d="M313 260l-149 440h144l98 -294l219 294h159l-337 -439l-55 -261l-134 0z" />
<glyph unicode="&#90;" horiz-adv-x="632" d="M70 79l448 504h-330l25 117h517l-17 -79l-448 -504h349l-25 -117l-536 0z" />
<glyph unicode="&#91;" horiz-adv-x="381" d="M247 760h266l-20 -96h-149l-159 -748h149l-20 -96l-266 0z" />
<glyph unicode="&#92;" horiz-adv-x="395" d="M67 760h108l270 -940l-108 0z" />
<glyph unicode="&#93;" horiz-adv-x="381" d="M11 -84h149l159 748h-149l21 96h265l-199 -940l-266 0z" />
<glyph unicode="&#94;" horiz-adv-x="618" d="M324 700h118l186 -350h-107l-137 262l-137 -262l-107 0z" />
<glyph unicode="&#95;" horiz-adv-x="450" d="M421 -98v-82h-450l0 82z" />
<glyph unicode="&#96;" horiz-adv-x="303" d="M326 625l-150 150h158l92 -150z" />
<glyph unicode="&#97;" horiz-adv-x="671" d="M481 89q-14 -21 -31.5 -39.5q-17.5 -18.5 -40 -32q-22.5 -13.5 -51 -21.5q-28.5 -8 -64.5 -8q-93 0 -143.5 52q-50.5 52 -50.5 149q0 67 15.5 132q15.5 65 50 116.5q34.5 51.5 89 83q54.5 31.5 132.5 31.5q39 0 67.5 -8.5q28.5 -8.5 49 -23q20.5 -14.5 33 -34.5q12.5 -20 19.5 -43l39 97h110l-115 -540h-113zM233 214q0 -62 33.5 -89q33.5 -27 86.5 -27q68 0 106 38q38 38 53 109l8 40q3 14 4 26.5q1 12.5 1 22.5q0 56 -29.5 82q-29.5 26 -86.5 26q-48 0 -81.5 -19.5q-33.5 -19.5 -54.5 -51.5q-21 -32 -30.5 -73t-9.5 -84z" />
<glyph unicode="&#98;" horiz-adv-x="668" d="M242 760h130l-63 -295q29 38 72.5 62.5q43.5 24.5 113.5 24.5q89 0 138.5 -52q49.5 -52 49.5 -149q0 -66 -15.5 -131q-15.5 -65 -49.5 -116.5q-34 -51.5 -89 -83.5q-55 -32 -133 -32q-36 0 -64.5 10q-28.5 10 -50 26q-21.5 16 -35 36.5q-13.5 20.5 -19.5 41.5l-36 -102h-110zM376 98q46 0 79 20q33 20 54 52.5q21 32.5 31 73.5q10 41 10 83q0 62 -32 88.5q-32 26.5 -85 26.5q-68 0 -106.5 -39q-38.5 -39 -52.5 -108l-8 -40q-8 -38 -2.5 -67q5.5 -29 20.5 -49q15 -20 39 -30.5t53 -10.5z" />
<glyph unicode="&#99;" horiz-adv-x="560" d="M516 36q-26 -17 -70.5 -32.5q-44.5 -15.5 -108.5 -15.5q-53 0 -96.5 13q-43.5 13 -74.5 39.5q-31 26.5 -48.5 67q-17.5 40.5 -17.5 95.5q0 83 22.5 148q22.5 65 65.5 109.5q43 44.5 105 68q62 23.5 141 23.5q61 0 102.5 -12q41.5 -12 63.5 -26l-29 -120q-22 18 -59.5 33q-37.5 15 -85.5 15q-94 0 -143.5 -56q-49.5 -56 -49.5 -161q0 -57 37.5 -92q37.5 -35 112.5 -35q47 0 87 15.5q40 15.5 72 37.5z" />
<glyph unicode="&#100;" horiz-adv-x="670" d="M481 89q-14 -21 -31 -39.5q-17 -18.5 -39.5 -32q-22.5 -13.5 -51 -21.5q-28.5 -8 -64.5 -8q-94 0 -145 52q-51 52 -51 152q0 68 16 132.5q16 64.5 50.5 115q34.5 50.5 89.5 81.5q55 31 133 31q77 0 116 -28.5q39 -28.5 50 -73.5l67 310h130l-162 -760h-113zM232 217q0 -65 33.5 -92q33.5 -27 88.5 -27q66 0 104.5 38.5q38.5 38.5 52.5 108.5l8 40q15 75 -14.5 116q-29.5 41 -95.5 41q-48 0 -82 -19.5q-34 -19.5 -55 -51q-21 -31.5 -30.5 -72t-9.5 -82.5z" />
<glyph unicode="&#101;" horiz-adv-x="595" d="M338 -12q-60 0 -105 15q-45 15 -75 42.5q-30 27.5 -44.5 66q-14.5 38.5 -14.5 85.5q0 78 22 143q22 65 64 112q42 47 102 73.5q60 26.5 136 26.5q58 0 98 -11q40 -11 64.5 -30.5q24.5 -19.5 35 -46q10.5 -26.5 10.5 -56.5q0 -33 -13.5 -64q-13.5 -31 -47 -55q-33.5 -24 -90.5 -38.5q-57 -14.5 -144 -14.5h-105q-1 -7 -2 -16q-1 -9 -1 -20q0 -54 33.5 -82q33.5 -28 106.5 -28q28 0 56.5 5q28.5 5 55.5 14q27 9 51 21.5q24 12.5 42 27.5l-23 -112q-29 -22 -86.5 -40q-57.5 -18 -125.5 -18zt0 0zM351 314q46 0 74.5 6.5q28.5 6.5 44.5 17q16 10.5 22 24q6 13.5 6 27.5q0 25 -17 43q-17 18 -67 18q-72 0 -111 -34.5q-39 -34.5 -56 -101.5z" />
<glyph unicode="&#102;" horiz-adv-x="433" d="M148 540h89l12 57q19 91 71 130q52 39 150 39q32 0 55.5 -3q23.5 -3 40.5 -7l-24 -113q-11 5 -29.5 9q-18.5 4 -44.5 4q-41 0 -62 -14.5q-21 -14.5 -30 -58.5l-9 -43h149l-24 -110h-149l-92 -430h-130l92 430l-89 0z" />
<glyph unicode="&#103;" horiz-adv-x="669" d="M260 -202q-66 0 -116 10.5q-50 10.5 -77 23.5v124q47 -17 94 -33.5q47 -16.5 122 -16.5q44 0 76.5 10q32.5 10 55 28.5q22.5 18.5 36.5 44.5q14 26 20 57l15 76q-14 -21 -30.5 -40q-16.5 -19 -38.5 -33.5q-22 -14.5 -50.5 -22.5q-28.5 -8 -65.5 -8q-93 0 -146 46.5q-53 46.5 -53 150.5q0 59 15.5 119q15.5 60 49.5 108.5q34 48.5 88.5 79q54.5 30.5 133.5 30.5q76 0 115 -29q39 -29 51 -73l38 90h110l-103 -486q-15 -68 -43 -116.5q-28 -48.5 -70.5 -79.5q-42.5 -31 -99 -45.5q-56.5 -14.5 -127.5 -14.5zt0 0zM360 126q36 0 63 11q27 11 45 29.5q18 18.5 29 41.5q11 23 16 47l8 40q16 75 -14.5 112q-30.5 37 -97.5 37q-47 0 -79 -17q-32 -17 -51.5 -45.5q-19.5 -28.5 -28.5 -65.5q-9 -37 -9 -76q0 -60 30.5 -87t88.5 -27z" />
<glyph unicode="&#104;" horiz-adv-x="658" d="M243 760h131l-66 -304q32 47 80.5 71.5q48.5 24.5 117.5 24.5q83 0 122 -31q39 -31 39 -95q0 -31 -9 -71l-75 -355h-130l69 326q3 14 4 25.5q1 11.5 1 21.5q0 38 -23 53.5q-23 15.5 -73 15.5q-68 0 -104.5 -33.5q-36.5 -33.5 -49.5 -96.5l-66 -312l-130 0z" />
<glyph unicode="&#105;" horiz-adv-x="308" d="M89 0l115 540h130l-115 -540zM302 631q-41 0 -60 18.5q-19 18.5 -19 50.5q0 32 19 50.5q19 18.5 60 18.5q40 0 59.5 -18.5q19.5 -18.5 19.5 -50.5q0 -32 -19.5 -50.5t-59.5 -18.5z" />
<glyph unicode="&#106;" horiz-adv-x="308" d="M-44 -62q21 -13 57 -13q32 0 48.5 14.5q16.5 14.5 24.5 49.5l118 551h130l-118 -553q-20 -93 -66 -133q-46 -40 -132 -40q-34 0 -55 4q-21 4 -31 9zM302 631q-41 0 -60 18.5q-19 18.5 -19 50.5q0 32 19 50.5q19 18.5 60 18.5q40 0 59.5 -18.5q19.5 -18.5 19.5 -50.5q0 -32 -19.5 -50.5t-59.5 -18.5z" />
<glyph unicode="&#107;" horiz-adv-x="610" d="M242 760h130l-90 -425h45l194 205h160l-257 -265l163 -275h-152l-132 225h-44l-48 -225l-130 0z" />
<glyph unicode="&#108;" horiz-adv-x="356" d="M236 -6q-63 0 -97.5 21.5q-34.5 21.5 -34.5 72.5q0 11 2 24q2 13 4 27l132 621h130l-126 -597q-2 -8 -3 -14q-1 -6 -1 -11q0 -20 11.5 -27q11.5 -7 35.5 -7q16 0 31 3q15 3 32 8l-23 -105q-12 -5 -36.5 -10.5t-56.5 -5.5z" />
<glyph unicode="&#109;" horiz-adv-x="940" d="M196 540h113l-5 -87q31 51 78 75q47 24 107 24q64 0 96 -27.5q32 -27.5 33 -80.5q32 57 82.5 82.5q50.5 25.5 115.5 25.5q72 0 104 -29.5q32 -29.5 32 -86.5q0 -14 -1.5 -29q-1.5 -15 -5.5 -32l-79 -375h-130l71 339q6 22 6 40q0 33 -19 48q-19 15 -62 15q-101 0 -124 -113l-70 -329h-130l72 339q2 11 3.5 21q1.5 10 1.5 19q0 35 -19.5 49q-19.5 14 -58.5 14q-54 0 -84.5 -29q-30.5 -29 -41.5 -84l-70 -329l-130 0z" />
<glyph unicode="&#110;" horiz-adv-x="658" d="M196 540h113l-2 -83q35 51 86 73q51 22 113 22q78 0 119.5 -29q41.5 -29 41.5 -98q0 -14 -2 -31q-2 -17 -6 -37l-76 -357h-130l67 316q3 17 5 31q2 14 2 25q0 40 -23 55q-23 15 -74 15q-127 0 -153 -130l-66 -312l-130 0z" />
<glyph unicode="&#111;" horiz-adv-x="650" d="M100 209q0 74 21.5 137q21.5 63 63 108.5q41.5 45.5 102.5 71.5q61 26 140 26q48 0 91 -12.5q43 -12.5 75 -38.5q32 -26 51 -66q19 -40 19 -96q0 -78 -20 -142.5q-20 -64.5 -60 -111q-40 -46.5 -99 -72q-59 -25.5 -138 -25.5q-61 0 -107 16q-46 16 -77 45q-31 29 -46.5 69.5q-15.5 40.5 -15.5 90.5zt0 0zM234 219q0 -55 28.5 -88q28.5 -33 95.5 -33q46 0 78.5 21.5q32.5 21.5 53 55q20.5 33.5 30 74.5q9.5 41 9.5 81q0 112 -115 112q-44 0 -78 -18q-34 -18 -56.5 -48.5q-22.5 -30.5 -34 -71t-11.5 -85.5z" />
<glyph unicode="&#112;" horiz-adv-x="671" d="M197 540h112l-5 -87q27 43 70 71q43 28 116 28q94 0 144.5 -51.5q50.5 -51.5 50.5 -148.5q0 -67 -15.5 -132.5q-15.5 -65.5 -50 -117q-34.5 -51.5 -89.5 -83q-55 -31.5 -134 -31.5q-71 0 -112.5 30.5q-41.5 30.5 -53.5 71.5l-58 -270h-130zM376 98q46 0 79 20.5q33 20.5 54.5 53q21.5 32.5 32 74q10.5 41.5 10.5 83.5q0 62 -33 87.5q-33 25.5 -87 25.5q-66 0 -105 -40.5q-39 -40.5 -54 -106.5l-9 -40q-8 -37 -2.5 -66q5.5 -29 21.5 -49.5q16 -20.5 40 -31t53 -10.5z" />
<glyph unicode="&#113;" horiz-adv-x="670" d="M479 89q-27 -43 -69.5 -72q-42.5 -29 -115.5 -29q-94 0 -144.5 52q-50.5 52 -50.5 149q0 67 16 132q16 65 50.5 116.5q34.5 51.5 89.5 83q55 31.5 133 31.5q77 0 116 -28.5q39 -28.5 52 -72.5l38 89h110l-153 -720h-130zM232 214q0 -63 33 -89.5q33 -26.5 88 -26.5q66 0 107 40q41 40 53 107l8 40q14 77 -16 117q-30 40 -96 40q-48 0 -82 -20q-34 -20 -55 -52.5q-21 -32.5 -30.5 -73t-9.5 -82.5z" />
<glyph unicode="&#114;" horiz-adv-x="451" d="M196 540h113l-2 -82q29 47 71.5 70.5q42.5 23.5 95.5 23.5q16 0 30 -2q14 -2 27 -5l-28 -128q-13 12 -32.5 18.5q-19.5 6.5 -49.5 6.5q-62 0 -96.5 -35q-34.5 -35 -49.5 -107l-64 -300l-130 0z" />
<glyph unicode="&#115;" horiz-adv-x="533" d="M91 150q26 -25 71 -41.5q45 -16.5 100 -16.5q61 0 89 18.5q28 18.5 28 55.5q0 21 -18 32q-18 11 -45 19.5q-27 8.5 -58 16.5q-31 8 -58 22.5q-27 14.5 -45 37.5q-18 23 -18 61q0 53 19 90.5q19 37.5 53.5 61q34.5 23.5 82 34.5q47.5 11 105.5 11q45 0 86.5 -6.5q41.5 -6.5 70.5 -17.5l-26 -124q-28 21 -63 33q-35 12 -86 12q-57 0 -83 -16.5q-26 -16.5 -26 -46.5q0 -20 18 -31q18 -11 45 -18.5q27 -7.5 58 -15.5q31 -8 58 -21.5q27 -13.5 45 -37q18 -23.5 18 -62.5q0 -58 -21 -98q-21 -40 -57.5 -65.5q-36.5 -25.5 -86 -37q-49.5 -11.5 -105.5 -11.5q-45 0 -92.5 8.5q-47.5 8.5 -85.5 26.5z" />
<glyph unicode="&#116;" horiz-adv-x="480" d="M302 -6q-75 0 -111 26q-36 26 -36 86q0 14 2.5 28q2.5 14 6.5 33l55 263h-100l23 110h100l20 91l139 44l-29 -135h172l-23 -110h-172l-52 -245q-4 -19 -4 -35q0 -29 15.5 -37.5q15.5 -8.5 46.5 -8.5q32 0 58.5 8q26.5 8 47.5 20l-24 -112q-18 -9 -54 -17.5t-81 -8.5z" />
<glyph unicode="&#117;" horiz-adv-x="649" d="M256 -12q-149 0 -149 126q0 16 1.5 33q1.5 17 6.5 37l76 356h130l-69 -326q-6 -26 -6 -46q0 -37 21.5 -53.5q21.5 -16.5 69.5 -16.5q63 0 99 32.5q36 32.5 50 98.5l67 311h130l-115 -540h-113v85q-37 -51 -85 -74t-114 -23z" />
<glyph unicode="&#118;" horiz-adv-x="580" d="M222 0l-90 540h141l48 -391l211 391h144l-318 -540z" />
<glyph unicode="&#119;" horiz-adv-x="867" d="M145 540h131l3 -396l203 396h125l36 -395l169 395h138l-249 -540h-155l-33 377l-195 -377l-156 0z" />
<glyph unicode="&#120;" horiz-adv-x="587" d="M265 279l-114 261h141l76 -179l152 179h147l-226 -259l124 -281h-142l-86 195l-166 -195l-147 0z" />
<glyph unicode="&#121;" horiz-adv-x="576" d="M101 -63q11 -7 26.5 -13q15.5 -6 33.5 -6q26 0 45 18.5q19 18.5 41 60.5l-115 543h143l63 -384l195 384h139l-298 -535q-34 -60 -62 -98.5q-28 -38.5 -54 -60.5q-26 -22 -52.5 -30q-26.5 -8 -56.5 -8q-21 0 -41.5 3.5q-20.5 3.5 -31.5 9.5z" />
<glyph unicode="&#122;" horiz-adv-x="553" d="M62 83l352 347h-272l24 110h447l-17 -83l-352 -347h287l-23 -110l-464 0z" />
<glyph unicode="&#123;" horiz-adv-x="408" d="M260 -180q-46 0 -75 10.5q-29 10.5 -45.5 27.5q-16.5 17 -23 38q-6.5 21 -6.5 43q0 14 3 31.5q3 17.5 6 32.5l28 133q2 8 4 20q2 12 2 22q0 34 -20.5 50.5q-20.5 16.5 -54.5 18.5l18 87q42 2 73.5 31q31.5 29 42.5 80l30 142q7 34 20.5 65.5q13.5 31.5 38 55.5q24.5 24 62.5 38q38 14 94 14h83l-20 -96h-68q-40 0 -62 -17.5q-22 -17.5 -32 -65.5l-31 -145q-11 -53 -41.5 -94.5q-30.5 -41.5 -89.5 -54.5q42 -9 57.5 -33.5q15.5 -24.5 15.5 -61.5q0 -11 -1.5 -24.5q-1.5 -13.5 -3.5 -25.5l-28 -135q-6 -27 -6 -43q0 -29 13.5 -38.5q13.5 -9.5 44.5 -9.5h73l-20 -96z" />
<glyph unicode="&#124;" horiz-adv-x="300" d="M54 -180l199 940h116l-199 -940z" />
<glyph unicode="&#125;" horiz-adv-x="408" d="M11 -84h68q40 0 62 17.5q22 17.5 32 65.5l30 145q11 53 42 94q31 41 90 55q-42 9 -57.5 33.5q-15.5 24.5 -15.5 61.5q0 11 1.5 24.5q1.5 13.5 3.5 25.5l28 135q6 27 6 43q0 29 -13.5 38.5q-13.5 9.5 -44.5 9.5h-73l20 96h81q46 0 75 -10.5q29 -10.5 45.5 -27.5q16.5 -17 23 -38q6.5 -21 6.5 -43q0 -14 -3 -31.5q-3 -17.5 -6 -32.5l-28 -133q-2 -8 -4 -20q-2 -12 -2 -22q0 -34 20.5 -50.5q20.5 -16.5 54.5 -18.5l-18 -87q-42 -2 -73.5 -31q-31.5 -29 -42.5 -80l-30 -142q-8 -35 -21 -66q-13 -31 -37.5 -55q-24.5 -24 -62.5 -38q-38 -14 -94 -14l-83 0z" />
<glyph unicode="&#126;" horiz-adv-x="618" d="M490 232q-32 0 -60.5 12q-28.5 12 -55.5 26q-27 14 -52.5 26q-25.5 12 -52.5 12q-17 0 -34 -4.5q-17 -4.5 -32 -12q-15 -7.5 -27.5 -17.5q-12.5 -10 -21.5 -20l0 111q22 24 52.5 38.5q30.5 14.5 64.5 14.5q31 0 61 -12q30 -12 58 -26q28 -14 55.5 -26q27.5 -12 54.5 -12q28 0 55 12.5q27 12.5 47 36.5l0 -112q-18 -20 -47.5 -33.5t-64.5 -13.5z" />
<glyph unicode="&#160;" horiz-adv-x="275" />
<glyph unicode="&#161;" horiz-adv-x="394" d="M230 -180h-144l117 490h119zM294 380q-85 0 -85 83q0 83 85 83q85 0 85 -83q0 -83 -85 -83z" />
<glyph unicode="&#162;" horiz-adv-x="618" d="M555 36q-23 -16 -62.5 -30.5q-39.5 -14.5 -99.5 -17.5l-23 -108h-98l24 113q-83 14 -130 66q-47 52 -47 144q0 154 76.5 242.5q76.5 88.5 219.5 102.5l19 92h98l-19 -92q48 -5 79 -15q31 -10 48 -21l-28 -120q-23 18 -61 33q-38 15 -95 15q-100 0 -152 -55q-52 -55 -52 -160q0 -57 39 -92.5q39 -35.5 121 -35.5q54 0 95.5 15.5q41.5 15.5 73.5 37.5z" />
<glyph unicode="&#163;" horiz-adv-x="618" d="M158 409h86l15 67q52 236 293 236q37 0 74 -5q37 -5 68 -14l-25 -117q-34 11 -61.5 15q-27.5 4 -56.5 4q-72 0 -109 -30q-37 -30 -52 -99l-12 -57h166l-18 -90h-168l-43 -203h256l-24 -116h-475l24 116h85l44 203l-85 0z" />
<glyph unicode="&#164;" horiz-adv-x="618" d="M138 163l63 65q-17 25 -27.5 57q-10.5 32 -10.5 71q0 39 10.5 71q10.5 32 28.5 57l-64 66l55 56l64 -65q24 17 56.5 28q32.5 11 70.5 11q39 0 71 -11q32 -11 55 -28l65 66l56 -56l-64 -67q17 -24 28 -57q11 -33 11 -71q0 -38 -11 -70.5q-11 -32.5 -28 -57.5l64 -65l-56 -56l-64 64q-24 -17 -56.5 -28q-32.5 -11 -70.5 -11q-39 0 -71.5 11q-32.5 11 -56.5 28l-63 -64zM248 356q0 -31 11 -56.5q11 -25.5 29.5 -44q18.5 -18.5 43.5 -28.5q25 -10 52 -10q28 0 52.5 10q24.5 10 43.5 28.5q19 18.5 30 44q11 25.5 11 56.5q0 30 -11 55.5q-11 25.5 -30 44q-19 18.5 -43.5 29q-24.5 10.5 -52.5 10.5q-27 0 -52 -10.5q-25 -10.5 -43.5 -29q-18.5 -18.5 -29.5 -44t-11 -55.5z" />
<glyph unicode="&#165;" horiz-adv-x="618" d="M152 374h120l-108 326h145l89 -284l196 284h159l-245 -326h120l-20 -94h-171l-15 -69h171l-20 -94h-171l-25 -117h-134l25 117h-170l19 94h171l15 69l-171 0z" />
<glyph unicode="&#166;" horiz-adv-x="300" d="M138 215h116l-84 -395h-116zM253 760h116l-84 -395l-116 0z" />
<glyph unicode="&#167;" horiz-adv-x="528" d="M568 587q-46 18 -77 23.5q-31 5.5 -60 5.5q-18 0 -37.5 -3q-19.5 -3 -36.5 -10.5q-17 -7.5 -28 -21.5q-11 -14 -11 -36q0 -20 18.5 -35q18.5 -15 61.5 -37l46 -23q19 -10 38 -21q19 -11 33 -25.5q14 -14.5 23 -33q9 -18.5 9 -42.5q0 -27 -10 -51.5q-10 -24.5 -26 -46q-16 -21.5 -36.5 -39q-20.5 -17.5 -42.5 -31.5q19 -16 30 -36q11 -20 11 -46q0 -49 -24 -84.5q-24 -35.5 -61.5 -59q-37.5 -23.5 -84.5 -35q-47 -11.5 -92 -11.5q-42 0 -83 7q-41 7 -79 21l22 104q42 -21 75 -28.5q33 -7.5 71 -7.5q21 0 42.5 3.5q21.5 3.5 39.5 12q18 8.5 29.5 22.5q11.5 14 11.5 36q0 9 -4.5 17q-4.5 8 -15 16.5q-10.5 8.5 -28 19q-17.5 10.5 -44.5 25.5l-46 25q-39 20 -65.5 47q-26.5 27 -26.5 71q0 28 9.5 53q9.5 25 26 46q16.5 21 38 37.5q21.5 16.5 45.5 29.5q-23 15 -33.5 36q-10.5 21 -10.5 47q0 50 24 85q24 35 61 57q37 22 82 32q45 10 87 10q49 0 87 -8.5q38 -8.5 63 -16.5zM299 406q-26 -16 -48 -39.5q-22 -23.5 -22 -55.5q0 -27 22.5 -46q22.5 -19 60.5 -39l53 -27q22 17 42.5 43q20.5 26 20.5 55q0 25 -19.5 43q-19.5 18 -53.5 36z" />
<glyph unicode="&#168;" horiz-adv-x="370" d="M233 634q-38 0 -55 16.5q-17 16.5 -17 49.5q0 33 17 49.5q17 16.5 55 16.5q72 0 72 -66q0 -66 -72 -66zt0 0zM435 634q-38 0 -55 16.5q-17 16.5 -17 49.5q0 33 17 49.5q17 16.5 55 16.5q72 0 72 -66q0 -66 -72 -66z" />
<glyph unicode="&#169;" horiz-adv-x="874" d="M505 -52q-81 0 -149.5 28q-68.5 28 -119 78q-50.5 50 -78.5 117.5q-28 67.5 -28 147.5q0 80 28 148.5q28 68.5 78.5 118.5q50.5 50 119 78q68.5 28 149.5 28q81 0 150 -28q69 -28 119.5 -78q50.5 -50 78.5 -118.5q28 -68.5 28 -148.5q0 -80 -28 -147.5q-28 -67.5 -78.5 -117.5q-50.5 -50 -119.5 -78q-69 -28 -150 -28zt0 0zM504 17q66 0 121.5 23q55.5 23 96 63.5q40.5 40.5 63.5 95.5q23 55 23 120q0 66 -23 121.5q-23 55.5 -63.5 96q-40.5 40.5 -96 63.5q-55.5 23 -121.5 23q-65 0 -120 -23q-55 -23 -95.5 -63.5q-40.5 -40.5 -63.5 -96q-23 -55.5 -23 -121.5q0 -65 23 -120q23 -55 63.5 -95.5q40.5 -40.5 95.5 -63.5q55 -23 120 -23zt0 0zM521 128q-101 0 -146 52.5q-45 52.5 -45 141.5q0 97 48 147q48 50 145 50q29 0 52 -4.5q23 -4.5 37 -9.5l0 -73q-17 7 -38.5 10q-21.5 3 -38.5 3q-59 0 -89.5 -28.5q-30.5 -28.5 -30.5 -91.5q0 -67 31.5 -94.5q31.5 -27.5 88.5 -27.5q19 0 39.5 4q20.5 4 39.5 12l0 -75q-17 -7 -40 -11.5t-53 -4.5z" />
<glyph unicode="&#170;" horiz-adv-x="359" d="M217 374q-45 0 -65 19q-20 19 -20 52q0 37 12.5 61.5q12.5 24.5 34 39q21.5 14.5 51.5 20.5q30 6 65 6h64l3 15q3 9 3 16q0 17 -13.5 25q-13.5 8 -45.5 8q-31 0 -62.5 -7q-31.5 -7 -50.5 -17l16 77q22 7 55 12q33 5 70 5q63 0 91.5 -18q28.5 -18 28.5 -60q0 -16 -5 -41l-45 -207h-77l5 50q-15 -22 -43 -39q-28 -17 -72 -17zt0 0zM262 440q32 0 54.5 17q22.5 17 27.5 46l4 18h-53q-29 0 -49.5 -9.5q-20.5 -9.5 -20.5 -38.5q0 -18 9 -25.5t28 -7.5z" />
<glyph unicode="&#171;" horiz-adv-x="606" d="M116 280l174 212h126l-180 -219l89 -205h-120zM352 280l174 212h126l-180 -219l89 -205l-120 0z" />
<glyph unicode="&#172;" horiz-adv-x="618" d="M602 382v-260h-110v150h-338l0 110z" />
<glyph unicode="&#173;" horiz-adv-x="484" d="M161 331h302l-21 -104l-302 0z" />
<glyph unicode="&#174;" horiz-adv-x="600" d="M411 266q-56 0 -102.5 19q-46.5 19 -80 53q-33.5 34 -52 80q-18.5 46 -18.5 100q0 54 18.5 100.5q18.5 46.5 52 80.5q33.5 34 80 53.5q46.5 19.5 102.5 19.5q56 0 102.5 -19.5q46.5 -19.5 79.5 -53.5q33 -34 51.5 -80.5q18.5 -46.5 18.5 -100.5q0 -54 -18.5 -100q-18.5 -46 -51.5 -80q-33 -34 -79.5 -53q-46.5 -19 -102.5 -19zt0 0zM411 319q44 0 80.5 15q36.5 15 62.5 41.5q26 26.5 40.5 63q14.5 36.5 14.5 79.5q0 43 -14.5 80q-14.5 37 -40.5 64q-26 27 -62.5 42q-36.5 15 -80.5 15q-44 0 -80.5 -15q-36.5 -15 -62.5 -42q-26 -27 -40.5 -64q-14.5 -37 -14.5 -80q0 -43 14.5 -79.5q14.5 -36.5 40.5 -63q26 -26.5 62.5 -41.5q36.5 -15 80.5 -15zt0 0zM311 657h108q17 0 34.5 -3.5q17.5 -3.5 31.5 -13q14 -9.5 22.5 -26.5q8.5 -17 8.5 -44q0 -29 -13.5 -48.5q-13.5 -19.5 -33.5 -27.5l64 -103h-69l-55 93h-35v-93h-63zM412 535q16 0 27.5 7q11.5 7 11.5 27q0 22 -11.5 28q-11.5 6 -28.5 6h-38l0 -68z" />
<glyph unicode="&#175;" horiz-adv-x="365" d="M172 742h316v-84l-316 0z" />
<glyph unicode="&#176;" horiz-adv-x="400" d="M320 413q-34 0 -62 11.5q-28 11.5 -48.5 31.5q-20.5 20 -32 47.5q-11.5 27.5 -11.5 59.5q0 32 11.5 59.5q11.5 27.5 31.5 47.5q20 20 48.5 31q28.5 11 62.5 11q34 0 62 -11q28 -11 48 -31q20 -20 31.5 -47.5q11.5 -27.5 11.5 -59.5q0 -32 -11.5 -59.5q-11.5 -27.5 -31.5 -47.5q-20 -20 -48.5 -31.5q-28.5 -11.5 -61.5 -11.5zt0 0zM320 487q33 0 54.5 21.5q21.5 21.5 21.5 54.5q0 32 -21.5 53.5q-21.5 21.5 -54.5 21.5q-34 0 -55 -21.5q-21 -21.5 -21 -53.5q0 -33 21 -54.5t55 -21.5z" />
<glyph unicode="&#177;" horiz-adv-x="618" d="M330 378h-169v110h169v169h110v-169h169v-110h-169v-138h-110zM609 166v-110h-448l0 110z" />
<glyph unicode="&#178;" horiz-adv-x="450" d="M149 466l146 83q74 42 104 70q30 28 30 58q0 47 -82 47q-31 0 -67 -6q-36 -6 -66 -20l18 85q39 13 74.5 18q35.5 5 70.5 5q158 0 158 -102q0 -26 -11 -50q-11 -24 -35 -48q-24 -24 -62.5 -50q-38.5 -26 -93.5 -56l-66 -36v-1h223l-18 -83l-341 0z" />
<glyph unicode="&#179;" horiz-adv-x="450" d="M272 374q-27 0 -65 3.5q-38 3.5 -73 15.5l17 83q32 -14 65.5 -17.5q33.5 -3.5 65.5 -3.5q18 0 38.5 2q20.5 2 38 8.5q17.5 6.5 29 19q11.5 12.5 11.5 33.5q0 25 -18 34q-18 9 -60 9h-83l15 69h74q15 0 32 2q17 2 32 7.5q15 5.5 25 16q10 10.5 10 28.5q0 23 -19.5 32.5q-19.5 9.5 -67.5 9.5q-34 0 -68.5 -4.5q-34.5 -4.5 -62.5 -14.5l17 80q37 12 80.5 15.5q43.5 3.5 81.5 3.5q41 0 69 -7q28 -7 45 -19q17 -12 24.5 -28.5q7.5 -16.5 7.5 -36.5q0 -26 -11 -45q-11 -19 -29 -32.5q-18 -13.5 -40.5 -22.5q-22.5 -9 -46.5 -15l0 -2q55 -8 74.5 -30q19.5 -22 19.5 -54q0 -40 -22.5 -66.5q-22.5 -26.5 -56.5 -43q-34 -16.5 -74 -23.5t-75 -7z" />
<glyph unicode="&#180;" horiz-adv-x="271" d="M267 775h158l-182 -150l-100 0z" />
<glyph unicode="&#181;" horiz-adv-x="654" d="M43 -180l153 720h130l-69 -326q-4 -19 -5 -28.5q-1 -9.5 -1 -17.5q0 -37 21.5 -53.5q21.5 -16.5 69.5 -16.5q63 0 99 32.5q36 32.5 50 98.5l67 311h130l-115 -540h-113v85q-37 -51 -85 -74q-48 -23 -113 -23q-14 0 -27.5 2.5q-13.5 2.5 -24.5 5.5l-37 -176z" />
<glyph unicode="&#182;" horiz-adv-x="644" d="M301 346q-71 0 -106.5 35q-35.5 35 -35.5 93q0 55 20 97q20 42 54.5 70.5q34.5 28.5 80.5 43.5q46 15 97 15h285l-186 -880h-116l163 770h-88l-163 -770l-116 0z" />
<glyph unicode="&#183;" horiz-adv-x="345" d="M247 267q-85 0 -85 83q0 83 85 83q85 0 85 -83q0 -83 -85 -83z" />
<glyph unicode="&#184;" horiz-adv-x="234" d="M59 0h69l-21 -51q38 -1 64.5 -15.5q26.5 -14.5 26.5 -50.5q0 -28 -12.5 -50.5q-12.5 -22.5 -33.5 -39q-21 -16.5 -47.5 -25.5q-26.5 -9 -54.5 -9q-53 0 -88 16l22 57q13 -5 26 -8.5q13 -3.5 30 -3.5q22 0 43.5 13.5q21.5 13.5 21.5 40.5q0 17 -15.5 23q-15.5 6 -35.5 6q-6 0 -15.5 0q-9.5 0 -16.5 -1z" />
<glyph unicode="&#185;" horiz-adv-x="450" d="M366 696l-126 -59l-24 70l191 93h81l-90 -420l-99 0z" />
<glyph unicode="&#186;" horiz-adv-x="425" d="M145 497q0 96 52 152.5q52 56.5 164 56.5q71 0 110 -32q39 -32 39 -91q0 -103 -54 -156q-54 -53 -163 -53q-67 0 -107.5 33q-40.5 33 -40.5 90zt0 0zM345 631q-52 0 -76.5 -32q-24.5 -32 -24.5 -88q0 -32 18.5 -47q18.5 -15 48.5 -15q48 0 74.5 32q26.5 32 26.5 89q0 32 -18 46.5t-49 14.5z" />
<glyph unicode="&#187;" horiz-adv-x="606" d="M252 289l-88 203h120l88 -211l-175 -213h-125zM489 289l-88 203h120l88 -211l-175 -213l-125 0z" />
<glyph unicode="&#188;" horiz-adv-x="950" d="M173 0l626 700h110l-626 -700zM292 596l-126 -59l-24 70l191 93h81l-90 -420h-99zM540 162l290 258h114l-55 -254h57l-16 -79h-57l-19 -87h-95l19 87h-253zM832 338h-1l-195 -172l159 0z" />
<glyph unicode="&#189;" horiz-adv-x="950" d="M143 0l626 700h110l-626 -700zM292 596l-126 -59l-24 70l191 93h81l-90 -420h-99zM600 86l146 83q74 42 104 70q30 28 30 58q0 47 -82 47q-31 0 -67 -6q-36 -6 -66 -20l18 85q39 13 74.5 18q35.5 5 70.5 5q158 0 158 -102q0 -26 -11 -50q-11 -24 -35 -48q-24 -24 -62.5 -50q-38.5 -26 -93.5 -56l-66 -36v-1h223l-18 -83l-341 0z" />
<glyph unicode="&#190;" horiz-adv-x="950" d="M195 0l626 700h110l-626 -700zM231 274q-27 0 -65 3.5q-38 3.5 -73 15.5l17 83q32 -14 65.5 -17.5q33.5 -3.5 65.5 -3.5q18 0 38.5 2q20.5 2 38 8.5q17.5 6.5 29 19q11.5 12.5 11.5 33.5q0 25 -18 34q-18 9 -60 9h-83l15 69h74q15 0 32 2q17 2 32 7.5q15 5.5 25 16q10 10.5 10 28.5q0 23 -19.5 32.5q-19.5 9.5 -67.5 9.5q-34 0 -68.5 -4.5q-34.5 -4.5 -62.5 -14.5l17 80q37 12 80.5 15.5q43.5 3.5 81.5 3.5q41 0 69 -7q28 -7 45 -19q17 -12 24.5 -28.5q7.5 -16.5 7.5 -36.5q0 -26 -11 -45q-11 -19 -29 -32.5q-18 -13.5 -40.5 -22.5q-22.5 -9 -46.5 -15l0 -2q55 -8 74.5 -30q19.5 -22 19.5 -54q0 -40 -22.5 -66.5q-22.5 -26.5 -56.5 -43q-34 -16.5 -74 -23.5q-40 -7 -75 -7zt0 0zM540 162l290 258h114l-55 -254h57l-16 -79h-57l-19 -87h-95l19 87h-253zM832 338h-1l-195 -172l159 0z" />
<glyph unicode="&#191;" horiz-adv-x="565" d="M227 -192q-101 0 -150.5 42q-49.5 42 -49.5 111q0 55 19 93q19 38 48 65.5q29 27.5 63 48.5q34 21 65 41.5q31 20.5 53.5 44q22.5 23.5 28.5 56.5l120 0q-7 -45 -29 -76q-22 -31 -50 -54.5q-28 -23.5 -59 -42.5q-31 -19 -57 -39q-26 -20 -42.5 -44q-16.5 -24 -16.5 -59q0 -32 24 -51q24 -19 76 -19q59 0 102 13.5q43 13.5 80 32.5l-27 -125q-37 -14 -87.5 -26q-50.5 -12 -110.5 -12zt0 0zM395 380q-85 0 -85 83q0 83 85 83q85 0 85 -83q0 -83 -85 -83z" />
<glyph unicode="&#192;" horiz-adv-x="688" d="M415 700h155l102 -700h-133l-22 163h-271l-90 -163h-140zM308 276h194l-37 283zM344 920h159l53 -160l-100 0z" />
<glyph unicode="&#193;" horiz-adv-x="688" d="M415 700h155l102 -700h-133l-22 163h-271l-90 -163h-140zM308 276h194l-37 283zM589 920h160l-192 -160l-102 0z" />
<glyph unicode="&#194;" horiz-adv-x="688" d="M415 700h155l102 -700h-133l-22 163h-271l-90 -163h-140zM308 276h194l-37 283zM472 920h134l87 -160h-98l-64 96l-108 -96l-106 0z" />
<glyph unicode="&#195;" horiz-adv-x="688" d="M415 700h155l102 -700h-133l-22 163h-271l-90 -163h-140zM308 276h194l-37 283zM343 788q3 57 33 86.5q30 29.5 72 29.5q21 0 39.5 -7q18.5 -7 42.5 -18q24 -11 36 -16q12 -5 25 -5q16 0 27.5 11.5q11.5 11.5 15.5 34.5l69 -13q-4 -54 -33.5 -84.5q-29.5 -30.5 -71.5 -30.5q-11 0 -20 1q-9 1 -18 4q-9 3 -19.5 7.5q-10.5 4.5 -24.5 11.5q-21 10 -33.5 16.5q-12.5 6.5 -26.5 6.5q-14 0 -26.5 -11.5q-12.5 -11.5 -17.5 -35.5z" />
<glyph unicode="&#196;" horiz-adv-x="688" d="M415 700h155l102 -700h-133l-22 163h-271l-90 -163h-140zM308 276h194l-37 283zM415 772q-74 0 -74 68q0 68 74 68q74 0 74 -68q0 -68 -74 -68zt0 0zM631 772q-74 0 -74 68q0 68 74 68q74 0 74 -68q0 -68 -74 -68z" />
<glyph unicode="&#197;" horiz-adv-x="688" d="M415 700h155l102 -700h-133l-22 163h-271l-90 -163h-140zM308 276h194l-37 283zM522 736q-50 0 -80 29.5q-30 29.5 -30 74.5q0 45 30 74.5q30 29.5 80 29.5q50 0 80 -29.5q30 -29.5 30 -74.5q0 -45 -30 -74.5q-30 -29.5 -80 -29.5zt0 0zM522 795q21 0 33.5 12.5q12.5 12.5 12.5 32.5q0 20 -12.5 32.5q-12.5 12.5 -33.5 12.5q-21 0 -33.5 -12.5q-12.5 -12.5 -12.5 -32.5q0 -20 12.5 -32.5t33.5 -12.5z" />
<glyph unicode="&#198;" horiz-adv-x="1023" d="M532 163h-247l-129 -163h-140l560 700h536l-24 -117h-332l-37 -172h296l-24 -109h-296l-39 -185h332l-25 -117h-465zM556 276l67 313l-249 -313z" />
<glyph unicode="&#199;" horiz-adv-x="650" d="M354 -254q-32 0 -53.5 4.5q-21.5 4.5 -38.5 12.5l23 60q26 -13 62 -13q12 0 24.5 3q12.5 3 22.5 9.5q10 6.5 16.5 16.5q6.5 10 6.5 24q0 19 -18 25.5q-18 6.5 -38 6.5q-8 0 -17.5 0q-9.5 0 -17.5 -2l35 97q-53 4 -97.5 20.5q-44.5 16.5 -76.5 46.5q-32 30 -49.5 75.5q-17.5 45.5 -17.5 107.5q0 45 10.5 100.5q10.5 55.5 31.5 110.5q21 55 53 105q32 50 76 84q49 38 111 55q62 17 132 17q66 0 117 -12.5q51 -12.5 84 -29.5l-28 -130q-35 25 -78 40q-43 15 -100 15q-50 0 -87 -13q-37 -13 -69 -39q-26 -22 -46 -55.5q-20 -33.5 -34 -72q-14 -38.5 -21.5 -78.5q-7.5 -40 -7.5 -76q0 -81 46 -118.5q46 -37.5 130 -37.5q63 0 113 17q50 17 79 34l-27 -130q-35 -15 -76 -25q-41 -10 -95 -12l-17 -43q41 0 69 -16q28 -16 28 -54q0 -32 -14.5 -56q-14.5 -24 -37 -40.5q-22.5 -16.5 -51.5 -25t-57 -8.5z" />
<glyph unicode="&#200;" horiz-adv-x="622" d="M243 700h467l-25 -117h-331l-36 -171h295l-24 -110h-296l-39 -185h332l-25 -117h-465zM330 920h159l53 -160l-100 0z" />
<glyph unicode="&#201;" horiz-adv-x="622" d="M243 700h467l-25 -117h-331l-36 -171h295l-24 -110h-296l-39 -185h332l-25 -117h-465zM573 920h160l-192 -160l-102 0z" />
<glyph unicode="&#202;" horiz-adv-x="622" d="M243 700h467l-25 -117h-331l-36 -171h295l-24 -110h-296l-39 -185h332l-25 -117h-465zM457 920h134l87 -160h-98l-64 96l-108 -96l-106 0z" />
<glyph unicode="&#203;" horiz-adv-x="622" d="M243 700h467l-25 -117h-331l-36 -171h295l-24 -110h-296l-39 -185h332l-25 -117h-465zM395 772q-74 0 -74 68q0 68 74 68q74 0 74 -68q0 -68 -74 -68zt0 0zM611 772q-74 0 -74 68q0 68 74 68q74 0 74 -68q0 -68 -74 -68z" />
<glyph unicode="&#204;" horiz-adv-x="336" d="M250 700h134l-149 -700h-134zM168 920h159l53 -160l-100 0z" />
<glyph unicode="&#205;" horiz-adv-x="336" d="M250 700h134l-149 -700h-134zM415 920h160l-192 -160l-102 0z" />
<glyph unicode="&#206;" horiz-adv-x="336" d="M250 700h134l-149 -700h-134zM296 920h134l87 -160h-98l-64 96l-108 -96l-106 0z" />
<glyph unicode="&#207;" horiz-adv-x="336" d="M250 700h134l-149 -700h-134zM239 772q-74 0 -74 68q0 68 74 68q74 0 74 -68q0 -68 -74 -68zt0 0zM455 772q-74 0 -74 68q0 68 74 68q74 0 74 -68q0 -68 -74 -68z" />
<glyph unicode="&#208;" horiz-adv-x="765" d="M108 407h84l62 293q29 2 55.5 3q26.5 1 54 2q27.5 1 57 1q29.5 0 64.5 0q142 0 222 -64q80 -64 80 -193q0 -114 -33 -206q-33 -92 -92 -146q-30 -28 -65.5 -47.5q-35.5 -19.5 -78 -32q-42.5 -12.5 -93 -18q-50.5 -5.5 -111.5 -5.5q-63 0 -112 2.5q-49 2.5 -96 6.5l66 310h-84zM263 116q22 -2 39 -3.5q17 -1.5 39 -1.5q64 0 114 11.5q50 11.5 86 39.5q45 35 73.5 104q28.5 69 28.5 159q0 84 -45 124q-45 40 -139 40q-26 0 -49 -0.5q-23 -0.5 -47 -2.5l-38 -179h150l-19 -94l-151 0z" />
<glyph unicode="&#209;" horiz-adv-x="786" d="M245 700h138l176 -417q12 -29 23 -54q11 -25 20 -57q2 32 5.5 57q3.5 25 9.5 55l88 416h134l-148 -700h-138l-177 416q-12 30 -21.5 55q-9.5 25 -17.5 57q-4 -32 -7.5 -57q-3.5 -25 -10.5 -55l-88 -416h-134zM392 788q3 57 33 86.5q30 29.5 72 29.5q21 0 39.5 -7q18.5 -7 42.5 -18q24 -11 36 -16q12 -5 25 -5q16 0 27.5 11.5q11.5 11.5 15.5 34.5l69 -13q-4 -54 -33.5 -84.5q-29.5 -30.5 -71.5 -30.5q-11 0 -20 1q-9 1 -18 4q-9 3 -19.5 7.5q-10.5 4.5 -24.5 11.5q-21 10 -33.5 16.5q-12.5 6.5 -26.5 6.5q-14 0 -26.5 -11.5q-12.5 -11.5 -17.5 -35.5z" />
<glyph unicode="&#210;" horiz-adv-x="795" d="M397 -12q-61 0 -111.5 16.5q-50.5 16.5 -87 48.5q-36.5 32 -56.5 80q-20 48 -20 111q0 49 9 103q9 54 28.5 106q19.5 52 49 98.5q29.5 46.5 70.5 80.5q55 46 121 63q66 17 142 17q63 0 114 -15.5q51 -15.5 88 -47q37 -31.5 57 -79.5q20 -48 20 -114q0 -53 -10 -108.5q-10 -55.5 -29 -107q-19 -51.5 -46.5 -95q-27.5 -43.5 -63.5 -72.5q-61 -49 -129.5 -67q-68.5 -18 -145.5 -18zt0 0zM425 105q51 0 90 13.5q39 13.5 69 45.5q21 23 38.5 54.5q17.5 31.5 29.5 67q12 35.5 18.5 73q6.5 37.5 6.5 73.5q0 82 -39 122.5q-39 40.5 -120 40.5q-44 0 -80 -10.5q-36 -10.5 -66 -36.5q-26 -23 -46 -57q-20 -34 -33.5 -72.5q-13.5 -38.5 -20 -78.5q-6.5 -40 -6.5 -76q0 -82 40.5 -120.5q40.5 -38.5 118.5 -38.5zt0 0zM395 920h159l53 -160l-100 0z" />
<glyph unicode="&#211;" horiz-adv-x="795" d="M397 -12q-61 0 -111.5 16.5q-50.5 16.5 -87 48.5q-36.5 32 -56.5 80q-20 48 -20 111q0 49 9 103q9 54 28.5 106q19.5 52 49 98.5q29.5 46.5 70.5 80.5q55 46 121 63q66 17 142 17q63 0 114 -15.5q51 -15.5 88 -47q37 -31.5 57 -79.5q20 -48 20 -114q0 -53 -10 -108.5q-10 -55.5 -29 -107q-19 -51.5 -46.5 -95q-27.5 -43.5 -63.5 -72.5q-61 -49 -129.5 -67q-68.5 -18 -145.5 -18zt0 0zM425 105q51 0 90 13.5q39 13.5 69 45.5q21 23 38.5 54.5q17.5 31.5 29.5 67q12 35.5 18.5 73q6.5 37.5 6.5 73.5q0 82 -39 122.5q-39 40.5 -120 40.5q-44 0 -80 -10.5q-36 -10.5 -66 -36.5q-26 -23 -46 -57q-20 -34 -33.5 -72.5q-13.5 -38.5 -20 -78.5q-6.5 -40 -6.5 -76q0 -82 40.5 -120.5q40.5 -38.5 118.5 -38.5zt0 0zM640 920h160l-192 -160l-102 0z" />
<glyph unicode="&#212;" horiz-adv-x="795" d="M397 -12q-61 0 -111.5 16.5q-50.5 16.5 -87 48.5q-36.5 32 -56.5 80q-20 48 -20 111q0 49 9 103q9 54 28.5 106q19.5 52 49 98.5q29.5 46.5 70.5 80.5q55 46 121 63q66 17 142 17q63 0 114 -15.5q51 -15.5 88 -47q37 -31.5 57 -79.5q20 -48 20 -114q0 -53 -10 -108.5q-10 -55.5 -29 -107q-19 -51.5 -46.5 -95q-27.5 -43.5 -63.5 -72.5q-61 -49 -129.5 -67q-68.5 -18 -145.5 -18zt0 0zM425 105q51 0 90 13.5q39 13.5 69 45.5q21 23 38.5 54.5q17.5 31.5 29.5 67q12 35.5 18.5 73q6.5 37.5 6.5 73.5q0 82 -39 122.5q-39 40.5 -120 40.5q-44 0 -80 -10.5q-36 -10.5 -66 -36.5q-26 -23 -46 -57q-20 -34 -33.5 -72.5q-13.5 -38.5 -20 -78.5q-6.5 -40 -6.5 -76q0 -82 40.5 -120.5q40.5 -38.5 118.5 -38.5zt0 0zM524 920h134l87 -160h-98l-64 96l-108 -96l-106 0z" />
<glyph unicode="&#213;" horiz-adv-x="795" d="M397 -12q-61 0 -111.5 16.5q-50.5 16.5 -87 48.5q-36.5 32 -56.5 80q-20 48 -20 111q0 49 9 103q9 54 28.5 106q19.5 52 49 98.5q29.5 46.5 70.5 80.5q55 46 121 63q66 17 142 17q63 0 114 -15.5q51 -15.5 88 -47q37 -31.5 57 -79.5q20 -48 20 -114q0 -53 -10 -108.5q-10 -55.5 -29 -107q-19 -51.5 -46.5 -95q-27.5 -43.5 -63.5 -72.5q-61 -49 -129.5 -67q-68.5 -18 -145.5 -18zt0 0zM425 105q51 0 90 13.5q39 13.5 69 45.5q21 23 38.5 54.5q17.5 31.5 29.5 67q12 35.5 18.5 73q6.5 37.5 6.5 73.5q0 82 -39 122.5q-39 40.5 -120 40.5q-44 0 -80 -10.5q-36 -10.5 -66 -36.5q-26 -23 -46 -57q-20 -34 -33.5 -72.5q-13.5 -38.5 -20 -78.5q-6.5 -40 -6.5 -76q0 -82 40.5 -120.5q40.5 -38.5 118.5 -38.5zt0 0zM394 788q3 57 33 86.5q30 29.5 72 29.5q21 0 39.5 -7q18.5 -7 42.5 -18q24 -11 36 -16q12 -5 25 -5q16 0 27.5 11.5q11.5 11.5 15.5 34.5l69 -13q-4 -54 -33.5 -84.5q-29.5 -30.5 -71.5 -30.5q-11 0 -20 1q-9 1 -18 4q-9 3 -19.5 7.5q-10.5 4.5 -24.5 11.5q-21 10 -33.5 16.5q-12.5 6.5 -26.5 6.5q-14 0 -26.5 -11.5q-12.5 -11.5 -17.5 -35.5z" />
<glyph unicode="&#214;" horiz-adv-x="795" d="M397 -12q-61 0 -111.5 16.5q-50.5 16.5 -87 48.5q-36.5 32 -56.5 80q-20 48 -20 111q0 49 9 103q9 54 28.5 106q19.5 52 49 98.5q29.5 46.5 70.5 80.5q55 46 121 63q66 17 142 17q63 0 114 -15.5q51 -15.5 88 -47q37 -31.5 57 -79.5q20 -48 20 -114q0 -53 -10 -108.5q-10 -55.5 -29 -107q-19 -51.5 -46.5 -95q-27.5 -43.5 -63.5 -72.5q-61 -49 -129.5 -67q-68.5 -18 -145.5 -18zt0 0zM425 105q51 0 90 13.5q39 13.5 69 45.5q21 23 38.5 54.5q17.5 31.5 29.5 67q12 35.5 18.5 73q6.5 37.5 6.5 73.5q0 82 -39 122.5q-39 40.5 -120 40.5q-44 0 -80 -10.5q-36 -10.5 -66 -36.5q-26 -23 -46 -57q-20 -34 -33.5 -72.5q-13.5 -38.5 -20 -78.5q-6.5 -40 -6.5 -76q0 -82 40.5 -120.5q40.5 -38.5 118.5 -38.5zt0 0zM466 772q-74 0 -74 68q0 68 74 68q74 0 74 -68q0 -68 -74 -68zt0 0zM682 772q-74 0 -74 68q0 68 74 68q74 0 74 -68q0 -68 -74 -68z" />
<glyph unicode="&#215;" horiz-adv-x="618" d="M177 197l129 130l-129 129l71 72l130 -130l129 130l72 -72l-130 -129l130 -130l-72 -71l-129 129l-130 -129z" />
<glyph unicode="&#216;" horiz-adv-x="795" d="M397 -12q-53 0 -97.5 11.5q-44.5 11.5 -79.5 36.5l-78 -81l-53 45l81 84q-48 63 -48 160q0 49 9 103.5q9 54.5 28.5 106.5q19.5 52 49 98.5q29.5 46.5 70.5 80.5q55 46 121 62.5q66 16.5 142 16.5q56 0 103 -11.5q47 -11.5 82 -37.5l75 78l53 -46l-78 -81q21 -30 32.5 -69q11.5 -39 11.5 -89q0 -53 -10 -108.5q-10 -55.5 -28.5 -107.5q-18.5 -52 -46.5 -96q-28 -44 -64 -72q-61 -50 -129.5 -67q-68.5 -17 -145.5 -17zt0 0zM266 264q0 -41 10 -70l354 368q-37 33 -112 33q-44 0 -80 -10q-36 -10 -66 -36q-26 -23 -46 -57q-20 -34 -33.5 -73q-13.5 -39 -20 -79q-6.5 -40 -6.5 -76zt0 0zM425 105q51 0 90 13q39 13 69 45q21 23 38.5 54.5q17.5 31.5 29.5 67.5q12 36 18.5 73.5q6.5 37.5 6.5 73.5q0 39 -9 69l-353 -366q39 -30 110 -30z" />
<glyph unicode="&#217;" horiz-adv-x="744" d="M374 -12q-108 0 -169.5 50q-61.5 50 -61.5 147q0 29 5.5 70.5q5.5 41.5 16.5 89.5l75 355h134l-79 -370q-11 -48 -13.5 -78q-2.5 -30 -2.5 -47q0 -55 33.5 -77.5q33.5 -22.5 84.5 -22.5q39 0 68 8q29 8 51 28.5q22 20.5 37.5 55q15.5 34.5 26.5 87.5l88 416h134l-90 -422q-18 -84 -45.5 -140q-27.5 -56 -68 -89.5q-40.5 -33.5 -96 -47q-55.5 -13.5 -128.5 -13.5zt0 0zM372 920h159l53 -160l-100 0z" />
<glyph unicode="&#218;" horiz-adv-x="744" d="M374 -12q-108 0 -169.5 50q-61.5 50 -61.5 147q0 29 5.5 70.5q5.5 41.5 16.5 89.5l75 355h134l-79 -370q-11 -48 -13.5 -78q-2.5 -30 -2.5 -47q0 -55 33.5 -77.5q33.5 -22.5 84.5 -22.5q39 0 68 8q29 8 51 28.5q22 20.5 37.5 55q15.5 34.5 26.5 87.5l88 416h134l-90 -422q-18 -84 -45.5 -140q-27.5 -56 -68 -89.5q-40.5 -33.5 -96 -47q-55.5 -13.5 -128.5 -13.5zt0 0zM617 920h160l-192 -160l-102 0z" />
<glyph unicode="&#219;" horiz-adv-x="744" d="M374 -12q-108 0 -169.5 50q-61.5 50 -61.5 147q0 29 5.5 70.5q5.5 41.5 16.5 89.5l75 355h134l-79 -370q-11 -48 -13.5 -78q-2.5 -30 -2.5 -47q0 -55 33.5 -77.5q33.5 -22.5 84.5 -22.5q39 0 68 8q29 8 51 28.5q22 20.5 37.5 55q15.5 34.5 26.5 87.5l88 416h134l-90 -422q-18 -84 -45.5 -140q-27.5 -56 -68 -89.5q-40.5 -33.5 -96 -47q-55.5 -13.5 -128.5 -13.5zt0 0zM501 920h134l87 -160h-98l-64 96l-108 -96l-106 0z" />
<glyph unicode="&#220;" horiz-adv-x="744" d="M374 -12q-108 0 -169.5 50q-61.5 50 -61.5 147q0 29 5.5 70.5q5.5 41.5 16.5 89.5l75 355h134l-79 -370q-11 -48 -13.5 -78q-2.5 -30 -2.5 -47q0 -55 33.5 -77.5q33.5 -22.5 84.5 -22.5q39 0 68 8q29 8 51 28.5q22 20.5 37.5 55q15.5 34.5 26.5 87.5l88 416h134l-90 -422q-18 -84 -45.5 -140q-27.5 -56 -68 -89.5q-40.5 -33.5 -96 -47q-55.5 -13.5 -128.5 -13.5zt0 0zM443 772q-74 0 -74 68q0 68 74 68q74 0 74 -68q0 -68 -74 -68zt0 0zM659 772q-74 0 -74 68q0 68 74 68q74 0 74 -68q0 -68 -74 -68z" />
<glyph unicode="&#221;" horiz-adv-x="649" d="M313 260l-149 440h144l98 -294l219 294h159l-337 -439l-55 -261h-134zM569 920h160l-192 -160l-102 0z" />
<glyph unicode="&#222;" horiz-adv-x="663" d="M245 700h134l-21 -99q39 3 86 3q131 0 190.5 -50.5q59.5 -50.5 59.5 -144.5q0 -158 -91 -230q-91 -72 -266 -72q-50 0 -84 3l-23 -110h-134zM278 226q20 -2 38.5 -2.5q18.5 -0.5 44.5 -0.5q48 0 84 8.5q36 8.5 59.5 27.5q23.5 19 35 50q11.5 31 11.5 76q0 49 -28 75.5q-28 26.5 -104 26.5q-44 0 -86 -3z" />
<glyph unicode="&#223;" horiz-adv-x="670" d="M190 512q27 129 102.5 194.5q75.5 65.5 218.5 65.5q95 0 146 -41q51 -41 51 -112q0 -75 -43 -130.5q-43 -55.5 -115 -78.5l-1 -3q53 -8 84.5 -40q31.5 -32 31.5 -93q0 -60 -22 -112q-22 -52 -60 -91q-38 -39 -90.5 -61q-52.5 -22 -113.5 -22q-51 0 -88 12l22 107q27 -9 67 -9q37 0 65.5 13.5q28.5 13.5 47.5 36.5q19 23 29 53.5q10 30.5 10 64.5q0 26 -8.5 42q-8.5 16 -22.5 25q-14 9 -34 12.5q-20 3.5 -42 3.5h-46l21 101h39q30 0 55 11.5q25 11.5 42.5 31q17.5 19.5 27.5 44.5q10 25 10 53q0 39 -26.5 55.5q-26.5 16.5 -67.5 16.5q-37 0 -64 -10q-27 -10 -46 -29q-19 -19 -31 -46q-12 -27 -19 -61l-109 -516l-130 0z" />
<glyph unicode="&#224;" horiz-adv-x="671" d="M481 89q-14 -21 -31.5 -39.5q-17.5 -18.5 -40 -32q-22.5 -13.5 -51 -21.5q-28.5 -8 -64.5 -8q-93 0 -143.5 52q-50.5 52 -50.5 149q0 67 15.5 132q15.5 65 50 116.5q34.5 51.5 89 83q54.5 31.5 132.5 31.5q39 0 67.5 -8.5q28.5 -8.5 49 -23q20.5 -14.5 33 -34.5q12.5 -20 19.5 -43l39 97h110l-115 -540h-113zM233 214q0 -62 33.5 -89q33.5 -27 86.5 -27q68 0 106 38q38 38 53 109l8 40q3 14 4 26.5q1 12.5 1 22.5q0 56 -29.5 82q-29.5 26 -86.5 26q-48 0 -81.5 -19.5q-33.5 -19.5 -54.5 -51.5q-21 -32 -30.5 -73q-9.5 -41 -9.5 -84zt0 0zM401 625l-150 150h158l92 -150z" />
<glyph unicode="&#225;" horiz-adv-x="671" d="M481 89q-14 -21 -31.5 -39.5q-17.5 -18.5 -40 -32q-22.5 -13.5 -51 -21.5q-28.5 -8 -64.5 -8q-93 0 -143.5 52q-50.5 52 -50.5 149q0 67 15.5 132q15.5 65 50 116.5q34.5 51.5 89 83q54.5 31.5 132.5 31.5q39 0 67.5 -8.5q28.5 -8.5 49 -23q20.5 -14.5 33 -34.5q12.5 -20 19.5 -43l39 97h110l-115 -540h-113zM233 214q0 -62 33.5 -89q33.5 -27 86.5 -27q68 0 106 38q38 38 53 109l8 40q3 14 4 26.5q1 12.5 1 22.5q0 56 -29.5 82q-29.5 26 -86.5 26q-48 0 -81.5 -19.5q-33.5 -19.5 -54.5 -51.5q-21 -32 -30.5 -73q-9.5 -41 -9.5 -84zt0 0zM525 775h158l-182 -150l-100 0z" />
<glyph unicode="&#226;" horiz-adv-x="671" d="M481 89q-14 -21 -31.5 -39.5q-17.5 -18.5 -40 -32q-22.5 -13.5 -51 -21.5q-28.5 -8 -64.5 -8q-93 0 -143.5 52q-50.5 52 -50.5 149q0 67 15.5 132q15.5 65 50 116.5q34.5 51.5 89 83q54.5 31.5 132.5 31.5q39 0 67.5 -8.5q28.5 -8.5 49 -23q20.5 -14.5 33 -34.5q12.5 -20 19.5 -43l39 97h110l-115 -540h-113zM233 214q0 -62 33.5 -89q33.5 -27 86.5 -27q68 0 106 38q38 38 53 109l8 40q3 14 4 26.5q1 12.5 1 22.5q0 56 -29.5 82q-29.5 26 -86.5 26q-48 0 -81.5 -19.5q-33.5 -19.5 -54.5 -51.5q-21 -32 -30.5 -73q-9.5 -41 -9.5 -84zt0 0zM418 775h131l79 -150h-98l-55 86l-95 -86l-105 0z" />
<glyph unicode="&#227;" horiz-adv-x="671" d="M481 89q-14 -21 -31.5 -39.5q-17.5 -18.5 -40 -32q-22.5 -13.5 -51 -21.5q-28.5 -8 -64.5 -8q-93 0 -143.5 52q-50.5 52 -50.5 149q0 67 15.5 132q15.5 65 50 116.5q34.5 51.5 89 83q54.5 31.5 132.5 31.5q39 0 67.5 -8.5q28.5 -8.5 49 -23q20.5 -14.5 33 -34.5q12.5 -20 19.5 -43l39 97h110l-115 -540h-113zM233 214q0 -62 33.5 -89q33.5 -27 86.5 -27q68 0 106 38q38 38 53 109l8 40q3 14 4 26.5q1 12.5 1 22.5q0 56 -29.5 82q-29.5 26 -86.5 26q-48 0 -81.5 -19.5q-33.5 -19.5 -54.5 -51.5q-21 -32 -30.5 -73q-9.5 -41 -9.5 -84zt0 0zM292 648q3 57 31 86.5q28 29.5 70 29.5q20 0 39 -7q19 -7 42 -18q25 -11 36.5 -16q11.5 -5 25.5 -5q31 0 38 46l68 -13q-3 -54 -30.5 -84.5q-27.5 -30.5 -68.5 -30.5q-11 0 -20 1q-9 1 -18.5 4q-9.5 3 -20 7.5q-10.5 4.5 -24.5 11.5q-21 10 -33 16.5q-12 6.5 -26 6.5q-14 0 -24.5 -11.5q-10.5 -11.5 -15.5 -35.5z" />
<glyph unicode="&#228;" horiz-adv-x="671" d="M481 89q-14 -21 -31.5 -39.5q-17.5 -18.5 -40 -32q-22.5 -13.5 -51 -21.5q-28.5 -8 -64.5 -8q-93 0 -143.5 52q-50.5 52 -50.5 149q0 67 15.5 132q15.5 65 50 116.5q34.5 51.5 89 83q54.5 31.5 132.5 31.5q39 0 67.5 -8.5q28.5 -8.5 49 -23q20.5 -14.5 33 -34.5q12.5 -20 19.5 -43l39 97h110l-115 -540h-113zM233 214q0 -62 33.5 -89q33.5 -27 86.5 -27q68 0 106 38q38 38 53 109l8 40q3 14 4 26.5q1 12.5 1 22.5q0 56 -29.5 82q-29.5 26 -86.5 26q-48 0 -81.5 -19.5q-33.5 -19.5 -54.5 -51.5q-21 -32 -30.5 -73q-9.5 -41 -9.5 -84zt0 0zM366 634q-38 0 -55 16.5q-17 16.5 -17 49.5q0 33 17 49.5q17 16.5 55 16.5q72 0 72 -66q0 -66 -72 -66zt0 0zM568 634q-38 0 -55 16.5q-17 16.5 -17 49.5q0 33 17 49.5q17 16.5 55 16.5q72 0 72 -66q0 -66 -72 -66z" />
<glyph unicode="&#229;" horiz-adv-x="671" d="M481 89q-14 -21 -31.5 -39.5q-17.5 -18.5 -40 -32q-22.5 -13.5 -51 -21.5q-28.5 -8 -64.5 -8q-93 0 -143.5 52q-50.5 52 -50.5 149q0 67 15.5 132q15.5 65 50 116.5q34.5 51.5 89 83q54.5 31.5 132.5 31.5q39 0 67.5 -8.5q28.5 -8.5 49 -23q20.5 -14.5 33 -34.5q12.5 -20 19.5 -43l39 97h110l-115 -540h-113zM233 214q0 -62 33.5 -89q33.5 -27 86.5 -27q68 0 106 38q38 38 53 109l8 40q3 14 4 26.5q1 12.5 1 22.5q0 56 -29.5 82q-29.5 26 -86.5 26q-48 0 -81.5 -19.5q-33.5 -19.5 -54.5 -51.5q-21 -32 -30.5 -73q-9.5 -41 -9.5 -84zt0 0zM467 596q-49 0 -78.5 29.5q-29.5 29.5 -29.5 74.5q0 46 29.5 75q29.5 29 78.5 29q48 0 78 -29q30 -29 30 -75q0 -45 -30 -74.5q-30 -29.5 -78 -29.5zt0 0zM467 654q20 0 33 13q13 13 13 33q0 20 -13 33q-13 13 -33 13q-20 0 -33 -13q-13 -13 -13 -33q0 -20 13 -33t33 -13z" />
<glyph unicode="&#230;" horiz-adv-x="939" d="M574 237q-2 -11 -2 -19.5q0 -8.5 0 -18.5q0 -109 138 -109q28 0 57 5q29 5 56 14q27 9 51 21.5q24 12.5 42 27.5l-23 -112q-45 -32 -102 -45q-57 -13 -118 -13q-73 0 -123 25q-50 25 -76 70q-25 -24 -49 -42q-24 -18 -51 -29.5q-27 -11.5 -58 -17.5q-31 -6 -70 -6q-35 0 -66.5 5.5q-31.5 5.5 -55.5 20.5q-24 15 -38 41q-14 26 -14 66q0 103 73 149.5q73 46.5 201 46.5h113l7 28q5 17 5 36q0 70 -101 70q-27 0 -55.5 -5q-28.5 -5 -55 -13.5q-26.5 -8.5 -49.5 -19q-23 -10.5 -39 -21.5l27 122q45 20 99 29q54 9 126 9q63 0 99.5 -14.5q36.5 -14.5 54.5 -44.5q39 30 90 44.5q51 14.5 110 14.5q99 0 148.5 -37q49.5 -37 49.5 -106q0 -89 -79 -130.5q-79 -41.5 -220 -41.5zM754 451q-65 0 -106 -32.5q-41 -32.5 -58 -101.5l102 0q78 0 114 18.5q36 18.5 36 51.5q0 37 -24.5 50.5q-24.5 13.5 -63.5 13.5zt0 0zM346 238q-66 0 -101.5 -18.5q-35.5 -18.5 -35.5 -68.5q0 -61 80 -61q65 0 102.5 32q37.5 32 46.5 83l6 33z" />
<glyph unicode="&#231;" horiz-adv-x="560" d="M299 -10q-45 4 -81.5 19q-36.5 15 -62.5 41.5q-26 26.5 -40.5 64.5q-14.5 38 -14.5 88q0 83 22.5 148q22.5 65 65.5 109.5q43 44.5 105 68q62 23.5 141 23.5q61 0 102.5 -12q41.5 -12 63.5 -26l-29 -120q-22 18 -59.5 33q-37.5 15 -85.5 15q-94 0 -143.5 -56q-49.5 -56 -49.5 -161q0 -57 37.5 -92q37.5 -35 112.5 -35q47 0 87 15.5q40 15.5 72 37.5l-26 -115q-23 -14 -60 -28q-37 -14 -88 -19l-16 -40q38 -1 64.5 -15.5q26.5 -14.5 26.5 -50.5q0 -28 -12.5 -50.5q-12.5 -22.5 -33.5 -39q-21 -16.5 -47.5 -25.5q-26.5 -9 -54.5 -9q-53 0 -88 16l22 57q13 -5 26 -8.5q13 -3.5 30 -3.5q22 0 43.5 13.5q21.5 13.5 21.5 40.5q0 17 -15.5 23q-15.5 6 -35.5 6q-6 0 -15.5 0q-9.5 0 -16.5 -1z" />
<glyph unicode="&#232;" horiz-adv-x="595" d="M338 -12q-60 0 -105 15q-45 15 -75 42.5q-30 27.5 -44.5 66q-14.5 38.5 -14.5 85.5q0 78 22 143q22 65 64 112q42 47 102 73.5q60 26.5 136 26.5q58 0 98 -11q40 -11 64.5 -30.5q24.5 -19.5 35 -46q10.5 -26.5 10.5 -56.5q0 -33 -13.5 -64q-13.5 -31 -47 -55q-33.5 -24 -90.5 -38.5q-57 -14.5 -144 -14.5h-105q-1 -7 -2 -16q-1 -9 -1 -20q0 -54 33.5 -82q33.5 -28 106.5 -28q28 0 56.5 5q28.5 5 55.5 14q27 9 51 21.5q24 12.5 42 27.5l-23 -112q-29 -22 -86.5 -40q-57.5 -18 -125.5 -18zt0 0zM351 314q46 0 74.5 6.5q28.5 6.5 44.5 17q16 10.5 22 24q6 13.5 6 27.5q0 25 -17 43q-17 18 -67 18q-72 0 -111 -34.5q-39 -34.5 -56 -101.5zM380 625l-150 150h158l92 -150z" />
<glyph unicode="&#233;" horiz-adv-x="595" d="M338 -12q-60 0 -105 15q-45 15 -75 42.5q-30 27.5 -44.5 66q-14.5 38.5 -14.5 85.5q0 78 22 143q22 65 64 112q42 47 102 73.5q60 26.5 136 26.5q58 0 98 -11q40 -11 64.5 -30.5q24.5 -19.5 35 -46q10.5 -26.5 10.5 -56.5q0 -33 -13.5 -64q-13.5 -31 -47 -55q-33.5 -24 -90.5 -38.5q-57 -14.5 -144 -14.5h-105q-1 -7 -2 -16q-1 -9 -1 -20q0 -54 33.5 -82q33.5 -28 106.5 -28q28 0 56.5 5q28.5 5 55.5 14q27 9 51 21.5q24 12.5 42 27.5l-23 -112q-29 -22 -86.5 -40q-57.5 -18 -125.5 -18zt0 0zM351 314q46 0 74.5 6.5q28.5 6.5 44.5 17q16 10.5 22 24q6 13.5 6 27.5q0 25 -17 43q-17 18 -67 18q-72 0 -111 -34.5q-39 -34.5 -56 -101.5zM504 775h158l-182 -150l-100 0z" />
<glyph unicode="&#234;" horiz-adv-x="595" d="M338 -12q-60 0 -105 15q-45 15 -75 42.5q-30 27.5 -44.5 66q-14.5 38.5 -14.5 85.5q0 78 22 143q22 65 64 112q42 47 102 73.5q60 26.5 136 26.5q58 0 98 -11q40 -11 64.5 -30.5q24.5 -19.5 35 -46q10.5 -26.5 10.5 -56.5q0 -33 -13.5 -64q-13.5 -31 -47 -55q-33.5 -24 -90.5 -38.5q-57 -14.5 -144 -14.5h-105q-1 -7 -2 -16q-1 -9 -1 -20q0 -54 33.5 -82q33.5 -28 106.5 -28q28 0 56.5 5q28.5 5 55.5 14q27 9 51 21.5q24 12.5 42 27.5l-23 -112q-29 -22 -86.5 -40q-57.5 -18 -125.5 -18zt0 0zM351 314q46 0 74.5 6.5q28.5 6.5 44.5 17q16 10.5 22 24q6 13.5 6 27.5q0 25 -17 43q-17 18 -67 18q-72 0 -111 -34.5q-39 -34.5 -56 -101.5zM395 775h131l79 -150h-98l-55 86l-95 -86l-105 0z" />
<glyph unicode="&#235;" horiz-adv-x="595" d="M338 -12q-60 0 -105 15q-45 15 -75 42.5q-30 27.5 -44.5 66q-14.5 38.5 -14.5 85.5q0 78 22 143q22 65 64 112q42 47 102 73.5q60 26.5 136 26.5q58 0 98 -11q40 -11 64.5 -30.5q24.5 -19.5 35 -46q10.5 -26.5 10.5 -56.5q0 -33 -13.5 -64q-13.5 -31 -47 -55q-33.5 -24 -90.5 -38.5q-57 -14.5 -144 -14.5h-105q-1 -7 -2 -16q-1 -9 -1 -20q0 -54 33.5 -82q33.5 -28 106.5 -28q28 0 56.5 5q28.5 5 55.5 14q27 9 51 21.5q24 12.5 42 27.5l-23 -112q-29 -22 -86.5 -40q-57.5 -18 -125.5 -18zt0 0zM351 314q46 0 74.5 6.5q28.5 6.5 44.5 17q16 10.5 22 24q6 13.5 6 27.5q0 25 -17 43q-17 18 -67 18q-72 0 -111 -34.5q-39 -34.5 -56 -101.5zM345 634q-38 0 -55 16.5q-17 16.5 -17 49.5q0 33 17 49.5q17 16.5 55 16.5q72 0 72 -66q0 -66 -72 -66zt0 0zM547 634q-38 0 -55 16.5q-17 16.5 -17 49.5q0 33 17 49.5q17 16.5 55 16.5q72 0 72 -66q0 -66 -72 -66z" />
<glyph unicode="&#236;" horiz-adv-x="308" d="M89 0l115 540h130l-115 -540zM237 625l-150 150h158l92 -150z" />
<glyph unicode="&#237;" horiz-adv-x="308" d="M89 0l115 540h130l-115 -540zM361 775h158l-182 -150l-100 0z" />
<glyph unicode="&#238;" horiz-adv-x="308" d="M89 0l115 540h130l-115 -540zM253 775h131l79 -150h-98l-55 86l-95 -86l-105 0z" />
<glyph unicode="&#239;" horiz-adv-x="308" d="M89 0l115 540h130l-115 -540zM203 634q-38 0 -55 16.5q-17 16.5 -17 49.5q0 33 17 49.5q17 16.5 55 16.5q72 0 72 -66q0 -66 -72 -66zt0 0zM405 634q-38 0 -55 16.5q-17 16.5 -17 49.5q0 33 17 49.5q17 16.5 55 16.5q72 0 72 -66q0 -66 -72 -66z" />
<glyph unicode="&#240;" horiz-adv-x="638" d="M292 614l98 45q-52 29 -122 43l63 85q105 -21 179 -74l147 67l19 -54l-117 -54q50 -51 76.5 -118q26.5 -67 26.5 -150q0 -95 -25 -172q-25 -77 -71.5 -131q-46.5 -54 -111.5 -83.5q-65 -29.5 -145 -29.5q-106 0 -161 46.5q-55 46.5 -55 138.5q0 76 23 140q23 64 63.5 110.5q40.5 46.5 97 72.5q56.5 26 123.5 26q37 0 72 -14q35 -14 59 -48l4 2q-5 46 -28 86.5q-23 40.5 -61 72.5l-135 -62zM338 98q39 0 72 17q33 17 57 46.5q24 29.5 38 70q14 40.5 14 88.5q0 48 -28.5 73.5q-28.5 25.5 -82.5 25.5q-40 0 -73.5 -16q-33.5 -16 -57.5 -45.5q-24 -29.5 -37.5 -69.5q-13.5 -40 -13.5 -88q0 -51 29.5 -76.5t82.5 -25.5z" />
<glyph unicode="&#241;" horiz-adv-x="658" d="M196 540h113l-2 -83q35 51 86 73q51 22 113 22q78 0 119.5 -29q41.5 -29 41.5 -98q0 -14 -2 -31q-2 -17 -6 -37l-76 -357h-130l67 316q3 17 5 31q2 14 2 25q0 40 -23 55q-23 15 -74 15q-127 0 -153 -130l-66 -312h-130zM306 648q3 57 31 86.5q28 29.5 70 29.5q20 0 39 -7q19 -7 42 -18q25 -11 36.5 -16q11.5 -5 25.5 -5q31 0 38 46l68 -13q-3 -54 -30.5 -84.5q-27.5 -30.5 -68.5 -30.5q-11 0 -20 1q-9 1 -18.5 4q-9.5 3 -20 7.5q-10.5 4.5 -24.5 11.5q-21 10 -33 16.5q-12 6.5 -26 6.5q-14 0 -24.5 -11.5q-10.5 -11.5 -15.5 -35.5z" />
<glyph unicode="&#242;" horiz-adv-x="650" d="M100 209q0 74 21.5 137q21.5 63 63 108.5q41.5 45.5 102.5 71.5q61 26 140 26q48 0 91 -12.5q43 -12.5 75 -38.5q32 -26 51 -66q19 -40 19 -96q0 -78 -20 -142.5q-20 -64.5 -60 -111q-40 -46.5 -99 -72q-59 -25.5 -138 -25.5q-61 0 -107 16q-46 16 -77 45q-31 29 -46.5 69.5q-15.5 40.5 -15.5 90.5zt0 0zM234 219q0 -55 28.5 -88q28.5 -33 95.5 -33q46 0 78.5 21.5q32.5 21.5 53 55q20.5 33.5 30 74.5q9.5 41 9.5 81q0 112 -115 112q-44 0 -78 -18q-34 -18 -56.5 -48.5q-22.5 -30.5 -34 -71q-11.5 -40.5 -11.5 -85.5zt0 0zM407 625l-150 150h158l92 -150z" />
<glyph unicode="&#243;" horiz-adv-x="650" d="M100 209q0 74 21.5 137q21.5 63 63 108.5q41.5 45.5 102.5 71.5q61 26 140 26q48 0 91 -12.5q43 -12.5 75 -38.5q32 -26 51 -66q19 -40 19 -96q0 -78 -20 -142.5q-20 -64.5 -60 -111q-40 -46.5 -99 -72q-59 -25.5 -138 -25.5q-61 0 -107 16q-46 16 -77 45q-31 29 -46.5 69.5q-15.5 40.5 -15.5 90.5zt0 0zM234 219q0 -55 28.5 -88q28.5 -33 95.5 -33q46 0 78.5 21.5q32.5 21.5 53 55q20.5 33.5 30 74.5q9.5 41 9.5 81q0 112 -115 112q-44 0 -78 -18q-34 -18 -56.5 -48.5q-22.5 -30.5 -34 -71q-11.5 -40.5 -11.5 -85.5zt0 0zM531 775h158l-182 -150l-100 0z" />
<glyph unicode="&#244;" horiz-adv-x="650" d="M100 209q0 74 21.5 137q21.5 63 63 108.5q41.5 45.5 102.5 71.5q61 26 140 26q48 0 91 -12.5q43 -12.5 75 -38.5q32 -26 51 -66q19 -40 19 -96q0 -78 -20 -142.5q-20 -64.5 -60 -111q-40 -46.5 -99 -72q-59 -25.5 -138 -25.5q-61 0 -107 16q-46 16 -77 45q-31 29 -46.5 69.5q-15.5 40.5 -15.5 90.5zt0 0zM234 219q0 -55 28.5 -88q28.5 -33 95.5 -33q46 0 78.5 21.5q32.5 21.5 53 55q20.5 33.5 30 74.5q9.5 41 9.5 81q0 112 -115 112q-44 0 -78 -18q-34 -18 -56.5 -48.5q-22.5 -30.5 -34 -71q-11.5 -40.5 -11.5 -85.5zt0 0zM424 775h131l79 -150h-98l-55 86l-95 -86l-105 0z" />
<glyph unicode="&#245;" horiz-adv-x="650" d="M100 209q0 74 21.5 137q21.5 63 63 108.5q41.5 45.5 102.5 71.5q61 26 140 26q48 0 91 -12.5q43 -12.5 75 -38.5q32 -26 51 -66q19 -40 19 -96q0 -78 -20 -142.5q-20 -64.5 -60 -111q-40 -46.5 -99 -72q-59 -25.5 -138 -25.5q-61 0 -107 16q-46 16 -77 45q-31 29 -46.5 69.5q-15.5 40.5 -15.5 90.5zt0 0zM234 219q0 -55 28.5 -88q28.5 -33 95.5 -33q46 0 78.5 21.5q32.5 21.5 53 55q20.5 33.5 30 74.5q9.5 41 9.5 81q0 112 -115 112q-44 0 -78 -18q-34 -18 -56.5 -48.5q-22.5 -30.5 -34 -71q-11.5 -40.5 -11.5 -85.5zt0 0zM298 648q3 57 31 86.5q28 29.5 70 29.5q20 0 39 -7q19 -7 42 -18q25 -11 36.5 -16q11.5 -5 25.5 -5q31 0 38 46l68 -13q-3 -54 -30.5 -84.5q-27.5 -30.5 -68.5 -30.5q-11 0 -20 1q-9 1 -18.5 4q-9.5 3 -20 7.5q-10.5 4.5 -24.5 11.5q-21 10 -33 16.5q-12 6.5 -26 6.5q-14 0 -24.5 -11.5q-10.5 -11.5 -15.5 -35.5z" />
<glyph unicode="&#246;" horiz-adv-x="650" d="M100 209q0 74 21.5 137q21.5 63 63 108.5q41.5 45.5 102.5 71.5q61 26 140 26q48 0 91 -12.5q43 -12.5 75 -38.5q32 -26 51 -66q19 -40 19 -96q0 -78 -20 -142.5q-20 -64.5 -60 -111q-40 -46.5 -99 -72q-59 -25.5 -138 -25.5q-61 0 -107 16q-46 16 -77 45q-31 29 -46.5 69.5q-15.5 40.5 -15.5 90.5zt0 0zM234 219q0 -55 28.5 -88q28.5 -33 95.5 -33q46 0 78.5 21.5q32.5 21.5 53 55q20.5 33.5 30 74.5q9.5 41 9.5 81q0 112 -115 112q-44 0 -78 -18q-34 -18 -56.5 -48.5q-22.5 -30.5 -34 -71q-11.5 -40.5 -11.5 -85.5zt0 0zM372 634q-38 0 -55 16.5q-17 16.5 -17 49.5q0 33 17 49.5q17 16.5 55 16.5q72 0 72 -66q0 -66 -72 -66zt0 0zM574 634q-38 0 -55 16.5q-17 16.5 -17 49.5q0 33 17 49.5q17 16.5 55 16.5q72 0 72 -66q0 -66 -72 -66z" />
<glyph unicode="&#247;" horiz-adv-x="618" d="M602 382v-110h-448v110zM378 52q-85 0 -85 83q0 82 85 82q85 0 85 -82q0 -83 -85 -83zt0 0zM378 437q-85 0 -85 83q0 82 85 82q85 0 85 -82q0 -83 -85 -83z" />
<glyph unicode="&#248;" horiz-adv-x="650" d="M100 209q0 74 21.5 137q21.5 63 63 108.5q41.5 45.5 102.5 71.5q61 26 140 26q45 0 82.5 -10q37.5 -10 66.5 -29l70 72l47 -40l-71 -73q41 -50 41 -133q0 -78 -20 -142.5q-20 -64.5 -60 -111q-40 -46.5 -99 -72q-59 -25.5 -138 -25.5q-49 0 -87.5 10q-38.5 10 -68.5 29l-73 -76l-46 40l74 76q-23 28 -34 64q-11 36 -11 78zt0 0zM529 330q0 12 -1 21.5q-1 9.5 -4 19.5l-246 -254q30 -19 80 -19q46 0 78.5 21.5q32.5 21.5 53 55q20.5 33.5 30 74.5q9.5 41 9.5 81zt0 0zM234 219q0 -14 1.5 -28q1.5 -14 5.5 -25l249 258q-30 18 -76 18q-44 0 -78 -18q-34 -18 -56.5 -48.5q-22.5 -30.5 -34 -71t-11.5 -85.5z" />
<glyph unicode="&#249;" horiz-adv-x="649" d="M256 -12q-149 0 -149 126q0 16 1.5 33q1.5 17 6.5 37l76 356h130l-69 -326q-6 -26 -6 -46q0 -37 21.5 -53.5q21.5 -16.5 69.5 -16.5q63 0 99 32.5q36 32.5 50 98.5l67 311h130l-115 -540h-113v85q-37 -51 -85 -74q-48 -23 -114 -23zt0 0zM405 625l-150 150h158l92 -150z" />
<glyph unicode="&#250;" horiz-adv-x="649" d="M256 -12q-149 0 -149 126q0 16 1.5 33q1.5 17 6.5 37l76 356h130l-69 -326q-6 -26 -6 -46q0 -37 21.5 -53.5q21.5 -16.5 69.5 -16.5q63 0 99 32.5q36 32.5 50 98.5l67 311h130l-115 -540h-113v85q-37 -51 -85 -74q-48 -23 -114 -23zt0 0zM529 775h158l-182 -150l-100 0z" />
<glyph unicode="&#251;" horiz-adv-x="649" d="M256 -12q-149 0 -149 126q0 16 1.5 33q1.5 17 6.5 37l76 356h130l-69 -326q-6 -26 -6 -46q0 -37 21.5 -53.5q21.5 -16.5 69.5 -16.5q63 0 99 32.5q36 32.5 50 98.5l67 311h130l-115 -540h-113v85q-37 -51 -85 -74q-48 -23 -114 -23zt0 0zM422 775h131l79 -150h-98l-55 86l-95 -86l-105 0z" />
<glyph unicode="&#252;" horiz-adv-x="649" d="M256 -12q-149 0 -149 126q0 16 1.5 33q1.5 17 6.5 37l76 356h130l-69 -326q-6 -26 -6 -46q0 -37 21.5 -53.5q21.5 -16.5 69.5 -16.5q63 0 99 32.5q36 32.5 50 98.5l67 311h130l-115 -540h-113v85q-37 -51 -85 -74q-48 -23 -114 -23zt0 0zM369 634q-38 0 -55 16.5q-17 16.5 -17 49.5q0 33 17 49.5q17 16.5 55 16.5q72 0 72 -66q0 -66 -72 -66zt0 0zM571 634q-38 0 -55 16.5q-17 16.5 -17 49.5q0 33 17 49.5q17 16.5 55 16.5q72 0 72 -66q0 -66 -72 -66z" />
<glyph unicode="&#253;" horiz-adv-x="576" d="M101 -63q11 -7 26.5 -13q15.5 -6 33.5 -6q26 0 45 18.5q19 18.5 41 60.5l-115 543h143l63 -384l195 384h139l-298 -535q-34 -60 -62 -98.5q-28 -38.5 -54 -60.5q-26 -22 -52.5 -30q-26.5 -8 -56.5 -8q-21 0 -41.5 3.5q-20.5 3.5 -31.5 9.5zM495 775h158l-182 -150l-100 0z" />
<glyph unicode="&#254;" horiz-adv-x="671" d="M243 760h129l-66 -306q13 21 30 39q17 18 39 31q22 13 50.5 20.5q28.5 7.5 64.5 7.5q94 0 144.5 -51.5q50.5 -51.5 50.5 -148.5q0 -67 -15.5 -132.5q-15.5 -65.5 -50 -117q-34.5 -51.5 -89.5 -83q-55 -31.5 -134 -31.5q-71 0 -112.5 30.5q-41.5 30.5 -53.5 71.5l-58 -270h-130zM376 98q46 0 79 20.5q33 20.5 54.5 53q21.5 32.5 32 74q10.5 41.5 10.5 83.5q0 62 -33 87.5q-33 25.5 -87 25.5q-66 0 -105 -40.5q-39 -40.5 -54 -106.5l-9 -40q-8 -38 -2.5 -67q5.5 -29 21.5 -49q16 -20 40 -30.5t53 -10.5z" />
<glyph unicode="&#255;" horiz-adv-x="576" d="M101 -63q11 -7 26.5 -13q15.5 -6 33.5 -6q26 0 45 18.5q19 18.5 41 60.5l-115 543h143l63 -384l195 384h139l-298 -535q-34 -60 -62 -98.5q-28 -38.5 -54 -60.5q-26 -22 -52.5 -30q-26.5 -8 -56.5 -8q-21 0 -41.5 3.5q-20.5 3.5 -31.5 9.5zM336 634q-38 0 -55 16.5q-17 16.5 -17 49.5q0 33 17 49.5q17 16.5 55 16.5q72 0 72 -66q0 -66 -72 -66zt0 0zM538 634q-38 0 -55 16.5q-17 16.5 -17 49.5q0 33 17 49.5q17 16.5 55 16.5q72 0 72 -66q0 -66 -72 -66z" />
<glyph unicode="&#256;" horiz-adv-x="688" d="M415 700h155l102 -700h-133l-22 163h-271l-90 -163h-140zM308 276h194l-37 283zM358 884h330v-88l-330 0z" />
<glyph unicode="&#257;" horiz-adv-x="671" d="M481 89q-14 -21 -31.5 -39.5q-17.5 -18.5 -40 -32q-22.5 -13.5 -51 -21.5q-28.5 -8 -64.5 -8q-93 0 -143.5 52q-50.5 52 -50.5 149q0 67 15.5 132q15.5 65 50 116.5q34.5 51.5 89 83q54.5 31.5 132.5 31.5q39 0 67.5 -8.5q28.5 -8.5 49 -23q20.5 -14.5 33 -34.5q12.5 -20 19.5 -43l39 97h110l-115 -540h-113zM233 214q0 -62 33.5 -89q33.5 -27 86.5 -27q68 0 106 38q38 38 53 109l8 40q3 14 4 26.5q1 12.5 1 22.5q0 56 -29.5 82q-29.5 26 -86.5 26q-48 0 -81.5 -19.5q-33.5 -19.5 -54.5 -51.5q-21 -32 -30.5 -73q-9.5 -41 -9.5 -84zt0 0zM308 742h316v-84l-316 0z" />
<glyph unicode="&#258;" horiz-adv-x="688" d="M415 700h155l102 -700h-133l-22 163h-271l-90 -163h-140zM308 276h194l-37 283zM448 920q6 -76 75 -76q67 0 108 76l74 -21q-67 -139 -200 -139q-134 0 -140 139z" />
<glyph unicode="&#259;" horiz-adv-x="671" d="M481 89q-14 -21 -31.5 -39.5q-17.5 -18.5 -40 -32q-22.5 -13.5 -51 -21.5q-28.5 -8 -64.5 -8q-93 0 -143.5 52q-50.5 52 -50.5 149q0 67 15.5 132q15.5 65 50 116.5q34.5 51.5 89 83q54.5 31.5 132.5 31.5q39 0 67.5 -8.5q28.5 -8.5 49 -23q20.5 -14.5 33 -34.5q12.5 -20 19.5 -43l39 97h110l-115 -540h-113zM233 214q0 -62 33.5 -89q33.5 -27 86.5 -27q68 0 106 38q38 38 53 109l8 40q3 14 4 26.5q1 12.5 1 22.5q0 56 -29.5 82q-29.5 26 -86.5 26q-48 0 -81.5 -19.5q-33.5 -19.5 -54.5 -51.5q-21 -32 -30.5 -73q-9.5 -41 -9.5 -84zt0 0zM390 780q4 -38 23 -58q19 -20 54 -20q35 0 63 20q28 20 47 58l72 -21q-67 -139 -199 -139q-133 0 -141 139z" />
<glyph unicode="&#260;" horiz-adv-x="688" d="M535 -254q-58 0 -81 23q-23 23 -23 55q0 30 13 56q13 26 33 48q20 22 45.5 40q25.5 18 49.5 32l-33 0l-22 163h-271l-90 -163h-140l399 700h155l102 -700h-27q-18 -11 -38 -26q-20 -15 -37 -33.5q-17 -18.5 -28 -40q-11 -21.5 -11 -44.5q0 -20 13.5 -30q13.5 -10 36.5 -10q35 0 66 17l-14 -66q-19 -8 -43.5 -14.5q-24.5 -6.5 -54.5 -6.5zt0 0zM308 276h194l-37 283z" />
<glyph unicode="&#261;" horiz-adv-x="671" d="M481 89q-14 -21 -31.5 -39.5q-17.5 -18.5 -40 -32q-22.5 -13.5 -51 -21.5q-28.5 -8 -64.5 -8q-93 0 -143.5 52q-50.5 52 -50.5 149q0 67 15.5 132q15.5 65 50 116.5q34.5 51.5 89 83q54.5 31.5 132.5 31.5q39 0 67.5 -8.5q28.5 -8.5 49 -23q20.5 -14.5 33 -34.5q12.5 -20 19.5 -43l39 97h110l-115 -540h-26q-17 -10 -36 -24q-19 -14 -34.5 -31.5q-15.5 -17.5 -25.5 -38q-10 -20.5 -10 -42.5q0 -18 12 -28.5q12 -10.5 33 -10.5q32 0 63 16l-13 -62q-18 -8 -40 -14q-22 -6 -51 -6q-57 0 -79.5 23.5q-22.5 23.5 -22.5 54.5q0 27 12 51.5q12 24.5 31 45q19 20.5 42.5 37.5q23.5 17 46.5 29l-15 0zM233 214q0 -62 33.5 -89q33.5 -27 86.5 -27q68 0 106 38q38 38 53 109l8 40q3 14 4 26.5q1 12.5 1 22.5q0 56 -29.5 82q-29.5 26 -86.5 26q-48 0 -81.5 -19.5q-33.5 -19.5 -54.5 -51.5q-21 -32 -30.5 -73t-9.5 -84z" />
<glyph unicode="&#262;" horiz-adv-x="650" d="M707 540q-35 25 -78 40q-43 15 -100 15q-50 0 -87 -13q-37 -13 -69 -39q-26 -22 -46 -55.5q-20 -33.5 -34 -72q-14 -38.5 -21.5 -78.5q-7.5 -40 -7.5 -76q0 -81 46 -118.5q46 -37.5 130 -37.5q63 0 113 17q50 17 79 34l-27 -130q-40 -17 -88 -27.5q-48 -10.5 -114 -10.5q-62 0 -113.5 14q-51.5 14 -89.5 44q-38 30 -59 78q-21 48 -21 116q0 45 10.5 100.5q10.5 55.5 31.5 110.5q21 55 53 105q32 50 76 84q49 38 111 55q62 17 132 17q66 0 117 -12.5q51 -12.5 84 -29.5zM629 920h160l-192 -160l-102 0z" />
<glyph unicode="&#263;" horiz-adv-x="560" d="M516 36q-26 -17 -70.5 -32.5q-44.5 -15.5 -108.5 -15.5q-53 0 -96.5 13q-43.5 13 -74.5 39.5q-31 26.5 -48.5 67q-17.5 40.5 -17.5 95.5q0 83 22.5 148q22.5 65 65.5 109.5q43 44.5 105 68q62 23.5 141 23.5q61 0 102.5 -12q41.5 -12 63.5 -26l-29 -120q-22 18 -59.5 33q-37.5 15 -85.5 15q-94 0 -143.5 -56q-49.5 -56 -49.5 -161q0 -57 37.5 -92q37.5 -35 112.5 -35q47 0 87 15.5q40 15.5 72 37.5zM523 775h158l-182 -150l-100 0z" />
<glyph unicode="&#264;" horiz-adv-x="650" d="M707 540q-35 25 -78 40q-43 15 -100 15q-50 0 -87 -13q-37 -13 -69 -39q-26 -22 -46 -55.5q-20 -33.5 -34 -72q-14 -38.5 -21.5 -78.5q-7.5 -40 -7.5 -76q0 -81 46 -118.5q46 -37.5 130 -37.5q63 0 113 17q50 17 79 34l-27 -130q-40 -17 -88 -27.5q-48 -10.5 -114 -10.5q-62 0 -113.5 14q-51.5 14 -89.5 44q-38 30 -59 78q-21 48 -21 116q0 45 10.5 100.5q10.5 55.5 31.5 110.5q21 55 53 105q32 50 76 84q49 38 111 55q62 17 132 17q66 0 117 -12.5q51 -12.5 84 -29.5zM510 920h134l87 -160h-98l-64 96l-108 -96l-106 0z" />
<glyph unicode="&#265;" horiz-adv-x="560" d="M516 36q-26 -17 -70.5 -32.5q-44.5 -15.5 -108.5 -15.5q-53 0 -96.5 13q-43.5 13 -74.5 39.5q-31 26.5 -48.5 67q-17.5 40.5 -17.5 95.5q0 83 22.5 148q22.5 65 65.5 109.5q43 44.5 105 68q62 23.5 141 23.5q61 0 102.5 -12q41.5 -12 63.5 -26l-29 -120q-22 18 -59.5 33q-37.5 15 -85.5 15q-94 0 -143.5 -56q-49.5 -56 -49.5 -161q0 -57 37.5 -92q37.5 -35 112.5 -35q47 0 87 15.5q40 15.5 72 37.5zM415 775h131l79 -150h-98l-55 86l-95 -86l-105 0z" />
<glyph unicode="&#266;" horiz-adv-x="650" d="M707 540q-35 25 -78 40q-43 15 -100 15q-50 0 -87 -13q-37 -13 -69 -39q-26 -22 -46 -55.5q-20 -33.5 -34 -72q-14 -38.5 -21.5 -78.5q-7.5 -40 -7.5 -76q0 -81 46 -118.5q46 -37.5 130 -37.5q63 0 113 17q50 17 79 34l-27 -130q-40 -17 -88 -27.5q-48 -10.5 -114 -10.5q-62 0 -113.5 14q-51.5 14 -89.5 44q-38 30 -59 78q-21 48 -21 116q0 45 10.5 100.5q10.5 55.5 31.5 110.5q21 55 53 105q32 50 76 84q49 38 111 55q62 17 132 17q66 0 117 -12.5q51 -12.5 84 -29.5zM561 769q-76 0 -76 71q0 71 76 71q76 0 76 -71q0 -71 -76 -71z" />
<glyph unicode="&#267;" horiz-adv-x="560" d="M516 36q-26 -17 -70.5 -32.5q-44.5 -15.5 -108.5 -15.5q-53 0 -96.5 13q-43.5 13 -74.5 39.5q-31 26.5 -48.5 67q-17.5 40.5 -17.5 95.5q0 83 22.5 148q22.5 65 65.5 109.5q43 44.5 105 68q62 23.5 141 23.5q61 0 102.5 -12q41.5 -12 63.5 -26l-29 -120q-22 18 -59.5 33q-37.5 15 -85.5 15q-94 0 -143.5 -56q-49.5 -56 -49.5 -161q0 -57 37.5 -92q37.5 -35 112.5 -35q47 0 87 15.5q40 15.5 72 37.5zM466 631q-41 0 -60 18.5q-19 18.5 -19 50.5q0 32 19 50.5q19 18.5 60 18.5q40 0 59.5 -18.5q19.5 -18.5 19.5 -50.5q0 -32 -19.5 -50.5t-59.5 -18.5z" />
<glyph unicode="&#268;" horiz-adv-x="650" d="M707 540q-35 25 -78 40q-43 15 -100 15q-50 0 -87 -13q-37 -13 -69 -39q-26 -22 -46 -55.5q-20 -33.5 -34 -72q-14 -38.5 -21.5 -78.5q-7.5 -40 -7.5 -76q0 -81 46 -118.5q46 -37.5 130 -37.5q63 0 113 17q50 17 79 34l-27 -130q-40 -17 -88 -27.5q-48 -10.5 -114 -10.5q-62 0 -113.5 14q-51.5 14 -89.5 44q-38 30 -59 78q-21 48 -21 116q0 45 10.5 100.5q10.5 55.5 31.5 110.5q21 55 53 105q32 50 76 84q49 38 111 55q62 17 132 17q66 0 117 -12.5q51 -12.5 84 -29.5zM389 920h98l66 -97l107 97h105l-155 -160l-134 0z" />
<glyph unicode="&#269;" horiz-adv-x="560" d="M516 36q-26 -17 -70.5 -32.5q-44.5 -15.5 -108.5 -15.5q-53 0 -96.5 13q-43.5 13 -74.5 39.5q-31 26.5 -48.5 67q-17.5 40.5 -17.5 95.5q0 83 22.5 148q22.5 65 65.5 109.5q43 44.5 105 68q62 23.5 141 23.5q61 0 102.5 -12q41.5 -12 63.5 -26l-29 -120q-22 18 -59.5 33q-37.5 15 -85.5 15q-94 0 -143.5 -56q-49.5 -56 -49.5 -161q0 -57 37.5 -92q37.5 -35 112.5 -35q47 0 87 15.5q40 15.5 72 37.5zM306 775h98l56 -87l95 87h105l-145 -150l-130 0z" />
<glyph unicode="&#270;" horiz-adv-x="755" d="M304 -6q-63 0 -112 2.5q-49 2.5 -96 6.5l148 697q29 2 55.5 3q26.5 1 54 2q27.5 1 57 1q29.5 0 64.5 0q142 0 222 -64q80 -64 80 -193q0 -114 -33 -206q-33 -92 -92 -146q-30 -28 -65.5 -47.5q-35.5 -19.5 -78 -32q-42.5 -12.5 -93 -18q-50.5 -5.5 -111.5 -5.5zt0 0zM253 116q22 -2 39 -3.5q17 -1.5 39 -1.5q64 0 114 11.5q50 11.5 86 39.5q45 35 73.5 104q28.5 69 28.5 159q0 84 -45 124q-45 40 -139 40q-26 0 -49 -0.5q-23 -0.5 -47 -2.5zM350 920h98l66 -97l107 97h105l-155 -160l-134 0z" />
<glyph unicode="&#271;" horiz-adv-x="772" d="M481 89q-14 -21 -31 -39.5q-17 -18.5 -39.5 -32q-22.5 -13.5 -51 -21.5q-28.5 -8 -64.5 -8q-94 0 -145 52q-51 52 -51 152q0 68 16 132.5q16 64.5 50.5 115q34.5 50.5 89.5 81.5q55 31 133 31q77 0 116 -28.5q39 -28.5 50 -73.5l67 310h130l-162 -760h-113zM232 217q0 -65 33.5 -92q33.5 -27 88.5 -27q66 0 104.5 38.5q38.5 38.5 52.5 108.5l8 40q15 75 -14.5 116q-29.5 41 -95.5 41q-48 0 -82 -19.5q-34 -19.5 -55 -51q-21 -31.5 -30.5 -72q-9.5 -40.5 -9.5 -82.5zt0 0zM890 757h122l-134 -214l-88 0z" />
<glyph unicode="&#272;" horiz-adv-x="765" d="M108 407h84l62 293q29 2 55.5 3q26.5 1 54 2q27.5 1 57 1q29.5 0 64.5 0q142 0 222 -64q80 -64 80 -193q0 -114 -33 -206q-33 -92 -92 -146q-30 -28 -65.5 -47.5q-35.5 -19.5 -78 -32q-42.5 -12.5 -93 -18q-50.5 -5.5 -111.5 -5.5q-63 0 -112 2.5q-49 2.5 -96 6.5l66 310h-84zM263 116q22 -2 39 -3.5q17 -1.5 39 -1.5q64 0 114 11.5q50 11.5 86 39.5q45 35 73.5 104q28.5 69 28.5 159q0 84 -45 124q-45 40 -139 40q-26 0 -49 -0.5q-23 -0.5 -47 -2.5l-38 -179h150l-19 -94l-151 0z" />
<glyph unicode="&#273;" horiz-adv-x="670" d="M409 681h195l17 79h130l-17 -79h86l-19 -88h-86l-126 -593h-113l5 89q-14 -21 -31 -39.5q-17 -18.5 -39.5 -32q-22.5 -13.5 -51 -21.5q-28.5 -8 -64.5 -8q-94 0 -145 52q-51 52 -51 152q0 68 16 132.5q16 64.5 50.5 115q34.5 50.5 89.5 81.5q55 31 133 31q77 0 116 -28.5q39 -28.5 50 -73.5l31 143h-195zM232 217q0 -65 33.5 -92q33.5 -27 88.5 -27q66 0 104.5 38.5q38.5 38.5 52.5 108.5l8 40q15 75 -14.5 116q-29.5 41 -95.5 41q-48 0 -82 -19.5q-34 -19.5 -55 -51q-21 -31.5 -30.5 -72t-9.5 -82.5z" />
<glyph unicode="&#274;" horiz-adv-x="622" d="M243 700h467l-25 -117h-331l-36 -171h295l-24 -110h-296l-39 -185h332l-25 -117h-465zM341 884h330v-88l-330 0z" />
<glyph unicode="&#275;" horiz-adv-x="595" d="M338 -12q-60 0 -105 15q-45 15 -75 42.5q-30 27.5 -44.5 66q-14.5 38.5 -14.5 85.5q0 78 22 143q22 65 64 112q42 47 102 73.5q60 26.5 136 26.5q58 0 98 -11q40 -11 64.5 -30.5q24.5 -19.5 35 -46q10.5 -26.5 10.5 -56.5q0 -33 -13.5 -64q-13.5 -31 -47 -55q-33.5 -24 -90.5 -38.5q-57 -14.5 -144 -14.5h-105q-1 -7 -2 -16q-1 -9 -1 -20q0 -54 33.5 -82q33.5 -28 106.5 -28q28 0 56.5 5q28.5 5 55.5 14q27 9 51 21.5q24 12.5 42 27.5l-23 -112q-29 -22 -86.5 -40q-57.5 -18 -125.5 -18zt0 0zM351 314q46 0 74.5 6.5q28.5 6.5 44.5 17q16 10.5 22 24q6 13.5 6 27.5q0 25 -17 43q-17 18 -67 18q-72 0 -111 -34.5q-39 -34.5 -56 -101.5zM287 742h316v-84l-316 0z" />
<glyph unicode="&#278;" horiz-adv-x="622" d="M243 700h467l-25 -117h-331l-36 -171h295l-24 -110h-296l-39 -185h332l-25 -117h-465zM506 769q-76 0 -76 71q0 71 76 71q76 0 76 -71q0 -71 -76 -71z" />
<glyph unicode="&#279;" horiz-adv-x="595" d="M338 -12q-60 0 -105 15q-45 15 -75 42.5q-30 27.5 -44.5 66q-14.5 38.5 -14.5 85.5q0 78 22 143q22 65 64 112q42 47 102 73.5q60 26.5 136 26.5q58 0 98 -11q40 -11 64.5 -30.5q24.5 -19.5 35 -46q10.5 -26.5 10.5 -56.5q0 -33 -13.5 -64q-13.5 -31 -47 -55q-33.5 -24 -90.5 -38.5q-57 -14.5 -144 -14.5h-105q-1 -7 -2 -16q-1 -9 -1 -20q0 -54 33.5 -82q33.5 -28 106.5 -28q28 0 56.5 5q28.5 5 55.5 14q27 9 51 21.5q24 12.5 42 27.5l-23 -112q-29 -22 -86.5 -40q-57.5 -18 -125.5 -18zt0 0zM351 314q46 0 74.5 6.5q28.5 6.5 44.5 17q16 10.5 22 24q6 13.5 6 27.5q0 25 -17 43q-17 18 -67 18q-72 0 -111 -34.5q-39 -34.5 -56 -101.5zM446 631q-41 0 -60 18.5q-19 18.5 -19 50.5q0 32 19 50.5q19 18.5 60 18.5q40 0 59.5 -18.5q19.5 -18.5 19.5 -50.5q0 -32 -19.5 -50.5t-59.5 -18.5z" />
<glyph unicode="&#280;" horiz-adv-x="622" d="M245 700h465l-24 -117h-332l-36 -171h295l-24 -110h-296l-39 -185h332l-25 -117h-38q-18 -11 -38 -26q-20 -15 -37 -33.5q-17 -18.5 -28 -40q-11 -21.5 -11 -44.5q0 -20 13.5 -30q13.5 -10 36.5 -10q35 0 66 17l-14 -66q-19 -8 -43.5 -14.5q-24.5 -6.5 -54.5 -6.5q-58 0 -81 23q-23 23 -23 55q0 30 13 56q13 26 33 48q20 22 45.5 40q25.5 18 49.5 32l-354 0z" />
<glyph unicode="&#281;" horiz-adv-x="595" d="M327 -241q-57 0 -79.5 23.5q-22.5 23.5 -22.5 54.5q0 24 9.5 46q9.5 22 25 41q15.5 19 35.5 35q20 16 41 29q-120 1 -178.5 57.5q-58.5 56.5 -58.5 151.5q0 78 22 143q22 65 64 112q42 47 102 73.5q60 26.5 136 26.5q58 0 98 -11q40 -11 64.5 -30.5q24.5 -19.5 35 -46q10.5 -26.5 10.5 -56.5q0 -33 -13.5 -64q-13.5 -31 -47 -55q-33.5 -24 -90.5 -38.5q-57 -14.5 -144 -14.5h-105q-1 -7 -2 -16q-1 -9 -1 -20q0 -54 33.5 -82q33.5 -28 106.5 -28q28 0 56.5 5q28.5 5 55.5 14q27 9 51 21.5q24 12.5 42 27.5l-23 -112q-20 -15 -52.5 -28.5q-32.5 -13.5 -74.5 -21.5q-17 -11 -35 -24.5q-18 -13.5 -32.5 -30.5q-14.5 -17 -23.5 -36.5q-9 -19.5 -9 -40.5q0 -18 12 -28.5q12 -10.5 33 -10.5q32 0 63 16l-13 -62q-18 -8 -40 -14q-22 -6 -51 -6zt0 0zM351 314q46 0 74.5 6.5q28.5 6.5 44.5 17q16 10.5 22 24q6 13.5 6 27.5q0 25 -17 43q-17 18 -67 18q-72 0 -111 -34.5q-39 -34.5 -56 -101.5z" />
<glyph unicode="&#282;" horiz-adv-x="622" d="M243 700h467l-25 -117h-331l-36 -171h295l-24 -110h-296l-39 -185h332l-25 -117h-465zM336 920h98l66 -97l107 97h105l-155 -160l-134 0z" />
<glyph unicode="&#283;" horiz-adv-x="595" d="M338 -12q-60 0 -105 15q-45 15 -75 42.5q-30 27.5 -44.5 66q-14.5 38.5 -14.5 85.5q0 78 22 143q22 65 64 112q42 47 102 73.5q60 26.5 136 26.5q58 0 98 -11q40 -11 64.5 -30.5q24.5 -19.5 35 -46q10.5 -26.5 10.5 -56.5q0 -33 -13.5 -64q-13.5 -31 -47 -55q-33.5 -24 -90.5 -38.5q-57 -14.5 -144 -14.5h-105q-1 -7 -2 -16q-1 -9 -1 -20q0 -54 33.5 -82q33.5 -28 106.5 -28q28 0 56.5 5q28.5 5 55.5 14q27 9 51 21.5q24 12.5 42 27.5l-23 -112q-29 -22 -86.5 -40q-57.5 -18 -125.5 -18zt0 0zM351 314q46 0 74.5 6.5q28.5 6.5 44.5 17q16 10.5 22 24q6 13.5 6 27.5q0 25 -17 43q-17 18 -67 18q-72 0 -111 -34.5q-39 -34.5 -56 -101.5zM286 775h98l56 -87l95 87h105l-145 -150l-130 0z" />
<glyph unicode="&#284;" horiz-adv-x="708" d="M428 -12q-72 0 -128.5 15.5q-56.5 15.5 -95.5 48.5q-39 33 -60 84q-21 51 -21 123q0 54 12.5 110q12.5 56 34.5 107q22 51 52.5 93.5q30.5 42.5 66.5 69.5q56 42 119 57.5q63 15.5 147 15.5q32 0 62.5 -4q30.5 -4 57 -10.5q26.5 -6.5 47.5 -14q21 -7.5 34 -14.5l-28 -128q-29 20 -79 37q-50 17 -107 17q-51 0 -92 -11q-41 -11 -77 -41q-23 -19 -42.5 -50q-19.5 -31 -33.5 -67q-14 -36 -22 -75q-8 -39 -8 -75q0 -48 12.5 -81q12.5 -33 36 -53q23.5 -20 57 -28.5q33.5 -8.5 76.5 -8.5q35 0 63.5 5q28.5 5 50.5 12l32 151h-139l24 110h257l-73 -345q-14 -7 -37.5 -15.5q-23.5 -8.5 -54 -16q-30.5 -7.5 -67 -13q-36.5 -5.5 -77.5 -5.5zt0 0zM526 920h134l87 -160h-98l-64 96l-108 -96l-106 0z" />
<glyph unicode="&#285;" horiz-adv-x="669" d="M260 -202q-66 0 -116 10.5q-50 10.5 -77 23.5v124q47 -17 94 -33.5q47 -16.5 122 -16.5q44 0 76.5 10q32.5 10 55 28.5q22.5 18.5 36.5 44.5q14 26 20 57l15 76q-14 -21 -30.5 -40q-16.5 -19 -38.5 -33.5q-22 -14.5 -50.5 -22.5q-28.5 -8 -65.5 -8q-93 0 -146 46.5q-53 46.5 -53 150.5q0 59 15.5 119q15.5 60 49.5 108.5q34 48.5 88.5 79q54.5 30.5 133.5 30.5q76 0 115 -29q39 -29 51 -73l38 90h110l-103 -486q-15 -68 -43 -116.5q-28 -48.5 -70.5 -79.5q-42.5 -31 -99 -45.5q-56.5 -14.5 -127.5 -14.5zt0 0zM360 126q36 0 63 11q27 11 45 29.5q18 18.5 29 41.5q11 23 16 47l8 40q16 75 -14.5 112q-30.5 37 -97.5 37q-47 0 -79 -17q-32 -17 -51.5 -45.5q-19.5 -28.5 -28.5 -65.5q-9 -37 -9 -76q0 -60 30.5 -87q30.5 -27 88.5 -27zt0 0zM415 775h131l79 -150h-98l-55 86l-95 -86l-105 0z" />
<glyph unicode="&#286;" horiz-adv-x="708" d="M428 -12q-72 0 -128.5 15.5q-56.5 15.5 -95.5 48.5q-39 33 -60 84q-21 51 -21 123q0 54 12.5 110q12.5 56 34.5 107q22 51 52.5 93.5q30.5 42.5 66.5 69.5q56 42 119 57.5q63 15.5 147 15.5q32 0 62.5 -4q30.5 -4 57 -10.5q26.5 -6.5 47.5 -14q21 -7.5 34 -14.5l-28 -128q-29 20 -79 37q-50 17 -107 17q-51 0 -92 -11q-41 -11 -77 -41q-23 -19 -42.5 -50q-19.5 -31 -33.5 -67q-14 -36 -22 -75q-8 -39 -8 -75q0 -48 12.5 -81q12.5 -33 36 -53q23.5 -20 57 -28.5q33.5 -8.5 76.5 -8.5q35 0 63.5 5q28.5 5 50.5 12l32 151h-139l24 110h257l-73 -345q-14 -7 -37.5 -15.5q-23.5 -8.5 -54 -16q-30.5 -7.5 -67 -13q-36.5 -5.5 -77.5 -5.5zt0 0zM502 920q6 -76 75 -76q67 0 108 76l74 -21q-67 -139 -200 -139q-134 0 -140 139z" />
<glyph unicode="&#287;" horiz-adv-x="669" d="M260 -202q-66 0 -116 10.5q-50 10.5 -77 23.5v124q47 -17 94 -33.5q47 -16.5 122 -16.5q44 0 76.5 10q32.5 10 55 28.5q22.5 18.5 36.5 44.5q14 26 20 57l15 76q-14 -21 -30.5 -40q-16.5 -19 -38.5 -33.5q-22 -14.5 -50.5 -22.5q-28.5 -8 -65.5 -8q-93 0 -146 46.5q-53 46.5 -53 150.5q0 59 15.5 119q15.5 60 49.5 108.5q34 48.5 88.5 79q54.5 30.5 133.5 30.5q76 0 115 -29q39 -29 51 -73l38 90h110l-103 -486q-15 -68 -43 -116.5q-28 -48.5 -70.5 -79.5q-42.5 -31 -99 -45.5q-56.5 -14.5 -127.5 -14.5zt0 0zM360 126q36 0 63 11q27 11 45 29.5q18 18.5 29 41.5q11 23 16 47l8 40q16 75 -14.5 112q-30.5 37 -97.5 37q-47 0 -79 -17q-32 -17 -51.5 -45.5q-19.5 -28.5 -28.5 -65.5q-9 -37 -9 -76q0 -60 30.5 -87q30.5 -27 88.5 -27zt0 0zM387 780q4 -38 23 -58q19 -20 54 -20q35 0 63 20q28 20 47 58l72 -21q-67 -139 -199 -139q-133 0 -141 139z" />
<glyph unicode="&#288;" horiz-adv-x="708" d="M428 -12q-72 0 -128.5 15.5q-56.5 15.5 -95.5 48.5q-39 33 -60 84q-21 51 -21 123q0 54 12.5 110q12.5 56 34.5 107q22 51 52.5 93.5q30.5 42.5 66.5 69.5q56 42 119 57.5q63 15.5 147 15.5q32 0 62.5 -4q30.5 -4 57 -10.5q26.5 -6.5 47.5 -14q21 -7.5 34 -14.5l-28 -128q-29 20 -79 37q-50 17 -107 17q-51 0 -92 -11q-41 -11 -77 -41q-23 -19 -42.5 -50q-19.5 -31 -33.5 -67q-14 -36 -22 -75q-8 -39 -8 -75q0 -48 12.5 -81q12.5 -33 36 -53q23.5 -20 57 -28.5q33.5 -8.5 76.5 -8.5q35 0 63.5 5q28.5 5 50.5 12l32 151h-139l24 110h257l-73 -345q-14 -7 -37.5 -15.5q-23.5 -8.5 -54 -16q-30.5 -7.5 -67 -13q-36.5 -5.5 -77.5 -5.5zt0 0zM577 769q-76 0 -76 71q0 71 76 71q76 0 76 -71q0 -71 -76 -71z" />
<glyph unicode="&#289;" horiz-adv-x="669" d="M260 -202q-66 0 -116 10.5q-50 10.5 -77 23.5v124q47 -17 94 -33.5q47 -16.5 122 -16.5q44 0 76.5 10q32.5 10 55 28.5q22.5 18.5 36.5 44.5q14 26 20 57l15 76q-14 -21 -30.5 -40q-16.5 -19 -38.5 -33.5q-22 -14.5 -50.5 -22.5q-28.5 -8 -65.5 -8q-93 0 -146 46.5q-53 46.5 -53 150.5q0 59 15.5 119q15.5 60 49.5 108.5q34 48.5 88.5 79q54.5 30.5 133.5 30.5q76 0 115 -29q39 -29 51 -73l38 90h110l-103 -486q-15 -68 -43 -116.5q-28 -48.5 -70.5 -79.5q-42.5 -31 -99 -45.5q-56.5 -14.5 -127.5 -14.5zt0 0zM360 126q36 0 63 11q27 11 45 29.5q18 18.5 29 41.5q11 23 16 47l8 40q16 75 -14.5 112q-30.5 37 -97.5 37q-47 0 -79 -17q-32 -17 -51.5 -45.5q-19.5 -28.5 -28.5 -65.5q-9 -37 -9 -76q0 -60 30.5 -87q30.5 -27 88.5 -27zt0 0zM466 631q-41 0 -60 18.5q-19 18.5 -19 50.5q0 32 19 50.5q19 18.5 60 18.5q40 0 59.5 -18.5q19.5 -18.5 19.5 -50.5q0 -32 -19.5 -50.5t-59.5 -18.5z" />
<glyph unicode="&#290;" horiz-adv-x="708" d="M428 -12q-72 0 -128.5 15.5q-56.5 15.5 -95.5 48.5q-39 33 -60 84q-21 51 -21 123q0 54 12.5 110q12.5 56 34.5 107q22 51 52.5 93.5q30.5 42.5 66.5 69.5q56 42 119 57.5q63 15.5 147 15.5q32 0 62.5 -4q30.5 -4 57 -10.5q26.5 -6.5 47.5 -14q21 -7.5 34 -14.5l-28 -128q-29 20 -79 37q-50 17 -107 17q-51 0 -92 -11q-41 -11 -77 -41q-23 -19 -42.5 -50q-19.5 -31 -33.5 -67q-14 -36 -22 -75q-8 -39 -8 -75q0 -48 12.5 -81q12.5 -33 36 -53q23.5 -20 57 -28.5q33.5 -8.5 76.5 -8.5q35 0 63.5 5q28.5 5 50.5 12l32 151h-139l24 110h257l-73 -345q-14 -7 -37.5 -15.5q-23.5 -8.5 -54 -16q-30.5 -7.5 -67 -13q-36.5 -5.5 -77.5 -5.5zt0 0zM289 -196q32 2 55 12q23 10 31 36q-5 -1 -9 -1q-4 0 -8 0q-64 0 -64 40q0 17 8 29q8 12 20.5 19.5q12.5 7.5 29.5 10.5q17 3 35 3q31 0 50 -14q19 -14 19 -43q0 -29 -13 -54q-13 -25 -36.5 -44q-23.5 -19 -56.5 -31q-33 -12 -72 -13z" />
<glyph unicode="&#291;" horiz-adv-x="669" d="M260 -202q-66 0 -116 10.5q-50 10.5 -77 23.5v124q47 -17 94 -33.5q47 -16.5 122 -16.5q44 0 76.5 10q32.5 10 55 28.5q22.5 18.5 36.5 44.5q14 26 20 57l15 76q-14 -21 -30.5 -40q-16.5 -19 -38.5 -33.5q-22 -14.5 -50.5 -22.5q-28.5 -8 -65.5 -8q-93 0 -146 46.5q-53 46.5 -53 150.5q0 59 15.5 119q15.5 60 49.5 108.5q34 48.5 88.5 79q54.5 30.5 133.5 30.5q76 0 115 -29q39 -29 51 -73l38 90h110l-103 -486q-15 -68 -43 -116.5q-28 -48.5 -70.5 -79.5q-42.5 -31 -99 -45.5q-56.5 -14.5 -127.5 -14.5zt0 0zM360 126q36 0 63 11q27 11 45 29.5q18 18.5 29 41.5q11 23 16 47l8 40q16 75 -14.5 112q-30.5 37 -97.5 37q-47 0 -79 -17q-32 -17 -51.5 -45.5q-19.5 -28.5 -28.5 -65.5q-9 -37 -9 -76q0 -60 30.5 -87q30.5 -27 88.5 -27zt0 0zM546 770q-30 -2 -52.5 -13q-22.5 -11 -30.5 -36q5 1 9.5 1q4.5 0 8.5 0q28 0 43.5 -10q15.5 -10 15.5 -30q0 -15 -8.5 -26q-8.5 -11 -21.5 -18q-13 -7 -29 -10q-16 -3 -30 -3q-29 0 -47 13.5q-18 13.5 -18 45.5q0 32 16 56q16 24 40.5 40.5q24.5 16.5 54 26q29.5 9.5 56.5 10.5z" />
<glyph unicode="&#292;" horiz-adv-x="788" d="M245 700h134l-60 -282h328l60 282h134l-149 -700h-134l64 302h-328l-64 -302h-134zM522 920h134l87 -160h-98l-64 96l-108 -96l-106 0z" />
<glyph unicode="&#293;" horiz-adv-x="658" d="M243 760h131l-66 -304q32 47 80.5 71.5q48.5 24.5 117.5 24.5q83 0 122 -31q39 -31 39 -95q0 -31 -9 -71l-75 -355h-130l69 326q3 14 4 25.5q1 11.5 1 21.5q0 38 -23 53.5q-23 15.5 -73 15.5q-68 0 -104.5 -33.5q-36.5 -33.5 -49.5 -96.5l-66 -312h-130zM280 935h131l79 -150h-98l-55 86l-95 -86l-105 0z" />
<glyph unicode="&#294;" horiz-adv-x="814" d="M150 597h85l22 103h134l-22 -103h328l22 103h134l-22 -103h86l-20 -94h-86l-107 -503h-134l64 302h-328l-64 -302h-134l107 503h-85zM659 418l18 85h-328l-18 -85z" />
<glyph unicode="&#295;" horiz-adv-x="658" d="M141 681h85l17 79h131l-18 -79h196l-19 -88h-196l-29 -137q32 47 80.5 71.5q48.5 24.5 117.5 24.5q83 0 122 -31q39 -31 39 -95q0 -31 -9 -71l-75 -355h-130l69 326q3 14 4 25.5q1 11.5 1 21.5q0 38 -23 53.5q-23 15.5 -73 15.5q-68 0 -104.5 -33.5q-36.5 -33.5 -49.5 -96.5l-66 -312h-130l126 593l-85 0z" />
<glyph unicode="&#298;" horiz-adv-x="336" d="M250 700h134l-149 -700h-134zM183 884h330v-88l-330 0z" />
<glyph unicode="&#299;" horiz-adv-x="308" d="M89 0l115 540h130l-115 -540zM144 742h316v-84l-316 0z" />
<glyph unicode="&#302;" horiz-adv-x="336" d="M250 700h134l-149 -700h-30q-18 -11 -38 -26q-20 -15 -37 -33.5q-17 -18.5 -28 -40q-11 -21.5 -11 -44.5q0 -20 13.5 -30q13.5 -10 36.5 -10q35 0 66 17l-14 -66q-19 -8 -43.5 -14.5q-24.5 -6.5 -54.5 -6.5q-58 0 -81 23q-23 23 -23 55q0 30 13 56q13 26 33 48q20 22 45.5 40q25.5 18 49.5 32l-31 0z" />
<glyph unicode="&#303;" horiz-adv-x="308" d="M89 -241q-57 0 -79.5 23.5q-22.5 23.5 -22.5 54.5q0 27 12 51.5q12 24.5 31 45q19 20.5 42.5 37.5q23.5 17 46.5 29l-30 0l115 540h130l-115 -540h-28q-17 -10 -36 -24q-19 -14 -34.5 -31.5q-15.5 -17.5 -25.5 -38q-10 -20.5 -10 -42.5q0 -18 12 -28.5q12 -10.5 33 -10.5q32 0 63 16l-13 -62q-18 -8 -40 -14q-22 -6 -51 -6zt0 0zM302 631q-41 0 -60 18.5q-19 18.5 -19 50.5q0 32 19 50.5q19 18.5 60 18.5q40 0 59.5 -18.5q19.5 -18.5 19.5 -50.5q0 -32 -19.5 -50.5t-59.5 -18.5z" />
<glyph unicode="&#304;" horiz-adv-x="336" d="M250 700h134l-149 -700h-134zM346 769q-76 0 -76 71q0 71 76 71q76 0 76 -71q0 -71 -76 -71z" />
<glyph unicode="&#305;" horiz-adv-x="308" d="M89 0l115 540h130l-115 -540z" />
<glyph unicode="&#308;" horiz-adv-x="439" d="M150 -6q-32 0 -63 7.5q-31 7.5 -58 20.5l26 125q24 -17 46 -26.5q22 -9.5 48 -9.5q45 0 69.5 24q24.5 24 36.5 82l103 484h134l-107 -501q-12 -56 -31 -95q-19 -39 -47.5 -63.5q-28.5 -24.5 -67 -36q-38.5 -11.5 -89.5 -11.5zt0 0zM404 920h134l87 -160h-98l-64 96l-108 -96l-106 0z" />
<glyph unicode="&#309;" horiz-adv-x="308" d="M-44 -62q21 -13 57 -13q32 0 48.5 14.5q16.5 14.5 24.5 49.5l118 551h130l-118 -553q-20 -93 -66 -133q-46 -40 -132 -40q-34 0 -55 4q-21 4 -31 9zM253 775h131l79 -150h-98l-55 86l-95 -86l-105 0z" />
<glyph unicode="&#310;" horiz-adv-x="715" d="M370 298h-77l-63 -298h-134l148 700h134l-61 -285h62l276 285h160l-336 -341l212 -359h-146zM284 -196q32 2 55 12q23 10 31 36q-5 -1 -9 -1q-4 0 -8 0q-64 0 -64 40q0 17 8 29q8 12 20.5 19.5q12.5 7.5 29.5 10.5q17 3 35 3q31 0 50 -14q19 -14 19 -43q0 -29 -13 -54q-13 -25 -36.5 -44q-23.5 -19 -56.5 -31q-33 -12 -72 -13z" />
<glyph unicode="&#311;" horiz-adv-x="610" d="M242 760h130l-90 -425h45l194 205h160l-257 -265l163 -275h-152l-132 225h-44l-48 -225h-130zM219 -192q30 2 52.5 13q22.5 11 30.5 36q-5 -1 -9.5 -1q-4.5 0 -8.5 0q-28 0 -43.5 10q-15.5 10 -15.5 30q0 15 8.5 26q8.5 11 21.5 18q13 7 29 10q16 3 30 3q29 0 47 -13.5q18 -13.5 18 -45.5q0 -32 -16 -56q-16 -24 -40.5 -40.5q-24.5 -16.5 -54 -26q-29.5 -9.5 -56.5 -10.5z" />
<glyph unicode="&#313;" horiz-adv-x="576" d="M245 700h134l-125 -583h318l-24 -117h-452zM406 920h160l-192 -160l-102 0z" />
<glyph unicode="&#314;" horiz-adv-x="356" d="M236 -6q-63 0 -97.5 21.5q-34.5 21.5 -34.5 72.5q0 11 2 24q2 13 4 27l132 621h130l-126 -597q-2 -8 -3 -14q-1 -6 -1 -11q0 -20 11.5 -27q11.5 -7 35.5 -7q16 0 31 3q15 3 32 8l-23 -105q-12 -5 -36.5 -10.5q-24.5 -5.5 -56.5 -5.5zt0 0zM381 928h158l-182 -150l-100 0z" />
<glyph unicode="&#315;" horiz-adv-x="576" d="M245 700h134l-125 -583h318l-24 -117h-452zM213 -196q32 2 55 12q23 10 31 36q-5 -1 -9 -1q-4 0 -8 0q-64 0 -64 40q0 17 8 29q8 12 20.5 19.5q12.5 7.5 29.5 10.5q17 3 35 3q31 0 50 -14q19 -14 19 -43q0 -29 -13 -54q-13 -25 -36.5 -44q-23.5 -19 -56.5 -31q-33 -12 -72 -13z" />
<glyph unicode="&#316;" horiz-adv-x="356" d="M236 -6q-63 0 -97.5 21.5q-34.5 21.5 -34.5 72.5q0 11 2 24q2 13 4 27l132 621h130l-126 -597q-2 -8 -3 -14q-1 -6 -1 -11q0 -20 11.5 -27q11.5 -7 35.5 -7q16 0 31 3q15 3 32 8l-23 -105q-12 -5 -36.5 -10.5q-24.5 -5.5 -56.5 -5.5zt0 0zM97 -192q30 2 52.5 13q22.5 11 30.5 36q-5 -1 -9.5 -1q-4.5 0 -8.5 0q-28 0 -43.5 10q-15.5 10 -15.5 30q0 15 8.5 26q8.5 11 21.5 18q13 7 29 10q16 3 30 3q29 0 47 -13.5q18 -13.5 18 -45.5q0 -32 -16 -56q-16 -24 -40.5 -40.5q-24.5 -16.5 -54 -26q-29.5 -9.5 -56.5 -10.5z" />
<glyph unicode="&#317;" horiz-adv-x="576" d="M245 700h134l-125 -583h318l-24 -117h-452zM519 700h122l-134 -214l-88 0z" />
<glyph unicode="&#318;" horiz-adv-x="393" d="M236 -6q-63 0 -97.5 21.5q-34.5 21.5 -34.5 72.5q0 11 2 24q2 13 4 27l132 621h130l-126 -597q-2 -8 -3 -14q-1 -6 -1 -11q0 -20 11.5 -27q11.5 -7 35.5 -7q16 0 31 3q15 3 32 8l-23 -105q-12 -5 -36.5 -10.5q-24.5 -5.5 -56.5 -5.5zt0 0zM511 757h122l-134 -214l-88 0z" />
<glyph unicode="&#319;" horiz-adv-x="576" d="M245 700h134l-125 -583h318l-24 -117h-452zM532 296q-85 0 -85 83q0 83 85 83q85 0 85 -83q0 -83 -85 -83z" />
<glyph unicode="&#320;" horiz-adv-x="414" d="M236 -6q-63 0 -97.5 21.5q-34.5 21.5 -34.5 72.5q0 11 2 24q2 13 4 27l132 621h130l-126 -597q-2 -8 -3 -14q-1 -6 -1 -11q0 -20 11.5 -27q11.5 -7 35.5 -7q16 0 31 3q15 3 32 8l-23 -105q-12 -5 -36.5 -10.5q-24.5 -5.5 -56.5 -5.5zt0 0zM434 297q-85 0 -85 83q0 83 85 83q85 0 85 -83q0 -83 -85 -83z" />
<glyph unicode="&#321;" horiz-adv-x="590" d="M96 338l96 50l67 312h134l-51 -235l159 82l-22 -103l-159 -82l-52 -245h318l-24 -117h-452l60 285l-96 -50z" />
<glyph unicode="&#322;" horiz-adv-x="398" d="M99 355l110 56l75 349h130l-58 -273l116 60l-20 -99l-117 -60l-48 -225q-2 -8 -3 -14q-1 -6 -1 -11q0 -20 11.5 -27q11.5 -7 35.5 -7q16 0 31 3q15 3 32 8l-23 -105q-12 -5 -36.5 -10.5q-24.5 -5.5 -56.5 -5.5q-63 0 -97.5 21.5q-34.5 21.5 -34.5 72.5q0 22 6 51l37 174l-110 -56z" />
<glyph unicode="&#323;" horiz-adv-x="786" d="M245 700h138l176 -417q12 -29 23 -54q11 -25 20 -57q2 32 5.5 57q3.5 25 9.5 55l88 416h134l-148 -700h-138l-177 416q-12 30 -21.5 55q-9.5 25 -17.5 57q-4 -32 -7.5 -57q-3.5 -25 -10.5 -55l-88 -416h-134zM638 920h160l-192 -160l-102 0z" />
<glyph unicode="&#324;" horiz-adv-x="658" d="M196 540h113l-2 -83q35 51 86 73q51 22 113 22q78 0 119.5 -29q41.5 -29 41.5 -98q0 -14 -2 -31q-2 -17 -6 -37l-76 -357h-130l67 316q3 17 5 31q2 14 2 25q0 40 -23 55q-23 15 -74 15q-127 0 -153 -130l-66 -312h-130zM539 775h158l-182 -150l-100 0z" />
<glyph unicode="&#325;" horiz-adv-x="786" d="M245 700h138l176 -417q12 -29 23 -54q11 -25 20 -57q2 32 5.5 57q3.5 25 9.5 55l88 416h134l-148 -700h-138l-177 416q-12 30 -21.5 55q-9.5 25 -17.5 57q-4 -32 -7.5 -57q-3.5 -25 -10.5 -55l-88 -416h-134zM284 -196q32 2 55 12q23 10 31 36q-5 -1 -9 -1q-4 0 -8 0q-64 0 -64 40q0 17 8 29q8 12 20.5 19.5q12.5 7.5 29.5 10.5q17 3 35 3q31 0 50 -14q19 -14 19 -43q0 -29 -13 -54q-13 -25 -36.5 -44q-23.5 -19 -56.5 -31q-33 -12 -72 -13z" />
<glyph unicode="&#326;" horiz-adv-x="658" d="M196 540h113l-2 -83q35 51 86 73q51 22 113 22q78 0 119.5 -29q41.5 -29 41.5 -98q0 -14 -2 -31q-2 -17 -6 -37l-76 -357h-130l67 316q3 17 5 31q2 14 2 25q0 40 -23 55q-23 15 -74 15q-127 0 -153 -130l-66 -312h-130zM226 -192q30 2 52.5 13q22.5 11 30.5 36q-5 -1 -9.5 -1q-4.5 0 -8.5 0q-28 0 -43.5 10q-15.5 10 -15.5 30q0 15 8.5 26q8.5 11 21.5 18q13 7 29 10q16 3 30 3q29 0 47 -13.5q18 -13.5 18 -45.5q0 -32 -16 -56q-16 -24 -40.5 -40.5q-24.5 -16.5 -54 -26q-29.5 -9.5 -56.5 -10.5z" />
<glyph unicode="&#327;" horiz-adv-x="786" d="M245 700h138l176 -417q12 -29 23 -54q11 -25 20 -57q2 32 5.5 57q3.5 25 9.5 55l88 416h134l-148 -700h-138l-177 416q-12 30 -21.5 55q-9.5 25 -17.5 57q-4 -32 -7.5 -57q-3.5 -25 -10.5 -55l-88 -416h-134zM401 920h98l66 -97l107 97h105l-155 -160l-134 0z" />
<glyph unicode="&#328;" horiz-adv-x="658" d="M196 540h113l-2 -83q35 51 86 73q51 22 113 22q78 0 119.5 -29q41.5 -29 41.5 -98q0 -14 -2 -31q-2 -17 -6 -37l-76 -357h-130l67 316q3 17 5 31q2 14 2 25q0 40 -23 55q-23 15 -74 15q-127 0 -153 -130l-66 -312h-130zM320 775h98l56 -87l95 87h105l-145 -150l-130 0z" />
</font>
</defs>
</svg>
